<svg xmlns="http://www.w3.org/2000/svg" width="667" height="667" viewBox="0 0 667 667"><path d="M227.314 32.95c-6.689 4.079-7.636 11.815-2.38 19.454 4.47 6.496 10.541 19.744 12.647 27.596 2.327 8.679 2.336 22.68.018 30.457-2.406 8.072-5.37 13.652-11.976 22.543-17.751 23.891-18.058 55.323-.862 88.215 2.506 4.793 5.785 9.892 7.286 11.33 5.565 5.332 14.857 3.94 18.993-2.844 3.046-4.994 2.464-8.704-2.969-18.926-8.826-16.611-12.084-30.674-10.052-43.395 1.407-8.806 3.592-13.637 9.978-22.058 17.068-22.507 21.316-50.407 11.96-78.545-5.128-15.422-14.438-31.423-19.938-34.267-3.982-2.06-8.884-1.89-12.705.44m77.921 1.473c-3.418 3.132-3.735 3.876-3.735 8.75 0 4.4.574 6.154 3.302 10.083 4.896 7.051 9.903 18.213 12.182 27.154 4.702 18.448 1.184 35.517-10.424 50.59-10.331 13.414-13.557 22.448-14.288 40.005-.603 14.502.762 22.865 6.014 36.847 3.968 10.564 11.358 23.859 14.358 25.83 5.636 3.704 14.346 2.035 17.93-3.435 3.052-4.658 2.283-8.891-3.858-21.247-7.488-15.065-10.154-25.517-9.427-36.968.7-11.039 2.66-16.353 9.318-25.263 7.197-9.632 12.934-21.352 15.523-31.713 2.809-11.238 2.263-32.484-1.131-44.056-4.411-15.037-15.355-35.007-21.018-38.352-1.534-.907-4.639-1.648-6.9-1.648-3.286 0-4.86.687-7.846 3.423m81.658-1.926c-6.903 3.752-8.203 12.286-3.018 19.821 4.518 6.567 10.794 20.092 12.613 27.182 5.026 19.592 1.442 35.774-11.849 53.5-15.885 21.187-17.707 49.18-5.148 79.124 8.989 21.433 17.084 28.006 26.597 21.596 7.305-4.923 7.66-10.506 1.405-22.074-8.811-16.297-12.471-31.764-10.474-44.266 1.4-8.764 3.439-13.267 9.814-21.672 17.051-22.484 21.407-49.816 12.461-78.184-4.624-14.662-14.756-32.16-20.275-35.014-3.623-1.874-8.693-1.879-12.126-.013M119.73 253.415c-10.818 4.459-17.417 11.403-20.45 21.521-2.49 8.303-2.473 53.003.025 69.064 9.148 58.81 34.078 106.984 79.048 152.75L192.355 511h-84.523c-80.614 0-84.599.085-86.177 1.829-.91 1.006-1.645 2.918-1.633 4.25.015 1.598 7.692 12.449 22.585 31.921 24.473 31.997 26.544 34.474 30.593 36.589 2.304 1.204 40.46 1.411 259.935 1.411h257.234l4.255-2.06c3.596-1.741 7.871-6.806 27.566-32.662 12.821-16.831 23.942-31.853 24.714-33.381 1.235-2.446 1.202-3.086-.273-5.338L644.954 511H444.296l12.279-12.359 12.278-12.359 8.324-2.089c12.464-3.129 35.728-10.784 49.823-16.394 63.519-25.282 102.968-58.948 115.346-98.436 14.228-45.394-16.973-71.397-79.761-66.472-8.297.651-16.998 1.451-19.335 1.778l-4.25.594-.027-5.881c-.121-26.342-4.915-37.05-20.187-45.097L513.5 251.5l-194-.232-194-.231-5.77 2.378M557 328.508c-.825.207-5.387.892-10.138 1.522l-8.637 1.145-1.193 9.662c-4.432 35.908-18.399 74.693-37.569 104.326-2.432 3.76-4.004 6.837-3.492 6.837 1.514 0 18.754-6.409 29.529-10.978 49.649-21.052 83.064-49.319 92.407-78.171 4.047-12.499 3.011-21.054-3.194-26.365-7.274-6.226-14.253-7.762-36.713-8.08-10.725-.152-20.175-.106-21 .102" fill-rule="evenodd"/></svg>