<svg xmlns="http://www.w3.org/2000/svg" width="667" height="667" viewBox="0 0 667 667"><path d="M318.5 78.657c-8.172 1.743-18.357 5.627-23.923 9.123-5.714 3.588-270.754 212.048-272.824 214.581-.961 1.177-2.27 3.827-2.908 5.889-1.987 6.415-.126 9.893 14.61 27.308 16.319 19.287 20.205 21.7 29.015 18.019 1.874-.783 63.45-49.095 136.836-107.359 73.386-58.265 133.962-106.266 134.613-106.668.73-.451 51.767 39.802 133.268 105.109 72.646 58.213 133.711 106.851 135.699 108.086 4.313 2.679 10.823 2.962 15.633.679 2.037-.966 8.547-7.764 16.825-17.567 14.599-17.289 15.662-19.424 13.799-27.718-.53-2.355-1.791-5.202-2.803-6.326-1.012-1.124-23.766-19.78-50.565-41.456l-48.725-39.412-.275-53.723-.275-53.722-2.329-3.265c-4.758-6.671-5.147-6.735-40.671-6.735-31.836 0-32.019.012-35.774 2.347-6.476 4.026-7.162 6.375-7.726 26.447l-.5 17.794-33-26.706c-35.445-28.685-43.824-34.652-55.482-39.513-15.491-6.459-36.773-8.572-52.518-5.212m-110 178.299l-126 100.699-.246 40.422c-.135 22.233.1 68.548.523 102.923.75 61.052.818 62.609 2.925 67.217 3.014 6.594 10.52 14.251 17.172 17.519l5.626 2.764 25.5.349c14.025.192 50.363.026 80.75-.369l55.25-.719.022-96.13c.021-91.437.112-96.326 1.874-100.131 1.018-2.2 3.146-5.214 4.728-6.697C282.827 378.986 282.691 379 334 379s51.173-.014 57.376 5.803c1.582 1.483 3.71 4.497 4.728 6.697 1.762 3.805 1.853 8.696 1.874 100.197l.022 96.197 75.75-.471c41.663-.259 78.311-.64 81.441-.847 11.274-.744 21.803-7.933 27.525-18.792l2.784-5.284.345-24c.189-13.2.022-59.202-.371-102.226l-.716-78.226-124.032-100.274c-68.218-55.151-124.527-100.554-125.13-100.895-.603-.342-57.796 44.693-127.096 100.077" fill-rule="evenodd"/></svg>