<svg xmlns="http://www.w3.org/2000/svg" width="667" height="667" viewBox="0 0 667 667"><path d="M245 210.045c-75.723.488-85.162.723-90.871 2.266-38.639 10.443-63.378 38.504-70.588 80.07-2.327 13.413-3.545 12.17 11.552 11.788 43.142-1.092 70.933 13.111 78.596 40.167 1.282 4.528 2.869 43.355 3.246 79.414L177 430h312.767l.599-35.75c.329-19.663 1.051-39.317 1.604-43.676 2.543-20.039 15.398-33.671 38.53-40.859 12.472-3.876 21.712-5.107 38.749-5.163l15.75-.052-.614-5c-3.596-29.275-15.843-53.224-35.411-69.25-7.97-6.527-23.794-14.543-34.474-17.465-8.749-2.393 2.927-2.146-144-3.037-22.55-.136-79.025-.003-125.5.297M62.946 340.26c-9.227 1.088-21.543 7.333-28.792 14.599-25.096 25.154-18.097 67.535 13.671 82.777l8.054 3.864.06 67.382c.06 65.757.11 67.461 2.077 70.644 3.872 6.264 5.207 6.474 41.135 6.47 30.3-.003 32.551-.127 35.545-1.952 5.77-3.518 6.679-6.029 7.134-19.688l.411-12.356H527v12.05c0 13.576 1.004 16.762 6.299 19.99 3.004 1.832 5.231 1.953 36.201 1.953s33.197-.121 36.201-1.953c6.547-3.991 6.293-.987 6.36-75.24l.06-67.3 8.054-3.864c37.945-18.206 38.527-72.277.99-91.984-10.892-5.718-16.152-6.265-54.494-5.665l-32.829.513-3.421 3.735-3.421 3.736V463H142.063l-.281-56.928c-.276-55.712-.326-56.986-2.344-59.688-4.792-6.416-3.932-6.269-38.492-6.59-17.355-.162-34.455.048-38 .466" fill-rule="evenodd"/></svg>