<svg xmlns="http://www.w3.org/2000/svg" width="667" height="667" viewBox="0 0 667 667"><path d="M323 79.011c-8.399 1.152-21.209 5.311-27.273 8.854-6.174 3.609-273.042 213.449-275.613 216.717-2.829 3.597-3.556 9.426-1.721 13.815 2.012 4.817 26.936 34.205 30.628 36.114 4.566 2.361 11.092 1.901 15.503-1.092 2.092-1.42 63.566-50.025 136.608-108.013l132.805-105.431 131.281 105.188c72.205 57.854 133.194 106.546 135.532 108.205 4.99 3.542 11.71 4.052 16.988 1.289 3.906-2.046 27.883-29.736 29.983-34.628 1.618-3.767 1.241-9.823-.903-14.529-.787-1.728-47.815-40.436-126.204-103.877-68.723-55.618-127.687-103.091-131.032-105.495-8.592-6.177-22.714-12.71-32.626-15.093-9.949-2.392-24.814-3.278-33.956-2.024M208.25 260.342L83 360.433l.119 47.033c.066 25.869.411 71.784.768 102.034l.648 55 2.446 5c3.458 7.068 10.779 13.885 17.757 16.536l5.762 2.189 223.5-.915 223.5-.914 6-2.75c7.249-3.323 12.76-8.432 16.336-15.146l2.664-5 .337-32.5c.185-17.875.019-63.585-.369-101.578l-.705-69.078-122.995-99.422c-67.647-54.682-123.506-99.703-124.131-100.046-.625-.343-57.5 44.416-126.387 99.466m12.83 22.559l-112.421 89.852.194 83.373c.178 76.277.512 96.622 1.682 102.453.229 1.143 1.528 2.584 2.886 3.203 1.825.832 59.085.868 219.774.138 119.518-.543 218.312-1.204 219.542-1.47 5.343-1.151 5.174 2.442 4.538-96.192l-.589-91.242-111.032-89.758c-61.068-49.367-111.285-89.86-111.593-89.984-.309-.124-51.15 40.208-112.981 89.627m105.105-3.783c-7.486 1.245-15.197 5.306-20.957 11.035-15.423 15.343-15.505 40.475-.18 55.799 22.715 22.716 61.155 10.478 67.018-21.336 4.871-26.427-18.888-49.986-45.881-45.498M238 337.121c-4.009 1.594-7.951 5.983-9.054 10.081-1.826 6.781.01 10.51 9.804 19.915 13.696 13.152 28.628 22.952 45.358 29.77l9.392 3.828.268 23.062.268 23.063-15.499 15.219c-22.179 21.78-22.183 21.312.311 43.662 8.609 8.553 17.407 16.84 19.552 18.415 9.582 7.036 23.585.249 23.596-11.436.006-5.535-1.739-8.145-12.436-18.611-5.291-5.176-9.493-9.676-9.34-10 .154-.324 3.689-3.851 7.856-7.839l7.575-7.25 17.425.023 17.424.023 8.387 7.75 8.388 7.75-10.633 9.846c-7.985 7.395-10.916 10.789-11.767 13.631-2.094 6.987.879 14.247 7.164 17.497 3.473 1.796 10.627 1.872 13.737.145 3.412-1.894 27.741-25.173 33.338-31.897 4.299-5.166 4.886-6.428 4.886-10.501v-4.63l-16-16.107-16-16.106v-46.28l5.75-2.146c22.772-8.496 56.481-32.361 59.381-42.039 3.195-10.666-7.824-21.526-18.325-18.06-1.829.604-6.921 4.103-11.316 7.777-26.545 22.189-52.379 32.274-79.49 31.032-14.253-.654-24.103-3.17-37.543-9.59-12.99-6.205-20.84-11.552-30.478-20.76-10.053-9.605-15.401-11.853-21.979-9.237m61.036 98.629l.036 8.75 9.446 9.75 9.446 9.75h29.572l10.232-10.267c11.103-11.141 10.885-10.652 9.584-21.483l-.631-5.25H299l.036 8.75" fill-rule="evenodd"/></svg>