<svg xmlns="http://www.w3.org/2000/svg" width="667" height="667" viewBox="0 0 667 667"><path d="M193.387 95.863c-4.352 2.713-7.581 9.906-8.078 17.994-1.354 22.036-4.046 155.271-3.225 159.643 1.514 8.065 5.429 14.815 12.344 21.284 6.386 5.974 19.398 15.07 27.307 19.089l4.236 2.153.264 130.414c.264 129.952.272 130.424 2.327 133.175 4.996 6.691 5.741 6.885 26.438 6.885s21.442-.194 26.438-6.885c2.055-2.752 2.063-3.22 2.333-133.938l.27-131.177 5.944-3.269c16.249-8.938 29.582-22.319 34.11-34.231 5.098-13.413 5.073-12.427 2.282-92-1.418-40.425-3.026-75.284-3.574-77.464-.587-2.338-2.548-5.516-4.781-7.75-3.155-3.155-4.473-3.786-7.901-3.786-5.485 0-11.372 5.11-12.96 11.249-.604 2.338-1.968 26.585-3.03 53.881-1.303 33.469-2.328 50.402-3.149 52-2.961 5.769-8.14 7.291-13.562 3.984-6.003-3.66-6.056-4.054-7.892-58.114-.925-27.225-2.14-51.284-2.701-53.464-.603-2.347-2.616-5.56-4.934-7.879-3.508-3.507-4.295-3.853-7.56-3.324-4.442.721-8.966 4.777-11.438 10.255-1.612 3.57-2.111 10.538-3.935 54.925-2.291 55.756-2.211 55.208-8.577 58.244-3.361 1.603-3.697 1.589-7.161-.288-7.189-3.896-6.987-2.624-9.223-58.051-2.193-54.359-2.341-55.45-8.289-61.214-4.239-4.109-8.262-4.873-12.323-2.341m250.758 10.874c-35.137 36.668-59.107 86.172-71.062 146.763-5.692 28.848-8.533 60.496-7.908 88.085.586 25.845 1.174 26.415 27.208 26.415h16.581l.268 104.427c.266 103.702.282 104.446 2.33 107.188 4.996 6.691 5.741 6.885 26.438 6.885s21.443-.194 26.438-6.885l2.062-2.762.291-232.176c.16-127.697.007-234.175-.34-236.617-.451-3.175-1.573-5.382-3.941-7.75-5.557-5.557-7.549-4.86-18.365 6.427" fill-rule="evenodd"/></svg>