<svg xmlns="http://www.w3.org/2000/svg" width="667" height="667" viewBox="0 0 667 667"><path d="M37 394.5V507H18v39h127.549l1.208-7.592c3.099-19.477 18.337-35.966 37.271-40.329 10.638-2.451 23.88-.693 34.211 4.542 6.59 3.34 16.742 13.434 20.02 19.907 3.294 6.504 5.741 14.882 5.741 19.654V546h240v-3.895c0-9.859 7.519-25.054 16.088-32.512 5.698-4.958 16.797-10.273 24.412-11.688 15.658-2.909 32.961 3.154 44.238 15.503 7.067 7.738 10.704 15.951 12.742 28.777.449 2.82 1.106 3.759 2.803 4 1.219.173 16.284.19 33.476.037l31.26-.277-.26-48.667-.259-48.667-30.172-17.019-30.172-17.019-20.582-60.536c-17.391-51.152-20.581-61.428-20.578-66.287L547 282H37v112.5m116.877-80.851c-1.055 1.271-1.452 7.42-1.731 26.858l-.363 25.21 3.518 3.517c1.935 1.935 4.909 4.134 6.608 4.886l3.091 1.368v37.556c0 27.877.309 37.865 1.2 38.756.66.66 3.72 1.2 6.8 1.2 3.08 0 6.14-.54 6.8-1.2.891-.891 1.2-10.926 1.2-38.965V375.07l2.25-1.157c3.385-1.741 7.738-6.047 9.473-9.371 1.324-2.537 1.443-6.17.835-25.5-.721-22.957-1.47-27.042-4.959-27.042-3.163 0-3.989 3.209-4.719 18.336-.403 8.34-.766 15.533-.806 15.984-.041.45-1.086.675-2.324.5-1.961-.279-2.332-1.091-2.891-6.32-.353-3.3-.691-10.192-.75-15.316-.117-9.982-1.094-13.184-4.022-13.184-3.451 0-4.155 2.498-4.69 16.65-.665 17.599-.861 18.566-3.682 18.165-2.689-.382-3.478-4.87-3.659-20.815-.122-10.725-1.126-14-4.294-14-.834 0-2.133.742-2.885 1.649m70.747 4.424c-11.518 12.811-18.607 32.833-20.184 57.009-.896 13.731-.331 14.918 7.095 14.918H217v30.3c0 22.233.319 30.619 1.2 31.5 1.809 1.809 12.322 1.535 14.229-.371 1.397-1.398 1.571-8.982 1.571-68.419 0-36.765-.273-67.558-.607-68.428-1.1-2.867-4.141-1.656-8.769 3.491M470 375v39h46.5c25.575 0 46.5-.226 46.5-.502s-5.85-17.686-13-38.689-13-38.328-13-38.498c0-.171-15.075-.311-33.5-.311H470v39M184.55 505.606c-14.04 3.395-25.33 14.018-30.014 28.241-2.747 8.34-1.827 22.751 1.957 30.653 3.603 7.525 12.232 16.263 19.613 19.861 23.948 11.674 52.702-1.322 59.342-26.821 5.136-19.724-3.831-39.732-21.73-48.488-10.257-5.017-18.598-6.003-29.168-3.446m339.45-.508c-7.04 1.375-16.57 6.577-21.822 11.913-19.818 20.133-14.613 53.352 10.453 66.712 16.471 8.778 35.994 5.829 49.232-7.439 9.765-9.787 13.643-21.473 11.947-36.007-1.965-16.843-16.468-32.02-33.696-35.263-6.203-1.168-9.801-1.149-16.114.084m-334.006 20.798C179.576 529.223 174 536.403 174 546.49c0 6.78 2.479 12.111 7.592 16.325 10.602 8.74 26.357 5.092 32.09-7.431 3.174-6.933 2.845-13.102-1.052-19.752-4.331-7.39-15.261-12.091-22.636-9.736m337.242.04C518.462 528.132 511 537.584 511 546.5c0 6.256 4.375 14.148 9.725 17.54 5.925 3.758 10.922 4.495 17.503 2.582C547.258 563.997 553 556.18 553 546.51c0-13.647-12.754-23.831-25.764-20.574" fill-rule="evenodd"/></svg>