<svg xmlns="http://www.w3.org/2000/svg" width="667" height="667" viewBox="0 0 667 667"><path d="M32.355 94.971c-2.684 1.11-6.725 6.47-8.2 10.878-1.305 3.903-5.632 157.716-4.662 165.763.895 7.42 5.653 16.686 11.489 22.37 5.376 5.237 20.25 15.582 28.184 19.602l4.834 2.45v129.748c0 124.658.073 129.886 1.863 133.234 3.592 6.718 6.319 7.484 26.637 7.484s23.045-.766 26.637-7.484c1.79-3.348 1.863-8.588 1.863-133.727V315.046l2.75-1.658c11.447-6.9 22.92-15.341 27.167-19.988 6.816-7.457 12.78-19.802 14.203-29.4.882-5.946.56-22.629-1.553-80.5-1.466-40.15-3.101-74.575-3.633-76.5-3.599-13.03-18.623-14.739-23.938-2.723-1.636 3.699-2.13 10.537-3.982 55.119-2.233 53.749-2.341 54.618-7.231 58.043-3.823 2.678-7.617 1.962-11.808-2.229-2.905-2.904-3.918-4.83-4.341-8.25-.304-2.453-1.266-26.06-2.138-52.46-1.481-44.825-1.724-48.288-3.678-52.348-5.173-10.754-16.293-10.065-21.82 1.353-2.044 4.222-2.289 7.397-4.108 53.243-1.064 26.813-2.185 50.295-2.491 52.181C73.73 213.047 68.156 219 64.968 219c-1.228 0-3.717-.918-5.532-2.04-5.947-3.675-6.179-5.347-8.362-60.157-1.819-45.667-2.143-50.018-4.004-53.665-3.259-6.388-9.987-10.122-14.715-8.167m596.016 11.279c-28.319 28.819-48.072 63.49-62.528 109.75-11.083 35.467-16.846 76.163-16.839 118.911.005 33.322-.188 33.089 27.464 33.089H593l.004 104.25c.003 101.633.052 104.33 1.956 107.451 3.721 6.104 6.433 6.799 26.54 6.799 20.318 0 23.045-.766 26.637-7.484 1.802-3.371 1.863-11.125 1.863-237.283 0-254.139.368-237.938-5.514-242.565-4.615-3.631-6.328-2.878-16.115 7.082m-309.835 87.896c-34.241 4.388-68.216 18.866-97.036 41.35-11.12 8.676-28.765 27.195-37.207 39.052-32.398 45.504-43.939 100.001-32.813 154.949 7.736 38.206 27.174 73.498 55.648 101.033 25.565 24.722 54.122 40.86 87.647 49.532 22.6 5.845 53.529 7.635 76.224 4.409 66.213-9.409 121.656-49.908 150.551-109.971 46.795-97.27 6.03-214.612-91.005-261.956-18.577-9.064-37.706-14.93-58.673-17.992-11.67-1.704-41.44-1.931-53.336-.406M332 222.591c-36.583 4.321-61.684 13.698-87.094 32.539-73.06 54.171-89.576 156.846-37.136 230.87 8.623 12.172 27.083 30.709 39.135 39.297 65.528 46.696 154.296 40.411 212.144-15.022 25.264-24.208 41.604-53.58 49.109-88.275 1.975-9.129 2.272-13.372 2.272-32.5s-.297-23.371-2.272-32.5c-7.059-32.631-21.435-59.944-43.589-82.812-25.782-26.614-55.806-42.885-90.743-49.176-10.611-1.91-34.459-3.291-41.826-2.421m-4 39.457c-50.349 6.23-93.342 41.838-108.401 89.781-8.079 25.721-7.735 56.315.921 81.747 13.032 38.292 46.186 70.319 84.684 81.807 15.436 4.607 19.449 5.121 39.296 5.033 17.856-.078 19.693-.267 30.5-3.132 23.787-6.308 43.205-17.373 60.058-34.226 19.308-19.308 31.831-43.277 36.451-69.768 1.931-11.077 1.911-32.594-.042-43.909-4.608-26.703-17.946-52.255-36.997-70.878-18.102-17.695-42.14-30.328-66.505-34.95-10.267-1.948-30.291-2.702-39.965-1.505" fill-rule="evenodd"/></svg>