<svg xmlns="http://www.w3.org/2000/svg" width="667" height="667" viewBox="0 0 667 667"><path d="M319.545 82.25c-.329 2.888-3.31 37.875-6.625 77.75-5.57 67.014-6.003 74.316-5.723 96.5.282 22.321.454 24.281 2.453 28.013 2.761 5.156 6.789 9.156 11.837 11.753 4.872 2.507 17.12 3.466 23.221 1.817 6.314-1.707 12.383-6.791 15.542-13.019l2.75-5.423.032-26.57c.03-24.853-.402-31.404-6.687-101.321L349.627 77h-29.483l-.599 5.25M371 79.75c0 1.513 3.375 35.825 7.5 76.25 7.075 69.345 7.5 74.857 7.505 97.5.004 13.446.461 25.638 1.041 27.725 2.731 9.834 12.053 16.691 23.839 17.535 12.959.927 22.445-3.363 27.88-12.608l2.735-4.652.31-26.213.311-26.214-18.112-70.786c-9.962-38.933-18.777-73.149-19.589-76.037L402.944 77H371v2.75m52.351-.5c.312 1.237 9.811 35.747 21.109 76.688L465 230.376v24.844c0 18.585.34 25.655 1.348 28.062 2 4.772 6.276 9.412 11.507 12.488 4.223 2.482 5.554 2.73 14.645 2.73 11.229 0 15.332-1.488 21.138-7.662 6.711-7.138 6.832-7.749 7.153-35.838l.29-25.5-26.533-75.333c-14.593-41.434-26.788-75.746-27.1-76.25-.315-.511-10.332-.917-22.615-.917h-22.05l.568 2.25m64.126-.5c.38.963 12.995 34.893 28.033 75.4l27.341 73.651.325 26.349c.357 29.026.455 29.529 7.186 36.688 5.806 6.174 9.909 7.662 21.138 7.662 9.107 0 10.417-.245 14.676-2.749 5.691-3.345 10.153-8.568 11.683-13.673.724-2.418 1.141-13.028 1.141-29.043v-25.233l-35.178-75.401L528.643 77h-20.928c-19.529 0-20.883.117-20.238 1.75m-349.398 3.5c-1.018 2.338-16.554 36.387-34.525 75.665L70.88 229.329l.31 25.586c.29 23.94.448 25.843 2.459 29.598 2.762 5.156 6.79 9.156 11.838 11.753 4.872 2.507 17.12 3.466 23.221 1.817 6.314-1.707 12.383-6.791 15.542-13.019l2.75-5.423v-49.778l26.5-75.013c14.575-41.258 26.5-75.427 26.5-75.932 0-.527-8.534-.918-20.036-.918h-20.035l-1.85 4.25m63.417-3c-.243.688-11.929 34.488-25.969 75.111L150 228.222l.006 24.639c.003 13.887.457 26.264 1.04 28.364 2.784 10.026 12.123 16.765 24.317 17.548 10.363.665 17.203-1.497 22.963-7.257 7.114-7.114 7.674-9.898 7.674-38.152v-24.28l21.026-73.792c11.564-40.586 21.269-74.579 21.567-75.542.505-1.633-1.042-1.75-23.057-1.75-17.977 0-23.704.298-24.04 1.25m46.705 73.5l-19.27 74.75.035 26.282c.025 19.727.37 27.085 1.382 29.5 2 4.772 6.276 9.412 11.507 12.488 4.223 2.482 5.554 2.73 14.645 2.73 11.552 0 15.612-1.561 21.762-8.368 6.015-6.658 6.738-10.92 6.738-39.729 0-23.803.396-29.248 6.981-96.068 3.839-38.959 7.136-72.072 7.327-73.585l.346-2.75h-32.183l-19.27 74.75M135.676 286c-.288.825-1.069 3.3-1.735 5.5-7.34 24.236-31.543 36.696-52.577 27.066-3.222-1.475-6.872-3.634-8.111-4.798L71 311.651V588h63.95l.275-92.25.275-92.25 2.162-4c1.19-2.2 3.666-5.443 5.504-7.207 6.445-6.187 7.396-6.293 56.594-6.293 31.221 0 45.68.351 48.433 1.176 5.253 1.574 12.146 7.807 14.442 13.058 1.769 4.045 1.879 9.01 2.14 96.016l.275 91.75H600V451.417c0-75.121-.337-136.411-.75-136.2-11.111 5.686-12.803 6.169-21.75 6.21-7.716.036-9.821-.341-14.753-2.639-11.004-5.127-20.774-17.048-23.786-29.026-1.359-5.401-2.426-5.427-3.428-.085-.382 2.035-2.021 6.328-3.643 9.541-9.964 19.738-31.426 27.891-50.086 19.026-10.723-5.094-17.938-13.674-22.24-26.452-1.346-3.995-2.663-6.594-2.927-5.777-.265.817-1.23 3.853-2.144 6.748-2.118 6.706-8.492 16.276-13.464 20.214-2.121 1.68-6.483 4.285-9.693 5.789-4.924 2.307-7.165 2.734-14.336 2.734s-9.412-.427-14.336-2.734c-3.21-1.504-7.572-4.109-9.693-5.789-4.972-3.938-11.346-13.508-13.464-20.214-.914-2.895-1.879-5.931-2.144-6.748-.264-.817-1.581 1.782-2.927 5.777-4.302 12.778-11.517 21.358-22.24 26.452-18.66 8.865-40.122.712-50.086-19.026-1.622-3.213-3.261-7.506-3.643-9.541-1.002-5.342-2.069-5.316-3.428.085-3.012 11.978-12.782 23.899-23.786 29.026-4.932 2.298-7.037 2.675-14.753 2.639-7.503-.034-9.936-.47-14.625-2.624-10.744-4.933-19.957-15.906-23.271-27.717-.939-3.347-1.886-6.086-2.104-6.086-.218 0-1.165 2.739-2.104 6.086-3.314 11.811-12.527 22.784-23.271 27.717-4.689 2.154-7.122 2.59-14.625 2.624-7.703.036-9.824-.342-14.718-2.623-10.946-5.1-19.137-14.819-23.432-27.804-1.208-3.65-2.38-5.842-2.674-5M330 443.048v57.047l6.25-.297 6.25-.298.5-33.5.5-33.5 5.474-7.25 5.474-7.25h14.421l5.565 8.08 5.566 8.079V500h29.585l1.17-4.374c.644-2.406 2.759-6.456 4.701-9 2.663-3.489 3.131-4.626 1.905-4.626-4.903 0-16.198-12.215-13.109-14.177 2.23-1.416 10.239-.867 13.787.945l3.461 1.768-.327-7.78c-.221-5.266.191-9.31 1.276-12.518 1.69-5 8.359-15.352 10.046-15.595.546-.079 2.08 2.557 3.406 5.857 1.811 4.504 2.409 7.87 2.397 13.5-.016 7.007-.564 9.217-4.777 19.25-.639 1.522-.126 1.75 3.929 1.75 13.508 0 25.696 8.75 28.676 20.588l1.111 4.412h20.837l-.663-12.75c-.965-18.548 1.114-29.683 6.683-35.79 1.821-1.997 1.758-2.458-3.026-22-4.504-18.397-4.707-19.734-2.586-17.08 2.772 3.47 3.014 2.973 4.077-8.38.837-8.938 1.451-7.829 4.017 7.25 1.006 5.913 2.091 10.75 2.411 10.75.32 0 1.454-1.462 2.52-3.25 2.406-4.036 2.922-2.31 1.679 5.617l-.895 5.708 2.354-2.212c2.973-2.792 2.985-2.231.244 11.211-1.506 7.382-1.785 10.461-.974 10.731 2.416.805 5.267 8.565 5.816 15.826.307 4.053.911 7.369 1.342 7.369 1.201 0 3.926-2.995 3.933-4.321.013-2.826 2.185-8.679 3.027-8.159.508.314 1.572-.912 2.364-2.724.864-1.978 1.472-2.596 1.521-1.546.142 3.033 1.795 1.931 6.003-4 4.523-6.376 4.748-6.398 2.579-.25-1.855 5.257-1.854 5.35.047 4.62 1.885-.723 1.478-.122-6.838 10.091-4.661 5.724-5.671 7.591-5.176 9.566.805 3.204-.987 9.799-4.619 17.003-1.603 3.179-2.914 6.003-2.914 6.275 0 .272 7.313.371 16.25.22l16.25-.275.258-56.75.259-56.75H330v57.048m23.091-37.657c-.671.808-1.079 3.188-.906 5.289l.315 3.82 8.804.29 8.803.289-.303-5.289-.304-5.29-7.595-.289c-5.731-.219-7.894.071-8.814 1.18" fill-rule="evenodd"/></svg>