<svg xmlns="http://www.w3.org/2000/svg" width="667" height="667" viewBox="0 0 667 667"><path d="M202.021 28.068c-26.962 7.058-46.964 26.288-55.227 53.093l-2.262 7.339-.292 124.25-.293 124.25h-23.658c-21.975 0-23.965.149-27.987 2.096-6.58 3.185-9.302 8.536-9.302 18.282 0 9.728 2.19 14.477 8.336 18.079 3.254 1.906 5.744 2.543 9.952 2.543h5.612l.325 51.75.325 51.75 2.734 8.797c11.583 37.265 43.152 63.29 80.693 66.521l7.921.682-7.996 12.5c-4.397 6.875-8.661 13.738-9.474 15.25l-1.479 2.75 13.775-.047 13.776-.048 10.5-15.202 10.5-15.203h218l10.5 15.203 10.5 15.202 13.776.048 13.775.047-1.479-2.75c-.813-1.513-5.078-8.375-9.478-15.25l-7.999-12.5 7.702-1.201c36.649-5.712 66.481-32.185 76.404-67.799 2.148-7.711 2.241-9.851 2.564-59.25l.336-51.25h5.611c7.085 0 12.899-3.183 16.049-8.788 1.785-3.177 2.239-5.56 2.239-11.76 0-9.826-2.704-15.162-9.302-18.356L573.369 337H168.984l.081-118.25c.047-68.18.48-121.002 1.023-124.75 3.455-23.854 26.124-43 50.912-43 13.688 0 25.683 4.906 36.161 14.791 7.422 7.002 13.179 16.93 14.327 24.709l.59 4-7.667 3.465c-12.945 5.85-15.867 13.675-9.982 26.726l2.791 6.191-2.102 2.952c-6.075 8.531-11.004 24.678-9.877 32.356.392 2.669.044 3.211-2.83 4.412-3.614 1.51-6.411 4.852-6.411 7.66 0 2.762 3.759 9.539 5.938 10.705 1.062.568 2.928 1.033 4.147 1.033 2.624 0 133.479-59.296 136.11-61.677 3.993-3.613.807-14.231-4.924-16.41-2.046-.778-3.663-.67-6.472.434-3.744 1.47-3.747 1.469-7.988-2.407-6.96-6.363-16.225-10.208-29.827-12.381-3.148-.503-3.699-1.08-5.275-5.516-2.352-6.621-7.138-11.536-12.733-13.077-4.411-1.215-8.197-.454-17.074 3.432-1.279.56-2.154-.823-4.374-6.911-4.786-13.123-16.304-27.973-28.085-36.211-6.252-4.371-17.5-9.32-25.596-11.261-11.175-2.679-27.478-2.656-37.826.053M354.5 159.167c-4.873 2.895-5.857 7.838-2.427 12.198 4.387 5.578 13.927 2.106 13.927-5.069 0-5.843-6.687-9.989-11.5-7.129m-30.045 14.288c-5.121 5.12-1.759 13.545 5.405 13.545 3.712 0 8.14-3.758 8.14-6.907 0-7.671-8.398-11.786-13.545-6.638m44.304 5.893c-6.95 6.441-2.596 17.052 6.997 17.052 4.724 0 9.244-4.886 9.244-9.993 0-8.014-10.355-12.515-16.241-7.059m-72.012 6.636c-3.311 2.605-4.171 6.296-2.305 9.903 1.611 3.117 3.357 4.113 7.206 4.113 3.713 0 6.018-1.604 7.208-5.016 1.291-3.704.187-7.14-3.015-9.383-3.06-2.143-6.042-2.018-9.094.383m36.889 9.652c-2.017 2.017-2.636 3.63-2.636 6.864s.619 4.847 2.636 6.864c2.017 2.017 3.63 2.636 6.864 2.636 8.749 0 12.892-9.85 6.813-16.195-3.71-3.872-9.897-3.948-13.677-.169m56.257 4.861c-7.973 4.333-7.802 16.913.287 21.096 10.128 5.237 21.21-5.648 16.295-16.005-2.872-6.053-10.503-8.395-16.582-5.091m-91.304 11.58c-3.622 4.304-3.497 9.169.334 13 7.657 7.657 19.877-.441 15.711-10.411-1.763-4.219-4.184-5.666-9.479-5.666-3.213 0-4.474.591-6.566 3.077m49.911 7.278c-4.198 1.92-6.488 4.795-7.171 9.004-1.252 7.717 4.035 13.641 12.175 13.641 4.007 0 5.195-.499 8.096-3.4 2.884-2.884 3.4-4.1 3.4-8.015 0-8.699-8.855-14.726-16.5-11.23m-45.855 21.652c-10.496 9.215.859 25.955 13.256 19.544 4.069-2.104 6.099-5.803 6.099-11.116 0-3.938-.511-5.146-3.4-8.035-2.874-2.874-4.107-3.4-7.965-3.4-3.649 0-5.253.604-7.99 3.007" fill-rule="evenodd"/></svg>