<svg xmlns="http://www.w3.org/2000/svg" width="667" height="667" viewBox="0 0 667 667"><path d="M326.286 43.433c-7.28 4.163-11.044 7.527-16.682 14.908-15.376 20.132-25.025 45.738-27.574 73.176-3.298 35.502 10.312 76.227 32.914 98.483 11.367 11.194 21.161 14.039 31.342 9.106 17.375-8.419 35.031-38.175 41.397-69.767 2.698-13.386 2.428-39.426-.553-53.339-7.157-33.401-23.372-62.214-40.561-72.074-6.67-3.825-14.136-4.007-20.283-.493m-123.748 62.992c-8.039 3.013-9.057 6.477-8.988 30.575.042 14.5.423 18.993 2.222 26.207 5.298 21.254 14.107 36.809 28.547 50.411 16.909 15.928 39.674 26.303 68.681 31.3 5.775.995 10.663 1.67 10.862 1.5.199-.169-1.211-2.246-3.133-4.613-6.432-7.925-15.882-23.186-22.424-36.218-14.767-29.414-20.131-56.47-15.762-79.502.849-4.475 1.299-8.532 1-9.016-.793-1.283-16.753-6.901-26.043-9.167-10.911-2.662-29.685-3.455-34.962-1.477m238.056.121c-15.84 2.982-34.136 9.599-33.211 12.011 3.14 8.182 3.743 30.312 1.193 43.782-4.383 23.148-18.401 53.191-36.121 77.411l-4.573 6.25h2.652c8.006 0 33.21-6.693 45.748-12.149 43.199-18.798 66.111-59.347 61.728-109.241-1.46-16.608-3.642-18.78-19.34-19.249-6.112-.182-13.325.291-18.076 1.185m-348.6 85.329c-7.828 2.567-13.183 7.528-14.922 13.825-2.528 9.158 8.915 98.49 16.867 131.674 6.396 26.686 17.526 49.209 35.14 71.108 13.359 16.608 35.854 37.007 57.295 51.956l9.308 6.49.656 17.286c.361 9.507.657 33.569.659 53.471.002 23.127.387 37.201 1.067 39 1.303 3.449 5.511 8.01 9.136 9.904 2.194 1.146 10.225 1.411 42.79 1.411 37.963 0 40.295-.105 43.966-1.977 4.735-2.416 7.56-6.214 9.064-12.19.819-3.251 1.018-23.496.707-71.929-.401-62.385-.595-68.558-2.607-82.903-4.209-30.013-10.048-51.024-19.662-70.745-5.393-11.064-5.828-11.613-27.219-34.386-26.562-28.277-27.533-29.425-37.543-44.37-12.655-18.894-15.421-22.315-19.973-24.698-9.057-4.743-21.112-2.132-25.822 5.593-3.205 5.256-2.456 9.523 4.203 23.913 11.072 23.931 16.627 32.131 34.225 50.526C220.475 336.485 223 340.452 223 346.32c0 4.308-3.699 9.829-7.212 10.765-6.546 1.743-14.003-2.612-29.16-17.029-32.151-30.583-53.981-72.228-61.627-117.568-1.205-7.144-2.845-14.563-3.646-16.488-1.884-4.528-6.827-9.646-11.783-12.199-4.287-2.208-13.604-3.229-17.578-1.926m472.597.637c-10.699 4.088-14.86 10.506-17.572 27.111-7.598 46.507-27.598 86.025-59.704 117.971-11.137 11.081-20.174 18.022-25.243 19.387-7.814 2.104-13.452-2.816-13.319-11.624.035-2.28.618-5.205 1.296-6.501.678-1.296 6.497-7.981 12.93-14.856s13.845-15.425 16.471-19c4.799-6.533 20.176-36.141 22.529-43.378 3.406-10.475-7.95-21.161-20.375-19.175-8.339 1.334-11.169 3.974-22.645 21.128-12.958 19.369-14.975 21.798-41.873 50.425-18.351 19.531-21.72 23.622-25.528 31-11.793 22.851-18.739 49.597-22.722 87.5-1.536 14.617-1.266 140.229.311 144.404 1.228 3.253 5.512 7.835 9.053 9.685 2.195 1.147 10.257 1.411 43.016 1.411 45.609 0 44.535.169 50.284-7.938l3-4.231.5-54.333c.275-29.884.725-54.516 1-54.74.275-.223 4.325-3.07 9-6.325 44.479-30.97 75.051-67.923 87.871-106.212 7.537-22.511 15.596-71.587 20.751-126.37 1.426-15.145 1.527-19.409.542-22.697-1.331-4.443-5.658-9.324-10.475-11.815-4.33-2.239-14.276-2.67-19.098-.827" fill-rule="evenodd"/></svg>