<svg xmlns="http://www.w3.org/2000/svg" width="667" height="667" viewBox="0 0 667 667"><path d="M151.289 132.509c-14.028 3.048-28.866 13.58-37.117 26.346-5.994 9.273-8.301 16.848-8.878 29.145-.898 19.137 4.325 32.754 17.652 46.018 12.003 11.946 25.195 17.406 42.054 17.406 17.168 0 30.078-5.432 42.521-17.892 13.304-13.322 18.087-25.835 17.208-45.013-.616-13.419-2.927-20.656-9.949-31.156-13.616-20.358-38.806-30.219-63.491-24.854m235.211 6.114c-18.977 2.878-32.878 7.061-47.658 14.343C328.407 158.107 313 167.843 313 169.297c0 .493 3.938 5.676 8.75 11.517a8569.276 8569.276 0 0110.276 12.486c1.468 1.795 1.735 1.724 7-1.861 7.852-5.346 24.012-12.881 34.474-16.074 8.255-2.519 10.406-2.751 26-2.806 16.734-.058 17.149-.007 26.5 3.251 10.689 3.723 18.761 7.968 27.772 14.601l6.135 4.516 10.651-12.519c12.46-14.644 12.621-12.816-1.993-22.592-15.044-10.062-28.36-15.841-44.707-19.4-7.139-1.555-31.286-2.713-37.358-1.793m105 106.395l-27 71.977-76.75.002L311 317v27l86.25-.005 86.25-.005 29.86-79.486c16.423-43.718 29.923-80.206 30-81.086.102-1.161-3.013-2.793-11.36-5.955-6.325-2.396-11.95-4.371-12.5-4.389-.55-.018-13.15 32.357-28 71.944M382.561 191.65c-8.299 1.779-16.568 5.035-24.916 9.811-10.844 6.203-10.574 5.658-5.825 11.756 2.262 2.906 5.821 7.245 7.91 9.644l3.797 4.361 6.552-3.601c13.286-7.303 25.568-9.87 36.454-7.619 6.072 1.255 15.559 5.528 20.676 9.311l2.832 2.093 3.158-3.831c1.736-2.107 5.339-6.361 8.005-9.453l4.847-5.622-3.775-3.327c-5.391-4.75-20.571-11.966-28.776-13.678-8.817-1.839-21.939-1.774-30.939.155m7.939 45.762c-5.555 2.468-9.526 8.504-9.478 14.403.037 4.495 3.49 10.72 7.228 13.03 2.327 1.439 5.11 2.154 8.368 2.151 9.171-.007 15.371-6.261 15.378-15.514.009-11.314-11.196-18.648-21.496-14.07m-231.305 38.633c-9.679 1.954-17.469 7.921-22.402 17.16L134.5 297.5l-.275 73.319c-.273 72.644-.256 73.353 1.803 77.017 1.143 2.034 3.708 4.816 5.701 6.181l3.622 2.483 44.824.289c24.654.159 44.825.498 44.825.754 0 .728 21.954 124.679 22.538 127.249l.521 2.292 18.221-.678c10.021-.373 18.369-.803 18.551-.956.183-.154-4.866-28.336-11.219-62.627-6.354-34.292-12.014-65.607-12.579-69.59-1.911-13.477-8.432-22.841-19.81-28.446l-6.671-3.287-24.276-.314-24.276-.315-.001-60.685-.001-60.686-2.857-6.04c-6.05-12.789-20.398-20.149-33.946-17.415m116.596 80.936c-7.206 2.192-12.812 9.912-12.769 17.585.025 4.467 2.76 11.103 5.623 13.646 5.357 4.757 5.783 4.788 65.323 4.788H390v194h36V393l60.25-.022c56.683-.021 60.494-.133 64.366-1.891 6.125-2.782 9.679-8.02 10.185-15.013.53-7.327-2.142-12.948-7.997-16.823l-4.157-2.751-135.074-.171c-74.29-.095-136.292.199-137.782.652" fill-rule="evenodd"/></svg>