<svg xmlns="http://www.w3.org/2000/svg" width="667" height="667" viewBox="0 0 667 667"><path d="M273.5 160.426c-2.2 1.324-4.9 3.907-6 5.74-1.964 3.273-2 5.112-2 100.907v97.573l2.661 4.021c5.286 7.988-10.714 7.333 179.092 7.333h169.451l3.374-2.274c1.856-1.25 4.398-3.792 5.648-5.648l2.274-3.374V169.296l-2.274-3.374c-1.25-1.856-3.792-4.398-5.648-5.648L616.704 158l-169.602.009-169.602.01-4 2.407m-146.5.936c-13.151 2.857-24.552 11.906-30.718 24.381-3.372 6.825-3.759 8.451-4.115 17.302-.326 8.134-.02 10.886 1.832 16.452 4.131 12.413 14.899 23.469 27.364 28.096 3.855 1.431 7.771 1.907 15.69 1.907 10.163 0 10.828-.137 18-3.703 9.42-4.683 13.764-8.308 18.489-15.427 5.757-8.673 7.687-15.983 7.258-27.482-.326-8.704-.711-10.324-4.082-17.145-6.377-12.902-18.393-22.115-32.152-24.65-7.22-1.33-10.429-1.281-17.566.269m-6.7 97.451c-6.258 2.221-12.75 6.572-15.928 10.675-5.023 6.483-57.791 79.187-59.524 82.012-1.012 1.65-1.842 4.653-1.844 6.673-.01 9.564 14.047 16.594 21.14 10.572 1.455-1.235 9.33-12.127 17.5-24.205L96.5 322.581 97 435.54c.395 89.194.769 113.431 1.78 115.2 3.961 6.933 17.815 6.96 22.659.043 1.38-1.969 1.561-10.675 1.561-75.006V403h25.962l.269 72.981.269 72.981 3.269 3.269c3.018 3.017 3.767 3.269 9.731 3.269s6.713-.252 9.731-3.269l3.269-3.269.5-112.557.5-112.556 4.284 6.075 4.285 6.076H210.3c28.155 0 29.916-.358 34.45-6.999 2.732-4.002 2.848-7.417.408-11.966-3.473-6.476-7.158-7.49-28.658-7.88l-19-.345-4.63-6.155c-2.547-3.385-8.5-11.33-13.229-17.655-12.795-17.112-16.99-21.533-23.438-24.699-5.189-2.549-6.83-2.825-18.203-3.068-10.1-.216-13.498.088-17.7 1.58m193.462 149.129c-24.372 7.791-37.195 34.409-28.362 58.874 1.83 5.071 4.549 9.225 9.507 14.526 23.303 24.919 65.027 15.246 75.198-17.433 7.37-23.678-6.323-49.348-30.037-56.314-7.207-2.117-19.089-1.96-26.306.347m119.725-.143c-12.574 4.348-21.331 12.06-27.218 23.972-3.686 7.458-3.768 7.868-3.72 18.677.04 8.949.465 12.098 2.238 16.552 4.772 11.99 16.942 23.121 29.165 26.674 7.729 2.247 20.047 1.995 27.326-.558 11.639-4.084 22-13.601 26.672-24.499 10.47-24.425-2.545-52.852-27.763-60.641-8.079-2.495-19.771-2.573-26.7-.177m118.369.517c-11.811 4.026-20.777 12.016-25.994 23.165-9.619 20.555-3.188 43.567 15.833 56.653 12.259 8.434 30.14 9.587 43.97 2.834 17.09-8.343 26.271-24.394 25.063-43.814-1.795-28.873-31.199-48.27-58.872-38.838M314.5 502.925c-14.525 2.37-26.349 12.491-30.619 26.211-1.625 5.219-1.881 9.367-1.881 30.453V584h90v-24.841c0-27.783-.49-30.805-6.446-39.775-4.179-6.295-10.882-11.528-18.462-14.415-6.108-2.326-23.99-3.447-32.592-2.044m119.3.155c-15.91 2.333-29.082 15.595-31.736 31.954-.577 3.556-1.052 16.029-1.056 27.716L401 584h91.149l-.357-25.75c-.334-24.075-.507-26.126-2.659-31.535-2.999-7.534-11.251-16.469-18.478-20.008-8.66-4.24-23.031-5.654-36.855-3.627m119.894.013c-11.355 1.661-23.493 10.662-28.599 21.211-3.351 6.922-4.095 13.706-4.095 37.332V584h91.174l-.385-25.75c-.363-24.22-.526-26.106-2.75-31.75-2.85-7.233-12.09-16.961-19.286-20.303-8.148-3.784-22.79-5.045-36.059-3.104" fill-rule="evenodd"/></svg>