<svg xmlns="http://www.w3.org/2000/svg" width="667" height="667" viewBox="0 0 667 667"><path d="M421.168 54.154c-16.458 2.356-35.209 11.185-48.23 22.709-11.799 10.441-22.434 27.451-26.971 43.137-2.708 9.367-3.822 31.853-2.043 41.258 4.851 25.648 19.299 47.143 41.367 61.544 29.241 19.082 70.156 18.9 99.335-.442 23.42-15.524 38.731-40.732 41.226-67.872 2.613-28.42-6.656-54.579-26.242-74.06-21.037-20.926-49.415-30.431-78.442-26.274m-259.629 68.89c-37.565 5.902-68.318 35.122-75.951 72.164-2.046 9.929-2.046 27.655 0 37.584 3.461 16.795 11.718 32.433 23.775 45.027 34.303 35.828 92.271 37.583 128.297 3.883 24.644-23.054 34.89-56.358 27.397-89.055-7.318-31.937-34.197-59.277-66.557-67.697-9.21-2.396-27.753-3.352-36.961-1.906M407.5 253.48c-16.497 3.632-30.364 12.592-40.265 26.02-2.434 3.3-13.001 15.75-23.482 27.667-16.716 19.005-19.499 21.746-22.655 22.31-17.596 3.143-47.784 11.535-61.411 17.072l-5.951 2.418-8.411-7.961c-9.756-9.235-22.319-16.11-33.825-18.511-8.603-1.795-61.802-2.103-71.066-.412-13.234 2.417-27.828 10.286-37.56 20.254l-5.462 5.594-12.185-3.407c-10.435-2.919-32.741-8.032-49.477-11.342l-4.75-.94.015 10.629c.009 5.846.902 49.554 1.985 97.129 1.083 47.575 1.976 90.184 1.985 94.686l.015 8.186 15.25.056c45.944.169 93.08 15.927 128.054 42.811l5.805 4.462 5.695-5.399c17.521-16.606 52.546-30.289 92.696-36.211 11.73-1.731 34.173-3.591 43.319-3.591h6.418l-.744-69c-.724-67.068-.692-69.001 1.131-69.037 1.188-.023 5.36-4.492 11.376-12.184l9.5-12.146.259 52.683.259 52.684h161.964l.259-50.943.259-50.944 28.991 42.572c16.605 24.384 30.653 43.994 32.881 45.901 5.173 4.428 12.747 6.192 19.7 4.587 5.417-1.251 15.491-7.531 18.774-11.705 5.229-6.647 6.593-17.873 3.038-24.998-.819-1.642-26.252-36.957-56.518-78.478-30.266-41.52-55.875-76.842-56.908-78.492-10.752-17.17-26.662-28.531-44.824-32.006-10.064-1.925-45.41-1.935-54.134-.014m-107 88.965c-47.284 12.18-83.578 30.267-108.25 53.948l-5.25 5.039v86.784c0 47.731.165 86.784.368 86.784.202 0 3.464-2.092 7.25-4.65 26.259-17.741 65.317-28.95 113.262-32.505l16.379-1.214-.634-56.566c-.349-31.111-.916-75.803-1.261-99.315-.626-42.697-.63-42.75-2.745-42.717-1.166.018-9.769 2.004-19.119 4.412m-261.501 3.286c-.005 11.599 4.099 186.934 4.394 187.769.196.555 4.967 1.119 10.73 1.267 41.624 1.072 83.769 13.951 116.833 35.704 4.622 3.041 8.548 5.529 8.724 5.529.176 0 .32-39.394.32-87.543v-87.543l-4.705-5.03c-17.22-18.41-66.293-38.816-122.295-50.855a1762.403 1762.403 0 01-11.75-2.555c-2.026-.461-2.25-.137-2.251 3.257" fill-rule="evenodd"/></svg>