<svg xmlns="http://www.w3.org/2000/svg" width="667" height="667" viewBox="0 0 667 667"><path d="M402.5 188.657c-34.464 4.101-57.654 10.474-83 22.809-41.824 20.353-72.951 52.365-85.859 88.3-6.795 18.918-8.673 44.76-4.664 64.187 1.072 5.199 1.835 9.569 1.694 9.71-.141.141-3.612-.809-7.714-2.112-54.121-17.184-118.109-3.941-154.193 31.911-32.257 32.051-36.647 75.297-11.27 111.038 8.433 11.878 28.71 28.92 41.756 35.095 2.063.977 3.75 2.096 3.75 2.487 0 .392-6.968 8.94-15.485 18.997-8.517 10.056-15.376 18.394-15.242 18.527.134.134 19.615-5.071 43.291-11.567l43.048-11.81 8.968.511c10.856.619 29.408-1.08 42.307-3.874 38.643-8.373 71.275-30.958 86.549-59.903 4.465-8.463 8.212-21.505 9.099-31.676l.705-8.072 12.938 6.297c7.116 3.464 19.1 8.333 26.63 10.819 28.059 9.267 50.536 12.669 83.69 12.669h21.01l63.884 17.529c35.136 9.641 64.022 17.39 64.191 17.221.17-.169-10.242-12.763-23.137-27.986-12.896-15.223-23.446-28.035-23.445-28.471.001-.436 3.713-2.797 8.25-5.246 45.041-24.314 74.361-60.27 83.381-102.251 2.455-11.427 2.455-35.165 0-46.592-7.851-36.538-30.492-67.933-66.132-91.701-29.465-19.649-62.843-31.501-101.494-36.037-11.191-1.313-44.978-1.824-53.506-.809" fill-rule="evenodd"/></svg>