<svg xmlns="http://www.w3.org/2000/svg" width="667" height="667" viewBox="0 0 667 667"><path d="M76.266 149.083c-12.566 3.99-24.168 15.802-28.261 28.772-1.974 6.257-2.005 8.982-2.005 174.75V521h575V355.184c0-115.69-.33-167.61-1.093-171.75-2.54-13.786-11.744-25.773-24.71-32.181l-7.593-3.753-252.552-.198c-249.18-.195-252.635-.171-258.786 1.781m7.731 29.161c-2.64 1.338-5.274 3.68-6.474 5.756-2.003 3.466-2.026 4.991-2.286 155.25L74.975 491h516.044l-.26-152.427c-.259-152.189-.262-152.431-2.321-155.188-1.134-1.519-3.304-3.689-4.823-4.823l-2.762-2.062-246.202-.256-246.203-.256-4.451 2.256M313 252.437c-25.178 4.513-48.451 13.941-69.733 28.248-4.547 3.057-8.267 5.999-8.267 6.538 0 .766 13.688 18.021 19.442 24.508.845.953 2.445.317 7.075-2.809 8.743-5.904 26.312-14.568 36.382-17.942 15.775-5.285 22.29-6.336 39.101-6.307 13.452.023 16.787.369 25.242 2.617 15.29 4.066 29.865 11.289 42.682 21.151l5.816 4.476 10.665-12.607 10.666-12.606-2.237-2.38c-6.013-6.401-28.553-19.904-42.25-25.311-16.353-6.455-26.086-8.21-47.584-8.583-13.338-.231-21.87.087-27 1.007m5 61.066c-10.54 2.132-23.376 7.297-32.745 13.177-4.815 3.021-8.914 5.651-9.108 5.843-.27.267 9.14 12.148 14.898 18.809.395.458 4.26-1.21 8.587-3.706 24.003-13.845 47.467-13.843 68.12.006 7.603 5.099 5.728 5.85 16.149-6.47 3.414-4.036 6.036-7.861 5.828-8.5-.665-2.04-15.566-11.407-23.204-14.587-4.058-1.689-10.59-3.747-14.517-4.573-8.593-1.808-25.069-1.807-34.008.001m5.61 53.805c-5.715 3.543-8.599 8.902-8.605 15.992-.006 6.582 1.586 10.337 5.934 13.995 9.367 7.882 23.776 5.122 28.94-5.545 3.98-8.221 1.739-17.889-5.41-23.341-3.083-2.352-4.922-2.917-10.359-3.186-5.591-.276-7.21.045-10.5 2.085M18.174 555.25c.303 15.402.572 17.686 2.51 21.318 2.593 4.86 9.14 10.992 14.176 13.279 3.354 1.523 26.531 1.674 295.14 1.917 206.341.188 293.031-.052 296.74-.818 7.006-1.449 14.02-6.339 17.731-12.363l3.029-4.917.313-17.833.313-17.833h-253.86l-2.652 4.008c-3.312 5.003-9.208 9.341-14.816 10.9-3.1.861-15.866 1.11-45.798.893-40.601-.294-41.589-.349-45.628-2.509-3.915-2.094-12.372-10.593-12.372-12.433 0-.474-57.131-.859-127.583-.859H17.835l.339 17.25" fill-rule="evenodd"/></svg>