<svg xmlns="http://www.w3.org/2000/svg" width="667" height="667" viewBox="0 0 667 667"><path d="M312 125.074c-78.978 6.379-157.907 31.614-232.177 74.233-28.48 16.342-62.257 39.49-61.623 42.232.165.714 8.4 11.097 18.3 23.073s18.523 22.472 19.163 23.323c1.019 1.356 1.701 1.147 5.5-1.687 22.345-16.666 49.167-32.869 78.856-47.634 52.147-25.935 101.69-41.458 155.463-48.709 21.615-2.915 62.516-3.662 84.518-1.544 78.166 7.525 147.993 36.777 216.013 90.493 7.212 5.695 13.237 10.195 13.39 10 .152-.195 9.124-10.809 19.937-23.588 10.813-12.779 19.651-23.579 19.641-24-.011-.421-6.423-5.834-14.25-12.028C560.346 170.373 482.356 137.08 394 126.47c-16.098-1.933-65.036-2.766-82-1.396m11 186.964c-25.336 1.674-47.8 6.217-74 14.965-33.224 11.092-63.192 26.283-90.26 45.752-6.916 4.974-7.623 5.776-6.5 7.37.693.983 8.416 10.495 17.162 21.136l15.902 19.347 13.637-9.054c50.591-33.589 110.578-50.081 161.848-44.496 39.282 4.279 76.968 20.103 110.891 46.562 4.5 3.509 8.425 6.38 8.723 6.38.792 0 34.597-40.197 34.597-41.139 0-1.243-17.255-14.336-30.262-22.963-48.895-32.431-104.897-47.618-161.738-43.86m-5 150.538c-27.628 7.256-47 32.161-47 60.424 0 28.651 20.056 54.111 47.75 60.614 9.347 2.195 25.445 1.462 34.25-1.559 13.252-4.548 24.053-12.866 31.856-24.531 7.859-11.751 9.651-18.281 9.609-35.024-.032-12.846-.26-14.577-2.775-21-7.629-19.487-24.43-34.397-43.945-38.998-7.858-1.853-22.548-1.816-29.745.074" fill-rule="evenodd"/></svg>