<svg xmlns="http://www.w3.org/2000/svg" width="667" height="667" viewBox="0 0 667 667"><path d="M210.641 25.571c-3.749 1.198-6.997 3.621-14.216 10.605-11.189 10.825-13.751 15.403-13.853 24.758-.147 13.397-3.902 8.971 73.047 86.077l69.369 69.51L285 256.5l-39.988 39.979-69.756-69.615C97.99 149.754 102.372 153.48 89 153.519c-8.902.025-14.619 2.968-24.11 12.41C54.44 176.326 52.524 180.211 52.524 191c0 6.972.422 9.309 2.346 13 1.599 3.067 24.277 26.472 71.23 73.515l68.884 69.016-24.994 24.979c-13.746 13.738-24.88 25.293-24.742 25.677.455 1.26 52.062 49.951 60.377 56.964 39.893 33.651 91.983 52.532 139.439 50.543 15.685-.657 34.203-4.08 47.538-8.786 16.04-5.662 36.788-17.165 46.778-25.936l3.38-2.968 57.242 58.998C531.485 558.451 557.463 585 557.732 585c1.003 0 55.268-53.31 55.268-54.296 0-.565-15.404-16.592-34.231-35.616a374935.496 374935.496 0 01-56.135-56.731l-21.903-22.143 5.551-8.357c17.069-25.697 25.4-52.429 26.445-84.857 1.44-44.677-12.462-91.11-39.574-132.181-11.794-17.866-22.776-30.651-45.554-53.036L425.5 116.067l-25.505 25.464-25.505 25.465-68.995-69.019c-48.546-48.562-70.274-69.641-73.309-71.118-5.638-2.744-15.2-3.315-21.545-1.288" fill-rule="evenodd"/></svg>