<svg xmlns="http://www.w3.org/2000/svg" width="667" height="667" viewBox="0 0 667 667"><path d="M148 51.779c-8.523 4.642-29.023 16.865-34.463 20.547C99.769 81.648 85.61 97.847 77.985 113c-13.523 26.875-14.784 61.565-3.289 90.5 10.583 26.642 37.582 75.091 62.692 112.5 30.343 45.205 62.598 84.048 101.742 122.52 54.876 53.934 112.144 95.075 179.608 129.028 30.726 15.463 45.023 19.923 67.78 21.143 35.066 1.879 68.455-11.148 92.006-35.898 18.209-19.136 26.561-39.62 23.625-57.941-1.162-7.246-6.153-19.012-9.961-23.482-1.253-1.472-20.473-8.836-62.131-23.808-55.152-19.822-61.027-21.728-68.618-22.263-4.966-.351-10.84-.096-14.62.634-19.258 3.721-36.221 18.854-42.355 37.786l-2.045 6.312-9.96-7.234C330.102 417.507 268.379 360.13 228.09 310c-18.532-23.059-40.077-54.584-38.312-56.059.397-.332 2.747-1.18 5.222-1.884 24.786-7.05 40.741-36.253 33.396-61.125-3.662-12.403-42.811-120.751-44.96-124.432-3.102-5.313-8.905-10.798-14.436-13.646-6.191-3.187-16.183-3.699-21-1.075" fill-rule="evenodd"/></svg>