<svg xmlns="http://www.w3.org/2000/svg" width="667" height="667" viewBox="0 0 667 667"><path d="M289 203.117c-15.611.839-33.263 3.445-43.578 6.434-42.676 12.367-74.794 42.986-92.799 88.467-4.349 10.985-9.778 30.165-11.174 39.471l-.651 4.345-7.149 1.727c-22.637 5.469-45.34 17.589-61.413 32.787C48.751 398.554 36.05 428.257 34.328 465c-2.029 43.3 12.813 79.133 41.835 101.002 16.086 12.121 36.855 20.272 58.337 22.894 6.255.763 68.174 1.097 203 1.095 165.577-.002 195.429-.218 203.752-1.473 35.158-5.299 64.528-27.196 81.958-61.103 14.08-27.391 15.116-54.902 2.976-79.045-9.51-18.911-24.868-33.778-52.314-50.641-2.165-1.331-2.754-2.636-3.346-7.422-1.155-9.32-5.937-26.966-10.382-38.307-14.263-36.387-40.282-60.991-73.644-69.636-12.539-3.25-37.732-4.276-51.766-2.108l-8.765 1.353-3.598-6.554c-6.444-11.741-14.57-22.356-25.321-33.075-29.194-29.11-63.031-41.28-108.05-38.863m-16.126 26.819c-28.34 3.884-49.094 13.562-66.994 31.241-22.17 21.896-35.078 50.862-41.388 92.879-.854 5.686-1.652 10.392-1.773 10.458-.12.066-4.615.652-9.987 1.303-17.457 2.114-38.921 10.431-53.165 20.6C91.046 392.5 79 405.439 74.191 413.672c-10.037 17.187-14.409 34.646-14.479 57.828-.046 15.571.958 23.451 4.398 34.5 8.061 25.889 26.46 44.17 53.818 53.476 15.33 5.214 7.047 5.024 219.572 5.024h198l8.728-2.226c25.953-6.619 45.237-23.152 57.813-49.568 5.151-10.818 6.962-18.29 6.947-28.666-.022-16.282-4.977-27.712-17.901-41.3-8.891-9.346-22.416-19.141-36.208-26.221l-7.622-3.912-.653-8.554c-1.693-22.173-10.23-48.308-20.924-64.053-22.065-32.486-56.086-42.742-104.021-31.357-5.963 1.416-11.195 2.188-11.627 1.716-.432-.472-1.567-3.334-2.522-6.359-4.647-14.725-16.836-33.313-30.243-46.122-14.121-13.492-28.504-21.429-48.193-26.594-13.223-3.469-36.629-4.031-56.2-1.348M324 324.114c-3.025.485-9.28 2.737-13.9 5.006-14.874 7.305-25.698 21.042-30.018 38.096l-1.845 7.284-6.869.513c-7.746.579-10.254 1.68-12.976 5.696-1.798 2.653-1.892 5.474-1.892 56.889 0 59.364-.175 57.585 6.055 61.436 3.081 1.904 5.319 1.966 70.863 1.966 74.692 0 71.626.255 75.622-6.299 1.872-3.069 1.953-5.401 1.956-56.501.004-57.931.127-56.599-5.611-61.112-2.105-1.656-4.072-2.088-9.501-2.088-6.655 0-6.863-.077-7.452-2.75-3.343-15.16-7.634-23.463-16.927-32.752-13.154-13.149-29.136-18.325-47.505-15.384m2.734 20.92c-12.396 3.099-23.099 14.183-26.28 27.216l-.671 2.75h33.609c37.891 0 34.993.777 31.537-8.459-5.556-14.85-23.779-25.111-38.195-21.507m3.599 66.074c-4.935 1.412-8.333 6.152-8.333 11.624 0 4.04.47 5.025 4 8.383l4 3.805V455h7l.006-10.25.007-10.25 3.035-1.727c2.917-1.661 5.952-6.932 5.952-10.34 0-3.056-3.263-8.518-5.885-9.85-4.148-2.109-6.389-2.447-9.782-1.475" fill-rule="evenodd"/></svg>