<svg xmlns="http://www.w3.org/2000/svg" width="667" height="667" viewBox="0 0 667 667"><path d="M215 51.654c-25.5 3.887-35.972 6.397-49.487 11.859-18.573 7.508-35.016 19.925-45.106 34.065-22.277 31.218-24.065 78.186-5.231 137.376 5.161 16.219 11.559 31.632 22.85 55.046 11.924 24.724 16.509 36.908 20.364 54.117 4.609 20.567 4.938 24.722 5.054 63.883.119 40.211.598 45.681 6.212 71 7.017 31.648 22.19 73.058 32.122 87.666 10.833 15.934 27.219 24.915 40.858 22.393 12.736-2.354 23.863-13.228 30.146-29.462 1.305-3.369 1.712-11.204 2.296-44.097.749-42.158 1.855-55.72 6.493-79.617 9.152-47.15 30.042-79.608 55.512-86.251 5.102-1.331 5.645-1.289 9.334.727 17.207 9.405 31.629 33.964 40.6 69.141 7.625 29.896 11.059 62.29 11.342 107l.19 30 3.07 6.5c7.172 15.183 22.774 24.058 39.881 22.686 17.69-1.419 27.899-9.699 38.451-31.186 11.826-24.08 21.53-62.024 26.598-104 .877-7.265 1.96-28.442 2.454-48 .797-31.486 1.138-36.208 3.405-47.033 2.91-13.899 9.129-32.612 14.157-42.597 10.02-19.895 24.662-59.602 30.376-82.37 7.008-27.924 9.815-58.747 7.163-78.656-7.795-58.508-48.702-91.238-123.604-98.897-19.773-2.022-75.034.254-77.991 3.211-.305.305 5.644 6.182 13.219 13.06 27.337 24.825 30.936 30.012 30.086 43.363-.627 9.844-5.85 15.586-14.179 15.586-6.52 0-10.105-2.451-17.114-11.7-32.109-42.374-82.867-65.838-141.322-65.331-8.635.075-16.824.308-18.199.518" fill-rule="evenodd"/></svg>