<svg xmlns="http://www.w3.org/2000/svg" width="667" height="667" viewBox="0 0 667 667"><path d="M266.286 38.392c-17.982 5.871-29.475 23.615-27.997 43.226.392 5.201 1.764 10.221 5.096 18.645 7.678 19.413 7.964 25.235 1.552 31.646-3.691 3.691-8.072 4.614-15.654 3.296-3.181-.553-5.956-.839-6.168-.637-.856.819 2.54 7.151 5.73 10.683 7.082 7.838 19.553 8.38 27.925 1.214 7.164-6.132 9.267-13.959 11.207-41.704 1.148-16.423 2.667-21.659 7.224-24.904 3.699-2.634 9.589-2.88 13.146-.549l2.694 1.765-2.439 4.214c-6.797 11.737-9.145 32.064-5.216 45.161 12.101 40.335 57.851 57.162 92.602 34.06 16.611-11.043 26.343-29.275 26.428-49.508.074-17.765-5.187-30.785-17.398-43.054C372.56 59.429 359.602 54 342.184 54c-11.548 0-19.396 1.918-29.069 7.104-4.062 2.177-7.473 3.832-7.581 3.677-.107-.154-1.844-3.275-3.859-6.933-8.925-16.206-22.494-23.666-35.389-19.456M310.5 187.351c-9.606 4.48-17.356 14.794-20.774 27.649-.804 3.025-11.07 29.125-22.814 58-23.519 57.83-23.867 59.041-18.962 65.93 4.425 6.214 17.326 10.051 23.366 6.948 5.279-2.713 7.525-6.213 12.322-19.208l4.862-13.17.258 57.75.258 57.75h4.992c4.09 0 4.991.316 4.985 1.75-.029 6.839 6.142 146.465 6.592 149.171.692 4.153 5.64 9.079 9.121 9.079 1.485 0 3.82-1.326 5.77-3.276 4.092-4.092 3.738.109 7.051-83.724 1.402-35.475 2.785-66.413 3.072-68.75l.524-4.25H387l.005-5.25c.002-2.887.292-10.2.644-16.25l.64-11 7.295-2.348c10.808-3.48 18.906-8.646 28.453-18.152 9.807-9.765 15.688-19.85 19.078-32.713 2.647-10.046 2.835-25.929.423-35.787-3.798-15.525-14.247-31.601-26.548-40.848-11.495-8.641-21.858-12.573-39.99-15.17-3.469-.497-3.526-.588-6.486-10.242-3.794-12.376-11.882-28.828-18.378-37.386-5.682-7.485-11.334-12.442-18.535-16.258-6.608-3.502-15.905-3.6-23.101-.245m49.588 105.024c-8.509 3.103-15.138 14.66-13.671 23.834 1.525 9.532 9.891 20.353 23.897 30.906 4.458 3.36 8.667 6.324 9.352 6.587 1.987.762 16.149-9.521 24.379-17.702 15.354-15.261 17.093-28.444 5.171-39.193-7.239-6.527-15.704-6.085-23.645 1.234l-4.233 3.903-3.419-3.558c-5.866-6.103-11.953-8.155-17.831-6.011" fill-rule="evenodd"/></svg>