<svg xmlns="http://www.w3.org/2000/svg" width="667" height="667" viewBox="0 0 667 667"><path d="M220 45.039c-24.915 5.119-44.251 33.323-49.064 71.566-1.693 13.445-.712 38.924 2.031 52.774 6.189 31.247 18.986 56.945 37.41 75.121 14.88 14.68 25.797 19.895 41.623 19.883 7.477-.006 10.719-.487 15.225-2.258 20.644-8.114 35.596-31.007 41.465-63.489 2.406-13.314 2.148-39.597-.537-54.636-8.64-48.402-33.96-86.44-64.54-96.961-6.784-2.334-17.549-3.246-23.613-2m213.402.447c-11.471 2.495-25.161 11.027-34.883 21.738-24.863 27.391-39.029 70.558-37.173 113.276.937 21.565 6.199 41.623 14.737 56.176 4.763 8.119 17.124 20.259 23.917 23.49 20.382 9.697 41.872 4.114 62.027-16.113 37.84-37.975 51.414-114.495 28.897-162.897-9.53-20.484-22.223-32.205-38.644-35.685-8.137-1.724-10.897-1.722-18.878.015M73.324 219.377C60.573 223.555 50.785 235.368 46.297 252c-2.364 8.759-2.329 32.367.063 42.915 12.168 53.651 53.928 97.646 89.93 94.742 17.481-1.41 30.535-13.922 35.735-34.253 2.459-9.618 2.648-27.282.427-40.019-3.466-19.874-13.338-42.112-26.443-59.566-12.237-16.297-25.911-27.656-40.818-33.906-6.577-2.757-9.14-3.274-17.691-3.564-6.62-.225-11.411.122-14.176 1.028m491.575 6.015c-13.059 3.76-24.942 11.396-37.399 24.031-18.072 18.332-31.343 43.414-37.078 70.077-2.378 11.058-2.435 32.716-.11 41.5 4.048 15.288 12.418 26.64 23.452 31.812 5.122 2.4 6.86 2.682 16.236 2.63 8.927-.049 11.521-.458 17.316-2.73 29.868-11.709 57.427-46.65 67.209-85.211 9.731-38.361.94-70.327-22.195-80.711-5.961-2.675-20.434-3.413-27.431-1.398m-259.83 71.696c-11.655 2.286-28.682 9.747-42.569 18.651-29.058 18.631-58.45 52.027-82.521 93.761-20.526 35.588-44 93.644-43.964 108.732.094 39.938 46.256 75.222 90.036 68.821 11.646-1.703 18.154-4.363 36.304-14.837 8.72-5.033 18.17-10.016 21-11.073 8.911-3.329 19.379-4.456 35.878-3.863 20.243.728 28.87 3.045 60.267 16.187 8.8 3.684 20.275 7.896 25.5 9.36 8.928 2.502 10.735 2.659 30 2.597 23.971-.078 35.775-2.025 47.499-7.836 27.316-13.538 42.08-50.885 32.453-82.088-2.179-7.064-15.069-33.727-23.42-48.444-36.705-64.688-78.25-110.557-123.532-136.392-19.495-11.123-31.448-14.733-48.197-14.554-5.667.06-12.297.5-14.734.978" fill-rule="evenodd"/></svg>