<svg xmlns="http://www.w3.org/2000/svg" width="667" height="667" viewBox="0 0 667 667"><path d="M324 37.005C261.699 42.21 210.503 89.041 199.38 151c-2.276 12.678-2.276 35.322 0 48 9.103 50.705 45.454 92.083 94.71 107.808 15.783 5.038 27.713 6.543 46.802 5.904 17.565-.588 29.173-2.742 43.179-8.015 46.869-17.643 81.017-59.596 88.474-108.697 10.822-71.254-35.367-139.778-105.064-155.869-7.906-1.825-29.284-4.363-33.481-3.975-.825.076-5.325.458-10 .849M189.286 337.451c-9.587 2.996-18.821 10.784-23.357 19.7-1.67 3.283-133.832 213.57-143.356 228.099L20.77 588l42.865-.02 42.865-.019 27.5-46.658 27.5-46.658.26 46.677.26 46.678h345.96l.26-46.503.26-46.504 27.5 46.482 27.5 46.481 42.309.022c33.589.017 42.153-.236 41.551-1.228-.417-.687-32.304-51.425-70.861-112.75s-71.182-113.75-72.502-116.5c-3.233-6.74-11.683-14.995-18.729-18.297-5.762-2.7-5.798-2.703-32.931-3.011l-27.163-.308 2.821 8.808c1.552 4.844 3.449 12.61 4.216 17.256l1.394 8.448 4.448 1.136c7.326 1.87 12.168 4.619 17.496 9.932 24.173 24.106 5.539 64.743-28.568 62.303-13.352-.956-26.283-10.3-31.094-22.47-3.53-8.93-3.319-20.756.519-29.079 3.489-7.568 12.239-16.153 19.155-18.795l4.672-1.784-.598-5.087c-.824-7.012-4.076-19.383-6.698-25.477L410.754 336H281.077l-1.535 5.17C276.266 352.202 268 400.637 268 408.802c0 .398 2.363 1.285 5.25 1.969 8.945 2.121 15.823 6.148 23.315 13.652 8.33 8.344 12.207 14.799 16.394 27.294 4.129 12.324 6.028 25.867 6.035 43.033L319 509h-41v-13h28v-5.776c0-15.206-3.77-32.855-9.402-44.015-5.017-9.942-10.424-15.52-19.295-19.904-7.027-3.473-8.184-3.735-16.237-3.686-7.061.043-9.681.518-14.118 2.557-7.057 3.244-11.483 7.051-15.449 13.289-6.982 10.983-10.184 23.927-11.147 45.057l-.639 14.022 12.393-.022 12.394-.022v13l-17.426.274c-10.293.162-17.821-.121-18.393-.693-.533-.533-1.189-7.478-1.46-15.435-.777-22.895 2.349-41.708 9.366-56.362 3.755-7.841 12.426-18.005 18.788-22.021C239.8 413.47 249.247 410 252.427 410c1.99 0 2.248-1.053 4.354-17.75 1.872-14.842 7.477-45.662 9.82-54l.632-2.25-36.866.067c-27.534.05-37.934.4-41.081 1.384M418.5 386.775c-9.479 5.173-14.032 15.669-11.456 26.407 1.681 7.008 9.231 14.808 16.22 16.757 11.444 3.191 23.823-2.764 28.388-13.657.741-1.77 1.348-6.065 1.348-9.544 0-5.361-.496-7.153-3.25-11.739-6.376-10.618-20.198-14.255-31.25-8.224m-1.802 84.86c-.384.384-.698 6.248-.698 13.032V497h-25v23h25v25h23v-24.94l12.75-.28 12.75-.28v-22l-12.72-.28-12.721-.279-.279-12.721-.28-12.72-10.552-.282c-5.803-.155-10.865.033-11.25.417" fill-rule="evenodd"/></svg>