<svg xmlns="http://www.w3.org/2000/svg" width="667" height="667" viewBox="0 0 667 667"><path d="M54.287 182.866c-12.721 4.396-23.404 15.297-27.276 27.835C25.03 217.113 25 219.738 25 385.5c0 164.768.041 168.422 1.975 174.645 3.72 11.969 11.775 21.042 23.595 26.578l5.93 2.777h551l5.93-2.777c11.82-5.536 19.875-14.609 23.595-26.578 1.934-6.223 1.975-9.877 1.975-174.645 0-165.762-.03-168.387-2.011-174.799-2.741-8.875-9.443-17.745-17.192-22.754-11.715-7.572 14.17-6.951-288.229-6.914-259.41.031-272.311.116-277.281 1.833M415 274.12c-23.28 29.952-57.191 44.363-90.636 38.517-24.019-4.199-51.125-17.265-71.023-34.236-2.838-2.421-5.594-4.401-6.123-4.401-.822 0-109.266 124.902-113.055 130.213-1.7 2.382-1.941 2.092 13.837 16.644 53.213 49.075 106.458 76.398 161.974 83.117 10.974 1.329 37.226 1.317 48.052-.021 48.992-6.056 96.089-27.892 140.786-65.275 11.323-9.469 35.826-33.962 36.685-36.67.452-1.423-12.361-16.87-54.07-65.186-30.065-34.827-56.072-64.775-57.795-66.55l-3.132-3.228-5.5 7.076m-163.5 61.266c-7.399 1.799-14.88 6.265-20.565 12.276-19.574 20.697-13.366 53.68 12.496 66.386 6.43 3.159 7.638 3.407 16.684 3.429l9.753.023 1.219 4.331c6.933 24.642 46.014 45.201 81.413 42.827 11.304-.758 19.037-2.73 28.152-7.179 13.781-6.727 17.341-14.007 18.25-37.32.78-20.015-.104-19.159 19.786-19.159h14.466l2.923-2.923c3.625-3.625 3.727-6.968.334-11L433.822 384l-19.661.006c-14.244.005-20.35.367-22.161 1.315-1.375.719-6.304 4.381-10.954 8.137-9.453 7.637-22.126 14.203-29.282 15.17-5.873.794-12.584-.979-16.121-4.258-1.454-1.348-2.643-2.784-2.643-3.191 0-.407 5.895-5.212 13.099-10.678 7.205-5.466 13.955-11.025 15-12.354 2.08-2.644 2.596-9.98.922-13.108-1.127-2.106-6.009-4.039-10.202-4.039-5.227 0-9.544 2.707-27.803 17.433C314.081 386.445 305.848 393 305.72 393c-.128 0-1.643.404-3.365.898l-3.132.898 1.991-5.648c1.59-4.51 1.912-7.489 1.598-14.783-.35-8.104-.815-9.987-4.119-16.672-8.839-17.885-28.046-26.963-47.193-22.307" fill-rule="evenodd"/></svg>