<svg xmlns="http://www.w3.org/2000/svg" width="667" height="667" viewBox="0 0 667 667"><path d="M330.333 62.5c-13.881 3.018-19.008 9.23-12.286 14.886 4.786 4.027 12.074 5.767 26.569 6.344 15.179.604 24.477-.653 32.133-4.345 5.391-2.6 7.07-5.23 5.83-9.135-.874-2.754-7.51-6.128-15.296-7.778-8.454-1.791-28.652-1.776-36.95.028m-17.805 37.75c4.625 46.099 21.248 77.972 55.3 106.033 11.091 9.141 16.234 15.077 20.192 23.305 6.097 12.678 7.154 23.736 4.483 46.918-5.913 51.329-23.085 92.228-49.962 118.994-18.197 18.122-38.766 29.116-64.807 34.639-14.273 3.027-36.495 3.055-53.234.066-48.419-8.644-86.146-3.125-115.687 16.924-24.159 16.397-42.685 46.581-48.176 78.497l-.537 3.125 6.986.689c10.424 1.027 17.394 3.071 27.687 8.121 7.227 3.545 10.931 6.186 16.79 11.97 4.145 4.091 7.687 6.871 7.895 6.195.207-.674 1.154-4.601 2.103-8.726 2.338-10.162 6.969-23.246 10.767-30.422 3.612-6.826 11.451-15.782 16.729-19.114 14.576-9.201 36.095-6.124 51.022 7.297 3.059 2.75 8.68 10.028 13.674 17.704 20.55 31.588 48.547 51.018 87.747 60.897 18.517 4.667 31.218 6.085 54.5 6.086 22.661.001 32.543-.963 52.461-5.117 47.203-9.844 98.961-35.481 135.989-67.359 42.743-36.799 69.576-85.393 77.096-139.619 2.247-16.202 1.617-38.977-1.475-53.353-12.983-60.354-46.666-104.346-99.571-130.046-21.038-10.219-42.776-16.548-71.575-20.837-7.466-1.112-15.791-2.76-18.5-3.661-15.184-5.055-28.019-16.223-35.598-30.975-5.34-10.393-10.393-25.518-12.019-35.979l-1.134-7.29-6.087 2.289c-16.417 6.175-40.234 5.361-58.857-2.009-2.074-.821-4.009-1.492-4.3-1.492-.291 0-.247 2.813.098 6.25m193.228 126.505C502.762 228.611 500 233.527 500 237c0 3.724 3.118 9.01 6.279 10.644 13.125 6.787 25.059-9.432 14.27-19.394-2.842-2.624-4.341-3.245-7.784-3.223-2.346.014-5.5.792-7.009 1.728m-35.345 37.136c-5.132 3.13-7.411 6.82-7.407 11.994.009 11.008 9.638 17.579 19.42 13.252 5.489-2.428 8.567-7.003 8.572-12.739.01-10.433-12.01-17.736-20.585-12.507m65.147 23.601c-5.65 2.013-8.648 4.546-11.347 9.587-4.918 9.187-1.37 21.698 7.553 26.636 5.693 3.15 9.555 3.625 15.484 1.901 8.578-2.493 14.781-10.635 14.73-19.334-.047-8.098-6.897-17.055-14.701-19.222-4.881-1.355-6.912-1.28-11.719.432m-109.794 60.504c-5.961 1.795-9.374 4.946-13.764 12.71-25.36 44.843-48.254 73.585-73.696 92.519-25.545 19.011-50.519 26.471-76.266 22.78-10.552-1.512-15.741-.523-21.301 4.06-9.557 7.878-5.303 22.96 11.263 39.936 11.817 12.109 23.782 19.316 42.329 25.496 34.085 11.358 77.369 12.438 117.671 2.936 62.997-14.854 122.663-56.579 152.525-106.662 7.004-11.746 14.073-28.716 17.688-42.461 2.922-11.108 3.112-12.93 3.197-30.637.104-21.727.126-21.673-8.996-21.673-7.421 0-16.467 3.132-27.414 9.492-19.858 11.537-33.481 15.011-55.894 14.253-22.24-.752-35.334-5.184-48.182-16.311-3.9-3.378-7.583-5.614-10.421-6.329-4.938-1.243-4.971-1.244-8.739-.109M53.5 548.119c-5.711.896-8.933 3.853-7.922 7.27 1.656 5.594 13.213 13.112 27.414 17.833 8.627 2.867 10.697 3.165 22.343 3.219 12.316.057 12.913-.036 14.75-2.302 2.675-3.297 2.434-4.559-1.757-9.197-9.228-10.215-38.905-19.321-54.828-16.823" fill-rule="evenodd"/></svg>