<svg xmlns="http://www.w3.org/2000/svg" width="667" height="667" viewBox="0 0 667 667"><path d="M519 52v35h-69v60h69v70.029l30.25-.264 30.25-.265.263-34.75.263-34.75H649V87h-69V17h-61v35M241.18 68.682c-4.656 2.294-8.342 7.517-8.874 12.574-.245 2.334 1.832 55.572 4.617 118.306 5.609 126.369 5.18 121.798 12.947 137.938 4.718 9.803 16.823 28.137 28.723 43.5 11.026 14.236 38.38 41.873 52.407 52.951 28.337 22.378 63.975 42.043 92.5 51.042 2.2.694 13.09 4.808 24.2 9.143 31.655 12.351 56.838 18.772 87.8 22.39 16.175 1.889 25.297 4.686 32.478 9.958 7.367 5.408 7.935 6.979 3.994 11.045-4.087 4.217-13.76 8.993-22.037 10.883-19.237 4.39-89.337 7.33-135.882 5.698-56.445-1.979-75.157-4.128-111.053-12.753-22.872-5.496-33.541-6.657-55.5-6.042-25.368.711-38.328 3.658-60.989 13.869-12.593 5.674-20.465 7.786-29.011 7.786-18.131 0-37.539-10.723-47.643-26.324-4.924-7.604-7.698-15.16-9.016-24.561-1.986-14.168 4.109-40.505 17.108-73.915 3.781-9.718 7.476-20.595 8.213-24.17 1.085-5.271 1.338-36.851 1.338-167V80.5l-2.288-3.679C122.588 72.601 116.044 69 111 69c-5.044 0-11.588 3.601-14.212 7.821L94.5 80.5l-.508 161c-.364 115.596-.825 161.846-1.632 164-.618 1.65-3.374 8.625-6.125 15.5-15.361 38.392-21.951 72.301-18.184 93.566 6.467 36.512 34.906 66.122 71.096 74.024 9.371 2.046 27.163 2.102 36.411.114 6.882-1.478 10.299-2.733 32.855-12.064 14.777-6.112 26.124-8.151 45.087-8.099 16.418.045 22.983.953 44 6.088 37.562 9.178 66.97 12.094 131.5 13.04 50.621.741 103.636-1.685 125.473-5.743 21.775-4.046 43.544-18.09 50.759-32.746 2.916-5.922 3.268-7.557 3.268-15.159 0-7.38-.391-9.325-2.92-14.521-3.667-7.535-15.596-19.557-24.58-24.774-8.925-5.183-22.474-9.332-35-10.718-33.065-3.66-54.032-8.767-84-20.459-10.175-3.97-24.125-9.202-31-11.626-25.629-9.038-57.75-27.011-78.605-43.983-19.118-15.558-37.214-34.312-51.736-53.616-17.496-23.258-24.279-36.025-25.271-47.567-.295-3.441-2.702-56.017-5.348-116.836-5.137-118.057-4.748-113.533-10.195-118.604-4.819-4.487-12.661-5.594-18.665-2.635m-82.994 345.62c-5.893 6.273-6.49 39.689-1.027 57.537 8.561 27.973 29.202 42.971 59.841 43.48 5.775.096 11.729-.168 13.232-.586 3.455-.964 6.118-5.862 5.275-9.702-1.18-5.373-3.472-6.367-15.285-6.63-18.012-.401-27.481-3.752-35.973-12.732-6.073-6.42-8.785-11.512-11.187-21-2.743-10.833-3.355-21.015-1.969-32.747 1.602-13.562 1.531-14.629-1.166-17.5-3.065-3.262-8.734-3.32-11.741-.12" fill-rule="evenodd"/></svg>