<svg xmlns="http://www.w3.org/2000/svg" width="667" height="667" viewBox="0 0 667 667"><path d="M523 52v35h-69v60h69v70h61v-70h69V87h-69V17h-61v35m-193 69.108c-1.375.539-3.277 1.973-4.228 3.186-1.613 2.059-1.729 9.553-1.756 112.706l-.029 110.5-8.378 4.75c-4.608 2.613-8.605 4.75-8.882 4.75-.277 0-.794-5.962-1.15-13.25-1.767-36.263-4.361-63.27-7.09-73.8-7.774-30.001-33.15-54.093-63.852-60.623-9.828-2.09-29.409-1.287-39.635 1.625-17.964 5.117-37.108 17.003-51.121 31.741-14.057 14.784-21.734 28.42-35.654 63.33C90.89 349.497 79.078 394.056 74.567 433c-1.809 15.613-2.079 48.171-.495 59.566 2.478 17.813 11.456 39.82 21.821 53.485 14.459 19.065 36.174 34.088 57.916 40.068 9.675 2.661 34.118 3.688 46.403 1.949 18.446-2.61 38.291-9.619 51.107-18.049 12.198-8.024 23.344-21.225 29.309-34.712 7.448-16.841 16.902-61.111 21.317-99.817 2.026-17.76 3.838-48.49 2.86-48.49-.279 0-15.536 7.395-33.906 16.434L237.5 419.868 208 473.684c-16.225 29.599-30.917 55.278-32.65 57.066-2.731 2.817-3.819 3.25-8.173 3.25-3.889 0-5.689-.56-7.971-2.48-3.807-3.203-5.606-7.614-4.794-11.753.353-1.797 10.056-20.353 21.562-41.236 11.506-20.884 20.79-38.1 20.631-38.259-.159-.159-13.073 5.96-28.697 13.597-15.624 7.637-29.431 14.127-30.682 14.421-3.518.828-8.557-.982-11.613-4.172-5.302-5.534-4.292-14.491 2.122-18.831 1.521-1.029 23.32-11.938 48.442-24.242l45.677-22.37-30.677-13.177c-41.033-17.625-45.425-19.726-47.956-22.945-6.595-8.383-.794-20.538 9.807-20.549 2.009-.002 6.747 1.548 11 3.598 5.563 2.682 69.901 30.413 86.421 37.248 1.465.607 8.478-2.374 28.289-12.022C293.226 363.773 305.32 358 305.615 358c.295 0 .39 6.301.211 14.001-.179 7.701-.168 14.001.024 14 .193 0 4.693-2.436 10-5.413 5.308-2.976 11.519-6.158 13.803-7.069l4.152-1.658 12.998 7.069c7.148 3.889 13.206 7.07 13.461 7.07.255 0 .237-6.3-.04-14-.277-7.7-.161-14 .257-14 .419 0 12.594 5.8 27.057 12.888l26.296 12.888 41.333-17.722c22.733-9.748 44.433-19.148 48.221-20.889 8.175-3.756 12.125-3.965 16.714-.882 3.879 2.606 6.573 8.89 5.553 12.954-1.771 7.057-5.706 9.158-62.432 33.323-10.053 4.282-17.928 8.126-17.5 8.541.427.416 21.252 10.75 46.277 22.966 25.025 12.216 46.334 22.934 47.352 23.819 9.063 7.872 3.668 22.392-8.316 22.384-2.514-.001-11.889-4.086-32.45-14.139-15.903-7.775-29.02-14.022-29.149-13.883-.128.138 9.182 17.352 20.691 38.252 11.508 20.9 21.187 39.015 21.508 40.257 1.087 4.201-.559 8.968-4.202 12.167-4.539 3.985-11.834 4.364-15.924.826-1.43-1.237-16.193-26.961-32.805-57.164L428.5 419.672 395 403.371l-33.5-16.302-.326 6.216c-.979 18.634 5.481 70.095 12.956 103.215 8.008 35.476 13.325 47.624 27.313 62.398 13.824 14.601 37.619 25.388 64.345 29.17 12.226 1.731 36.731.712 46.312-1.925 40.717-11.206 72.284-47.571 79.404-91.471 1.75-10.785 2.004-41.315.474-56.816-2.82-28.568-10.634-63.72-21.418-96.356-7.065-21.382-17.397-47.953-24.579-63.214-13.096-27.823-32.521-48.231-57.415-60.318-16.225-7.878-23.248-9.473-41.566-9.44-14.885.026-15.877.158-25 3.309-27.615 9.538-48.426 32.424-54.975 60.454-2.374 10.163-4.654 33.334-6.12 62.209-.614 12.1-1.248 22.141-1.409 22.314-.16.173-3.487-1.295-7.394-3.262L345 349.975v-110.02c0-120.487.261-115.217-5.872-118.389-3.423-1.77-5.517-1.875-9.128-.458" fill-rule="evenodd"/></svg>