<svg xmlns="http://www.w3.org/2000/svg" width="667" height="667" viewBox="0 0 667 667"><path d="M273.782 114.553c-17.424 4.224-32.28 18.064-37.973 35.375-1.957 5.953-2.2 9.234-2.577 34.822l-.417 28.25-57.157.012c-61.869.013-62.091.03-73.43 5.578-3.044 1.489-8.776 5.786-12.736 9.548-7.438 7.065-11.682 13.763-15.12 23.862-1.797 5.281-1.872 11.628-1.872 159.5v154l2.123 4.589c2.778 6.007 8.434 11.563 14.775 14.516l5.102 2.375 241.59.01 241.591.01 6.119-3.058c6.486-3.241 9.913-6.624 13.498-13.326l2.202-4.116.263-152.29c.291-169.039.666-158.891-6.373-172.287-6.134-11.673-17.245-21.39-29.929-26.175-5.901-2.225-6.554-2.251-65.131-2.528l-59.17-.28-.393-28.72c-.355-25.976-.59-29.25-2.457-34.268-3.488-9.38-6.076-13.628-12.443-20.435-6.919-7.396-18.346-13.788-27.753-15.523-3.192-.589-28.047-.96-61-.911-43.763.066-56.833.379-61.332 1.47m6.522 42.403c-4.897 2.986-5.444 6.476-5.104 32.544l.3 23 60.75.258 60.75.257v-24.557c0-19.995-.282-25.102-1.517-27.491-3.128-6.049-2.308-5.967-59.683-5.963-50.075.003-52.436.086-55.496 1.952m16.374 113.699c-.373.373-.678 20.628-.678 45.012V360h-90v79h89.98l.26 45.25.26 45.25h79l.26-45.25.26-45.25H466v-79h-89.979l-.261-44.75-.26-44.75-39.072-.261c-21.489-.144-39.377.043-39.75.416" fill-rule="evenodd"/></svg>