<svg xmlns="http://www.w3.org/2000/svg" width="667" height="667" viewBox="0 0 667 667"><path d="M242.831 56.023c-25.798 4.353-48.835 22.415-58.3 45.708-5.06 12.454-6.854 29.746-4.44 42.805.884 4.781.837 5.988-.25 6.348-1.334.443-10.521 8.951-29.035 26.889l-9.693 9.391 1.435 12.168c.789 6.692 1.439 13.449 1.443 15.015l.009 2.847-16.14-.731-16.139-.731.731 16.698.732 16.699-14.842-.686c-8.163-.378-15.274-.745-15.802-.815-.533-.071-1.938 9.878-3.159 22.372-1.21 12.375-2.488 25.087-2.84 28.25l-.64 5.75 6.799-.003c3.74-.002 13.932-.299 22.649-.661l15.85-.657 51.841-49.322c28.513-27.127 52.207-49.975 52.653-50.774.698-1.246 1.804-1.155 7.81.638 10.628 3.174 31.235 3.142 41.497-.064 22.571-7.051 40.268-22.836 48.93-43.643 16.041-38.533-2.836-83.207-41.861-99.064-11.113-4.516-27.654-6.382-39.238-4.427M261.5 94.9c-14.841 6.886-18.166 26.61-6.372 37.799 15.766 14.959 42.002.788 38.368-20.724-2.359-13.961-19.263-22.983-31.996-17.075m202 35.086c-11.598 3.821-21.892 14.257-25.517 25.869-1.506 4.827-1.983 9.191-1.983 18.14v11.785l-21.75.389c-20.841.374-21.982.497-27.296 2.962-6.875 3.188-12.268 7.842-15.523 13.397-5.282 9.013-5.352 10.453-5.32 109.649l.029 91.677 26.18.323c25.941.32 26.232.347 31.855 2.983 7.631 3.578 14.206 9.856 17.487 16.697 2.453 5.115 2.775 7.142 3.44 21.643.403 8.8.77 35.462.815 59.25L446 548h94v7.045c0 6.147.313 7.359 2.455 9.5 3.34 3.341 7.763 3.265 10.472-.18 1.633-2.075 2.073-4.07 2.073-9.397v-6.762l12.25-.353c10.029-.289 12.885-.719 15.75-2.37 5.177-2.983 7.902-9.29 9.126-21.123.665-6.431.875-61.846.604-159.36l-.416-149.5-2.206-5.688c-4.495-11.594-16.594-20.446-31.108-22.76-3.575-.57-13.138-1.04-21.25-1.044L523 186v-10.79c0-22.544-7.133-35.494-24-43.571-5.953-2.851-7.468-3.135-18-3.371-9.264-.208-12.667.126-17.5 1.718m3 17.391c-10.283 4.85-13.447 11.275-13.478 27.373L453 186h53v-9.818c0-12.304-1.778-18.617-6.659-23.643-5.472-5.634-10.385-7.493-19.841-7.507-6.342-.01-9.036.476-13 2.345m-172 221.979c-17.123 5.598-29.293 22.395-27.759 38.313l.498 5.168-28.87.333c-32.241.371-34.114.729-41.281 7.896-7.373 7.373-7.042 3.71-7.066 78.006-.025 75.26-.261 72.742 7.558 80.56 7.809 7.809 1.696 7.44 117.989 7.136L418.5 586.5l4.095-2.191c5.216-2.791 9.704-7.901 11.816-13.454 1.493-3.926 1.628-11.008 1.372-71.855-.282-67.285-.29-67.513-2.474-71.595-1.205-2.252-3.872-5.571-5.927-7.375-7.186-6.308-8.034-6.455-39.533-6.839l-28.65-.35-.35-8.17c-.28-6.559-.929-9.355-3.291-14.171-3.754-7.657-11.401-15.304-19.058-19.058-5.798-2.843-6.539-2.95-22-3.168-11.03-.155-17.243.181-20 1.082m3 17.033c-8.264 3.61-14.472 12.976-14.49 21.861L283 413h60v-3.874c0-8.805-4.618-16.719-12.34-21.148-4.973-2.852-5.613-2.958-17.66-2.929-8.053.019-13.567.496-15.5 1.34" fill-rule="evenodd"/></svg>