<svg xmlns="http://www.w3.org/2000/svg" width="667" height="667" viewBox="0 0 667 667"><path d="M312.392 46.895c-27.241 6.699-54.285 30.454-68.938 60.553-10.104 20.756-13.439 37.438-13.448 67.269L230 193.934l-39.25.283c-38.778.28-39.288.31-42.377 2.513-1.719 1.227-3.818 3.702-4.664 5.5-1.188 2.528-4.466 44.585-14.44 185.27-7.625 107.559-12.601 183.375-12.166 185.362.956 4.362 5.385 8.927 9.855 10.157 4.898 1.347 411.573 4.107 414.992 2.817 3.822-1.444 7.949-5.81 8.964-9.485 1.314-4.762-28.587-369.583-30.664-374.121-.823-1.798-2.904-4.273-4.623-5.5-3.091-2.204-3.586-2.233-42.745-2.513l-39.618-.282-.69-17.718c-1.169-30.033-4.56-45.357-14.581-65.889-15.914-32.609-44.809-57.941-72.877-63.891-8.969-1.901-23.985-1.691-32.724.458m7.39 28.597c-18.694 4.731-38.754 22.647-49.272 44.005-8.447 17.152-11.51 33.283-11.51 60.609V194l72.25.001 72.25.002-.248-12.752c-.486-24.949-3.563-40.584-11.192-56.864-5.468-11.668-11.221-19.698-21.053-29.387-17.049-16.8-34.966-23.624-51.225-19.508M159.127 384.75c-6.241 88.413-11.574 162.799-11.853 165.304l-.506 4.554 186.731 1.247c102.702.687 186.864 1.112 187.026.947.162-.166-5.841-75.114-13.341-166.552L493.55 224H434l.019 2.75c.011 1.512.675 22.55 1.476 46.75l1.456 44-2.226 4.432c-2.877 5.73-7.517 8.34-13.847 7.789-2.58-.225-5.97-1.363-7.672-2.575-5.716-4.07-6.002-6.25-7.416-56.646l-1.29-46-72.75-.257-72.75-.256-.004 48.756c-.003 46.594-.09 48.899-1.956 51.958-4.086 6.702-15.112 8.634-20.999 3.68-6.205-5.221-6.041-3.689-6.041-56.331V224h-59.526l-11.347 160.75" fill-rule="evenodd"/></svg>