<svg xmlns="http://www.w3.org/2000/svg" width="667" height="667" viewBox="0 0 667 667"><path d="M295.5 16.484c-50.501 5.845-98.714 25.36-141.364 57.221-13.915 10.394-41.66 37.69-52.139 51.295-27.638 35.881-46.392 76.068-55.394 118.705-4.386 20.773-5.872 35.876-5.884 59.795-.01 21.034.461 26.888 4.851 60.285.694 5.281 12.919 41.632 17.897 53.215 20.514 47.738 54.537 90.15 97.033 120.959 37.141 26.927 79.517 44.06 127.5 51.549 14.345 2.24 51.31 3.092 67.607 1.56 122.739-11.54 224.487-98.979 253.87-218.169 24.303-98.584-4.301-201.512-75.977-273.395-43.669-43.794-99.181-71.886-162.177-82.068-13.846-2.238-59.735-2.814-75.823-.952m106.542 21.464l-7.458 6.861 3.719 4.346c19.103 22.319 36.234 46.03 45.349 62.766 3.366 6.181 4.203 7.066 6.681 7.072 4.296.01 17.313 3.562 25.641 6.996 18 7.423 39.508 21.895 60.096 40.438 8.675 7.813 7.442 7.807 23.425.116 16.544-7.961 15.889-6.111 6.928-19.558-11.215-16.83-21.085-28.792-36.35-44.058-25.466-25.465-52.421-44.295-83.364-58.235-10.675-4.809-34.701-13.776-36.57-13.648-.352.023-3.995 3.131-8.097 6.904M240.5 33.197C182.264 53.37 136.2 86.933 100 135.566c-4.675 6.28-9.513 13.199-10.751 15.375l-2.25 3.957 6.348 4.53c3.491 2.491 10.256 6.609 15.033 9.15l8.685 4.62 10.806-10.44c21.625-20.892 53.903-38.66 81.369-44.791l5.741-1.281 3.93-8.093c7.942-16.357 20.704-33.229 36.847-48.718l10.031-9.624-9.163-9.126c-9.407-9.367-10.467-9.888-16.126-7.928m75 11.77c-14.066 1.043-24.748 2.613-35.784 5.259-8.161 1.957-9.295 2.554-16 8.422C254.25 66.933 241.41 81.396 234.108 92c-7.114 10.331-14.449 24.668-13.665 26.711.315.822 12.541 18.549 27.169 39.392L274.207 196l24.646-.137c13.556-.076 37.376-.413 52.934-.75l28.287-.613 31.454-36.927 31.455-36.927-4.058-7.573c-9.004-16.8-29.189-44.53-43.552-59.829l-5.873-6.257-10.5-.936c-15.753-1.405-51.037-2.007-63.5-1.084M78.596 169.277c-15.22 28.376-25.513 59.508-30.82 93.223-1.88 11.942-2.207 18.117-2.227 42-.021 25.412.149 28.317 1.835 31.434 4.333 8.009 28.609 29.613 30.696 27.318.376-.414 2.13-5.477 3.898-11.252 7.145-23.341 15.892-42.707 24.35-53.914l4.84-6.414-1.084-14.856c-2.293-31.43-1.115-66.118 2.996-88.181 1.113-5.975 1.888-10.956 1.722-11.068-.166-.112-4.91-2.783-10.542-5.936s-12.274-7.285-14.759-9.182c-2.485-1.897-4.715-3.449-4.955-3.449-.241 0-2.918 4.625-5.95 10.277m492.328-3.332c-5.207 3.177-22.35 11.055-24.056 11.055-.758 0-.909 1.234-.459 3.75 6.225 34.784 6.934 71.159 1.987 101.797l-1.622 10.048 4.1 6.699c12.754 20.837 21.018 42.496 23.462 61.488l1.194 9.282 14.318-8.782c21.502-13.189 20.104-11.506 21.848-26.308 1.907-16.189 1.262-57.67-1.134-72.974-3.287-20.984-9.782-44.883-17.248-63.466-4.74-11.798-16.312-35.585-17.249-35.457-.311.042-2.624 1.333-5.141 2.868M268.833 205.75c-15.873 16.683-36.54 51.941-49.756 84.887l-4.066 10.136 10.342 21.364c11.942 24.668 25.535 50.657 36.409 69.613l7.601 13.25 45.568-.135c25.063-.075 52.751-.412 61.529-.75l15.961-.615L402.81 388c19.312-28.814 36.872-60.043 43.678-77.675l2.769-7.174-11.302-20.326c-24.385-43.852-40.675-68.246-52.557-78.706l-4.68-4.119H274.304l-5.471 5.75M500 299.556c-22.825 2.386-42.595 4.474-43.933 4.641-2.04.254-2.957 1.645-5.667 8.598-7.245 18.587-24.017 48.337-44.014 78.072l-10.334 15.366 2.401 4.134c3.937 6.778 10.237 23.464 20.06 53.129l9.269 27.996 3.859.913c9.341 2.209 76.937-3.854 80.719-7.24 3.201-2.867 11.084-13.246 18.355-24.165 14.271-21.435 26.492-46.333 35.34-72 3.653-10.597 4.299-13.648 4.242-20.04-.126-13.935-5.136-31.603-14.311-50.46-6.034-12.402-12.636-23.582-13.813-23.391-.37.06-19.348 2.062-42.173 4.447m-390.887 2.398c-6.733 9.599-14.645 27.192-21.253 47.258l-6.161 18.712 4.789 13.788c9.924 28.573 28.175 66.132 34.956 71.936 13.762 11.78 44.319 24.064 75.556 30.374 11.498 2.323 34.954 5.984 35.637 5.562.075-.046 3.087-7.977 6.693-17.623 3.607-9.647 11.027-28.068 16.489-40.936l9.932-23.397-3.704-6.064c-7.819-12.803-24.617-44.463-37.645-70.952-13.005-26.443-13.7-27.612-16.409-27.612-18.708 0-80.629-4.21-88.432-6.013-6.049-1.397-5.95-1.444-10.448 4.967m.634 164.102l-6.752 9.862 7.672 9.291c42.428 51.376 104.128 87.078 169.833 98.271 10.822 1.844 35.512 4.52 41.7 4.52.44 0 .8-7.66.8-17.021 0-16.709-.041-17.039-2.25-17.956-1.238-.514-5.4-2.131-9.25-3.594-26.586-10.102-58.115-31.231-72.61-48.661l-5.212-6.268-15.589-2.206c-38.882-5.503-71.146-15.974-92.253-29.939a4127.46 4127.46 0 00-8.336-5.507c-.55-.359-4.039 3.784-7.753 9.208m386.602 26.983c-19.881 2.636-38.032 3.961-54.276 3.961h-14.64l-6.977 6.826c-13.766 13.47-33.398 26.323-54.906 35.948C353.799 545.033 331.491 553 328.517 553c-1.299 0-1.517 2.539-1.517 17.65v17.649l13.25-.674c48.184-2.453 91.832-15.141 131.277-38.16 18.22-10.633 44.631-30.106 46.13-34.013.698-1.819-5.845-23.728-7.159-23.972-.549-.101-6.916.6-14.149 1.559" fill-rule="evenodd"/></svg>