<svg xmlns="http://www.w3.org/2000/svg" width="667" height="667" viewBox="0 0 667 667"><path d="M182.5 111.944c-81.4 52.145-148.9 95.52-150 96.388-1.823 1.439 24.514 1.583 297.964 1.623 257.175.039 299.756-.155 298.5-1.355-2.428-2.323-295.283-190.88-296.934-191.184-.841-.155-68.13 42.383-149.53 94.528M61 227.5v8.5h539v-17H61v8.5m23 149V508H52v32H28v49h605v-49h-24V508.051l-15.75-.276-15.75-.275-.254-131.25-.253-131.25H508v263h-72V245h-68.993l-.253 131.25-.254 131.25-35.75.263-35.75.262V245h-70v263.025l-35.75-.262-35.75-.263-.254-131.25-.253-131.25H84v131.5" fill-rule="evenodd"/></svg>