<svg xmlns="http://www.w3.org/2000/svg" width="667" height="667" viewBox="0 0 667 667"><path d="M455.61 15.553c-49.701 6.768-96.594 30.058-123.125 61.152-24.279 28.455-37.556 63.566-40.657 107.52-4.153 58.865 15.176 113.281 54.569 153.621 16.342 16.735 35.923 30.565 50.639 35.765 10.812 3.82 28.216 4.479 39.951 1.512 21.642-5.473 38.858-19.408 48.951-39.623 5.209-10.432 6.925-17.94 8.008-35.04 1.545-24.364 6.3-36.729 19.036-49.497 6.299-6.314 9.627-8.639 20.518-14.332 50.483-26.39 85.954-63.711 92.534-97.363 1.883-9.625.768-27.147-2.275-35.768-10.124-28.681-35.581-55.452-68.313-71.837-29.901-14.969-65.744-20.753-99.836-16.11M148.5 26.959c-26.4 4.254-54.638 8.77-62.75 10.037L71 39.298V155.707l-5.25-1.422c-3.424-.927-8.248-1.27-13.87-.986C31.646 154.32 17 167.631 17 185c0 12.524 7.083 22.413 20.57 28.718 5.35 2.501 7.006 2.773 16.93 2.777 9.941.005 11.571-.262 16.93-2.772 8.905-4.17 14.018-8.856 17.596-16.125l3.126-6.35-.109-55.037-.11-55.037 2.784-.58C97.875 79.936 179.374 67 180.36 67c.352 0 .64 15.348.64 34.107 0 32.078-.104 34.066-1.75 33.42-5.242-2.058-13.791-2.732-20.616-1.624-13.134 2.13-23.66 9.337-28.648 19.613-3.312 6.823-3.323 16.944-.026 23.793 7.113 14.773 25.964 23.06 43.899 19.297 11.819-2.48 20.571-8.538 25.695-17.787l2.946-5.319.274-76.75.274-76.75-3.274.112c-1.801.062-24.874 3.593-51.274 7.847m332 14.931c-15.652 7.224-15.198 29.906.732 36.562 10.406 4.348 23.657-2.188 26.708-13.175 1.307-4.706 1.307-5.848 0-10.554-3.143-11.319-16.841-17.725-27.44-12.833m-67.796 17.559c-11.239 2.965-17.599 15.688-13.156 26.319 3.519 8.424 10.565 12.649 20.082 12.043 7.54-.48 12.552-3.848 16.12-10.831 7.698-15.067-6.411-31.921-23.046-27.531M354.97 110.25c-7.841 3.961-12.212 13.427-10.044 21.75 2.414 9.269 10.379 15.489 19.663 15.355 17.991-.26 26.018-22.001 12.753-34.541-5.702-5.391-14.729-6.425-22.372-2.564m170.234 11.822c-14.749 7.494-14.564 28.201.316 35.481 6.844 3.349 12.438 3.003 19.181-1.185 5.508-3.421 8.5-8.632 9.059-15.778 1.131-14.456-15.424-25.191-28.556-18.518M342.5 182.573c-9.669 5.028-14.277 17.02-9.886 25.727 6.237 12.365 19.727 15.933 30.221 7.992 15.177-11.484 7.044-35.308-12.045-35.286-2.91.004-6.64.708-8.29 1.567M631 197.364c0 16.465-8.649 32.154-21.248 38.541-6.048 3.066-14.733 12.151-18.248 19.086-7.132 14.075-2.229 31.361 10.853 38.264 6.443 3.399 16.374 3.113 24.13-.695 6.887-3.381 14.39-10.438 17.427-16.391 6.934-13.593 6.746-34.584-.51-56.896C640.117 209.168 633.033 193 631.891 193c-.49 0-.891 1.964-.891 4.364M239.5 248.24c-58.946 47.713-138.83 77.397-210.244 78.125-8.074.082-13.249.526-13.25 1.135 0 .55 2.206 10.45 4.903 22C46.587 459.466 86.077 532.447 139 567.739c13.526 9.021 26.228 14.647 42.86 18.985 9.948 2.596 11.941 2.774 30.64 2.743 17.243-.029 21.214-.339 28.807-2.245 34.229-8.595 59.842-31.851 74.108-67.289 7.646-18.992 10.865-37.655 10.857-62.933-.017-45.961-12.771-94.767-40.252-154.027-9.358-20.179-32.417-62.057-34.853-63.297-.367-.187-5.617 3.667-11.667 8.564m341.655 53.537c-1.823.978-3.967 2.89-4.764 4.25-.798 1.36-24.162 61.371-51.921 133.357C485.442 540.596 474 571.261 474 574.649c0 3.565.617 5.053 3.312 7.994 2.749 3 4.152 3.693 8.25 4.075 10.23.954 4.837 11.093 71.132-133.731 48.264-105.433 59.278-130.27 59.291-133.702.023-6.494-3.78-10.098-15.976-15.135-11.167-4.612-14.011-4.97-18.854-2.373m-345.797 46.129c-12.045 3.055-19.079 15.26-21.472 37.258-.586 5.388-.912 10.259-.723 10.825.189.567 2.739-2.112 5.667-5.951 7.563-9.917 23.401-24.596 33.488-31.038 4.737-3.025 8.628-5.774 8.647-6.109.058-1.019-12.362-4.752-17.574-5.283-2.69-.274-6.305-.14-8.033.298m-135.106 54.198c-2.337 1.157-5.446 3.519-6.91 5.25-2.58 3.049-7.439 12.662-8.868 17.542-.635 2.17-.478 2.324 1.662 1.631 18.035-5.846 41.226-9.154 55.148-7.868 6.72.621 7.119.55 5.81-1.036-2.728-3.305-18.386-12.977-24.745-15.285-8.274-3.004-16.329-3.089-22.097-.234m162.324 54.558c-1.514 3.946-10.523 16.304-16.519 22.66-15.57 16.506-33.685 25.087-55.557 26.319-11.11.626-25.009-1.195-34.75-4.552-3.162-1.09-5.75-1.634-5.75-1.21 0 2.193 5.326 15.948 8.551 22.085 4.475 8.517 14.716 18.598 22.758 22.403 12.377 5.855 28.985 7.266 43.082 3.661 22.29-5.701 40.75-23.513 47.183-45.528 3.481-11.913 1.861-28.677-4.067-42.081-2.476-5.597-3.829-6.628-4.931-3.757" fill-rule="evenodd"/></svg>