<svg xmlns="http://www.w3.org/2000/svg" width="667" height="667" viewBox="0 0 667 667"><path d="M332.5 288.679c-64.194 7.973-144.919 29.058-210 54.851-6.6 2.616-14.025 4.935-16.5 5.154-22.868 2.023-36.335 4.295-49.5 8.355-15.169 4.677-27.578 13.384-32.012 22.461-2.962 6.064-2.64 16.369.741 23.718 9.006 19.573 32.778 40.951 75.261 67.682 13.374 8.414 15.917 10.449 20.15 16.115 6.629 8.875 23.88 26.044 35.36 35.192 15.121 12.05 33.099 23.291 52.5 32.826 34.354 16.883 67.708 26.625 110 32.125 14.334 1.864 17.25 1.957 28 .89 72.507-7.196 136.438-34.976 179.547-78.018 6.351-6.342 14.061-14.905 17.132-19.03 5.168-6.941 6.728-8.208 20.922-17 47.41-29.365 75.931-55.544 81.542-74.845 7.614-26.191-18.275-43.385-72.656-48.251-13.183-1.179-13.904-1.371-31.987-8.483-37.327-14.683-84.14-29.459-123-38.824-35.682-8.599-77.553-15.905-85.5-14.918m-233.5 69c-35.222 3.61-58.752 12.217-65.669 24.02-8.546 14.583 6.574 35.936 45.557 64.339 18.175 13.242 36.109 24.252 36.125 22.178.027-3.599-6.111-102.923-6.61-106.966-.573-4.63-.253-4.509-9.403-3.571m458.997.537c-.002.156-1.573 25.259-3.493 55.784-1.919 30.525-3.492 56.066-3.497 56.757-.015 2.561 35.58-20.858 53.045-34.9 26.465-21.278 38.645-40.991 32.533-52.657-6.057-11.561-30.747-20.909-62.585-23.694a763.759 763.759 0 01-11.25-1.072c-2.612-.276-4.751-.375-4.753-.218" fill-rule="evenodd"/></svg>