<svg xmlns="http://www.w3.org/2000/svg" width="667" height="667" viewBox="0 0 667 667" version="1.1">
	<path d="M 227.314 32.950 C 220.625 37.029, 219.678 44.765, 224.934 52.404 C 229.404 58.900, 235.475 72.148, 237.581 80 C 239.908 88.679, 239.917 102.680, 237.599 110.457 C 235.193 118.529, 232.229 124.109, 225.623 133 C 207.872 156.891, 207.565 188.323, 224.761 221.215 C 227.267 226.008, 230.546 231.107, 232.047 232.545 C 237.612 237.877, 246.904 236.485, 251.040 229.701 C 254.086 224.707, 253.504 220.997, 248.071 210.775 C 239.245 194.164, 235.987 180.101, 238.019 167.380 C 239.426 158.574, 241.611 153.743, 247.997 145.322 C 265.065 122.815, 269.313 94.915, 259.957 66.777 C 254.829 51.355, 245.519 35.354, 240.019 32.510 C 236.037 30.450, 231.135 30.620, 227.314 32.950 M 305.235 34.423 C 301.817 37.555, 301.500 38.299, 301.500 43.173 C 301.500 47.573, 302.074 49.327, 304.802 53.256 C 309.698 60.307, 314.705 71.469, 316.984 80.410 C 321.686 98.858, 318.168 115.927, 306.560 131 C 296.229 144.414, 293.003 153.448, 292.272 171.005 C 291.669 185.507, 293.034 193.870, 298.286 207.852 C 302.254 218.416, 309.644 231.711, 312.644 233.682 C 318.280 237.386, 326.990 235.717, 330.574 230.247 C 333.626 225.589, 332.857 221.356, 326.716 209 C 319.228 193.935, 316.562 183.483, 317.289 172.032 C 317.989 160.993, 319.949 155.679, 326.607 146.769 C 333.804 137.137, 339.541 125.417, 342.130 115.056 C 344.939 103.818, 344.393 82.572, 340.999 71 C 336.588 55.963, 325.644 35.993, 319.981 32.648 C 318.447 31.741, 315.342 31, 313.081 31 C 309.795 31, 308.221 31.687, 305.235 34.423 M 386.893 32.497 C 379.990 36.249, 378.690 44.783, 383.875 52.318 C 388.393 58.885, 394.669 72.410, 396.488 79.500 C 401.514 99.092, 397.930 115.274, 384.639 133 C 368.754 154.187, 366.932 182.180, 379.491 212.124 C 388.480 233.557, 396.575 240.130, 406.088 233.720 C 413.393 228.797, 413.748 223.214, 407.493 211.646 C 398.682 195.349, 395.022 179.882, 397.019 167.380 C 398.419 158.616, 400.458 154.113, 406.833 145.708 C 423.884 123.224, 428.240 95.892, 419.294 67.524 C 414.670 52.862, 404.538 35.364, 399.019 32.510 C 395.396 30.636, 390.326 30.631, 386.893 32.497 M 119.730 253.415 C 108.912 257.874, 102.313 264.818, 99.280 274.936 C 96.790 283.239, 96.807 327.939, 99.305 344 C 108.453 402.810, 133.383 450.984, 178.353 496.750 L 192.355 511 107.832 511 C 27.218 511, 23.233 511.085, 21.655 512.829 C 20.745 513.835, 20.010 515.747, 20.022 517.079 C 20.037 518.677, 27.714 529.528, 42.607 549 C 67.080 580.997, 69.151 583.474, 73.200 585.589 C 75.504 586.793, 113.660 587, 333.135 587 L 590.369 587 594.624 584.940 C 598.220 583.199, 602.495 578.134, 622.190 552.278 C 635.011 535.447, 646.132 520.425, 646.904 518.897 C 648.139 516.451, 648.106 515.811, 646.631 513.559 L 644.954 511 544.625 511 L 444.296 511 456.575 498.641 L 468.853 486.282 477.177 484.193 C 489.641 481.064, 512.905 473.409, 527 467.799 C 590.519 442.517, 629.968 408.851, 642.346 369.363 C 656.574 323.969, 625.373 297.966, 562.585 302.891 C 554.288 303.542, 545.587 304.342, 543.250 304.669 L 539 305.263 538.973 299.382 C 538.852 273.040, 534.058 262.332, 518.786 254.285 L 513.500 251.500 319.500 251.268 L 125.500 251.037 119.730 253.415 M 557 328.508 C 556.175 328.715, 551.613 329.400, 546.862 330.030 L 538.225 331.175 537.032 340.837 C 532.600 376.745, 518.633 415.530, 499.463 445.163 C 497.031 448.923, 495.459 452, 495.971 452 C 497.485 452, 514.725 445.591, 525.500 441.022 C 575.149 419.970, 608.564 391.703, 617.907 362.851 C 621.954 350.352, 620.918 341.797, 614.713 336.486 C 607.439 330.260, 600.460 328.724, 578 328.406 C 567.275 328.254, 557.825 328.300, 557 328.508" stroke="none" fill="black" fill-rule="evenodd"/>
</svg>