<svg xmlns="http://www.w3.org/2000/svg" width="667" height="667" viewBox="0 0 667 667" version="1.1">
	<path d="M 318.500 78.657 C 310.328 80.400, 300.143 84.284, 294.577 87.780 C 288.863 91.368, 23.823 299.828, 21.753 302.361 C 20.792 303.538, 19.483 306.188, 18.845 308.250 C 16.858 314.665, 18.719 318.143, 33.455 335.558 C 49.774 354.845, 53.660 357.258, 62.470 353.577 C 64.344 352.794, 125.920 304.482, 199.306 246.218 C 272.692 187.953, 333.268 139.952, 333.919 139.550 C 334.649 139.099, 385.686 179.352, 467.187 244.659 C 539.833 302.872, 600.898 351.510, 602.886 352.745 C 607.199 355.424, 613.709 355.707, 618.519 353.424 C 620.556 352.458, 627.066 345.660, 635.344 335.857 C 649.943 318.568, 651.006 316.433, 649.143 308.139 C 648.613 305.784, 647.352 302.937, 646.340 301.813 C 645.328 300.689, 622.574 282.033, 595.775 260.357 L 547.050 220.945 546.775 167.222 L 546.500 113.500 544.171 110.235 C 539.413 103.564, 539.024 103.500, 503.500 103.500 C 471.664 103.500, 471.481 103.512, 467.726 105.847 C 461.250 109.873, 460.564 112.222, 460 132.294 L 459.500 150.088 426.500 123.382 C 391.055 94.697, 382.676 88.730, 371.018 83.869 C 355.527 77.410, 334.245 75.297, 318.500 78.657 M 208.500 256.956 L 82.500 357.655 82.254 398.077 C 82.119 420.310, 82.354 466.625, 82.777 501 C 83.527 562.052, 83.595 563.609, 85.702 568.217 C 88.716 574.811, 96.222 582.468, 102.874 585.736 L 108.500 588.500 134 588.849 C 148.025 589.041, 184.363 588.875, 214.750 588.480 L 270 587.761 270.022 491.631 C 270.043 400.194, 270.134 395.305, 271.896 391.500 C 272.914 389.300, 275.042 386.286, 276.624 384.803 C 282.827 378.986, 282.691 379, 334 379 C 385.309 379, 385.173 378.986, 391.376 384.803 C 392.958 386.286, 395.086 389.300, 396.104 391.500 C 397.866 395.305, 397.957 400.196, 397.978 491.697 L 398 587.894 473.750 587.423 C 515.413 587.164, 552.061 586.783, 555.191 586.576 C 566.465 585.832, 576.994 578.643, 582.716 567.784 L 585.500 562.500 585.845 538.500 C 586.034 525.300, 585.867 479.298, 585.474 436.274 L 584.758 358.048 460.726 257.774 C 392.508 202.623, 336.199 157.220, 335.596 156.879 C 334.993 156.537, 277.800 201.572, 208.500 256.956" stroke="none" fill="black" fill-rule="evenodd"/>
</svg>