<svg xmlns="http://www.w3.org/2000/svg" width="667" height="667" viewBox="0 0 667 667" version="1.1">
	<path d="M 245 210.045 C 169.277 210.533, 159.838 210.768, 154.129 212.311 C 115.490 222.754, 90.751 250.815, 83.541 292.381 C 81.214 305.794, 79.996 304.551, 95.093 304.169 C 138.235 303.077, 166.026 317.280, 173.689 344.336 C 174.971 348.864, 176.558 387.691, 176.935 423.750 L 177 430 333.384 430 L 489.767 430 490.366 394.250 C 490.695 374.587, 491.417 354.933, 491.970 350.574 C 494.513 330.535, 507.368 316.903, 530.500 309.715 C 542.972 305.839, 552.212 304.608, 569.249 304.552 L 584.999 304.500 584.385 299.500 C 580.789 270.225, 568.542 246.276, 548.974 230.250 C 541.004 223.723, 525.180 215.707, 514.500 212.785 C 505.751 210.392, 517.427 210.639, 370.500 209.748 C 347.950 209.612, 291.475 209.745, 245 210.045 M 62.946 340.260 C 53.719 341.348, 41.403 347.593, 34.154 354.859 C 9.058 380.013, 16.057 422.394, 47.825 437.636 L 55.879 441.500 55.939 508.882 C 55.999 574.639, 56.049 576.343, 58.016 579.526 C 61.888 585.790, 63.223 586, 99.151 585.996 C 129.451 585.993, 131.702 585.869, 134.696 584.044 C 140.466 580.526, 141.375 578.015, 141.830 564.356 L 142.241 552 334.621 552 L 527 552 527 564.050 C 527 577.626, 528.004 580.812, 533.299 584.040 C 536.303 585.872, 538.530 585.993, 569.500 585.993 C 600.470 585.993, 602.697 585.872, 605.701 584.040 C 612.248 580.049, 611.994 583.053, 612.061 508.800 L 612.121 441.500 620.175 437.636 C 658.120 419.430, 658.702 365.359, 621.165 345.652 C 610.273 339.934, 605.013 339.387, 566.671 339.987 L 533.842 340.500 530.421 344.235 L 527 347.971 527 405.485 L 527 463 334.532 463 L 142.063 463 141.782 406.072 C 141.506 350.360, 141.456 349.086, 139.438 346.384 C 134.646 339.968, 135.506 340.115, 100.946 339.794 C 83.591 339.632, 66.491 339.842, 62.946 340.260" stroke="none" fill="black" fill-rule="evenodd"/>
</svg>