<svg xmlns="http://www.w3.org/2000/svg" width="667" height="667" viewBox="0 0 667 667" version="1.1">
	<path d="M 415.230 69.015 C 403.944 71.972, 392.646 78.364, 384 86.682 L 376.500 93.898 385.096 93.312 C 405.865 91.894, 428.036 99.102, 444.385 112.588 C 471.867 135.256, 479.295 173.811, 461.584 201.867 C 460.163 204.118, 459 206.171, 459 206.429 C 459 206.687, 460.636 206.214, 462.635 205.379 C 476.090 199.757, 491.145 185.388, 497.806 171.811 C 503.548 160.107, 505.308 152.601, 505.380 139.500 C 505.444 127.750, 504.230 121.098, 500.267 111.500 C 491.623 90.564, 470.823 72.945, 449.500 68.495 C 439.635 66.437, 424.175 66.671, 415.230 69.015 M 19.306 249.413 L 16.500 251.827 16.500 419 L 16.500 586.173 19.306 588.587 L 22.112 591 53.601 591 L 85.091 591 87.545 588.545 L 90 586.091 90 551.545 L 90 517 333 517 L 576 517 576 551.545 L 576 586.091 578.455 588.545 L 580.909 591 612.399 591 L 643.888 591 646.694 588.587 L 649.500 586.173 649.500 525.667 L 649.500 465.161 647.076 462.581 L 644.651 460 367.326 460 L 90 460 90 355.955 L 90 251.909 87.545 249.455 L 85.091 247 53.601 247 L 22.112 247 19.306 249.413 M 190.322 306.098 C 168.105 309.808, 149.485 325.610, 141.234 347.758 C 137.891 356.733, 137.047 373.277, 139.416 383.376 C 141.848 393.739, 148.232 405.134, 155.949 412.886 C 167.682 424.671, 181.026 430.703, 197.500 431.670 C 220.149 433, 241.148 422.524, 253.825 403.570 C 260.919 392.963, 263.129 385.915, 263.732 371.965 C 264.356 357.542, 263.153 351.506, 257.337 339.888 C 244.939 315.122, 217.908 301.493, 190.322 306.098 M 290.947 330.899 L 288 333.846 288 379.973 C 288 428.552, 288.187 430.707, 292.545 432.379 C 294.661 433.191, 640.339 433.191, 642.455 432.379 C 643.346 432.037, 644.774 430.404, 645.630 428.749 C 647.621 424.898, 646.750 413.342, 643.499 400.500 C 635.012 366.975, 609.094 340.821, 574.500 330.872 L 566.500 328.572 430.197 328.262 L 293.894 327.952 290.947 330.899" stroke="none" fill="black" fill-rule="evenodd"/>
</svg>