<svg xmlns="http://www.w3.org/2000/svg" width="667" height="667" viewBox="0 0 667 667" version="1.1">
	<path d="M 323 79.011 C 314.601 80.163, 301.791 84.322, 295.727 87.865 C 289.553 91.474, 22.685 301.314, 20.114 304.582 C 17.285 308.179, 16.558 314.008, 18.393 318.397 C 20.405 323.214, 45.329 352.602, 49.021 354.511 C 53.587 356.872, 60.113 356.412, 64.524 353.419 C 66.616 351.999, 128.090 303.394, 201.132 245.406 L 333.937 139.975 465.218 245.163 C 537.423 303.017, 598.412 351.709, 600.750 353.368 C 605.740 356.910, 612.460 357.420, 617.738 354.657 C 621.644 352.611, 645.621 324.921, 647.721 320.029 C 649.339 316.262, 648.962 310.206, 646.818 305.500 C 646.031 303.772, 599.003 265.064, 520.614 201.623 C 451.891 146.005, 392.927 98.532, 389.582 96.128 C 380.990 89.951, 366.868 83.418, 356.956 81.035 C 347.007 78.643, 332.142 77.757, 323 79.011 M 208.250 260.342 L 83 360.433 83.119 407.466 C 83.185 433.335, 83.530 479.250, 83.887 509.500 L 84.535 564.500 86.981 569.500 C 90.439 576.568, 97.760 583.385, 104.738 586.036 L 110.500 588.225 334 587.310 L 557.500 586.396 563.500 583.646 C 570.749 580.323, 576.260 575.214, 579.836 568.500 L 582.500 563.500 582.837 531 C 583.022 513.125, 582.856 467.415, 582.468 429.422 L 581.763 360.344 458.768 260.922 C 391.121 206.240, 335.262 161.219, 334.637 160.876 C 334.012 160.533, 277.137 205.292, 208.250 260.342 M 221.080 282.901 L 108.659 372.753 108.853 456.126 C 109.031 532.403, 109.365 552.748, 110.535 558.579 C 110.764 559.722, 112.063 561.163, 113.421 561.782 C 115.246 562.614, 172.506 562.650, 333.195 561.920 C 452.713 561.377, 551.507 560.716, 552.737 560.450 C 558.080 559.299, 557.911 562.892, 557.275 464.258 L 556.686 373.016 445.654 283.258 C 384.586 233.891, 334.369 193.398, 334.061 193.274 C 333.752 193.150, 282.911 233.482, 221.080 282.901 M 326.185 279.118 C 318.699 280.363, 310.988 284.424, 305.228 290.153 C 289.805 305.496, 289.723 330.628, 305.048 345.952 C 327.763 368.668, 366.203 356.430, 372.066 324.616 C 376.937 298.189, 353.178 274.630, 326.185 279.118 M 238 337.121 C 233.991 338.715, 230.049 343.104, 228.946 347.202 C 227.120 353.983, 228.956 357.712, 238.750 367.117 C 252.446 380.269, 267.378 390.069, 284.108 396.887 L 293.500 400.715 293.768 423.777 L 294.036 446.840 278.537 462.059 C 256.358 483.839, 256.354 483.371, 278.848 505.721 C 287.457 514.274, 296.255 522.561, 298.400 524.136 C 307.982 531.172, 321.985 524.385, 321.996 512.700 C 322.002 507.165, 320.257 504.555, 309.560 494.089 C 304.269 488.913, 300.067 484.413, 300.220 484.089 C 300.374 483.765, 303.909 480.238, 308.076 476.250 L 315.651 469 333.076 469.023 L 350.500 469.046 358.887 476.796 L 367.275 484.546 356.642 494.392 C 348.657 501.787, 345.726 505.181, 344.875 508.023 C 342.781 515.010, 345.754 522.270, 352.039 525.520 C 355.512 527.316, 362.666 527.392, 365.776 525.665 C 369.188 523.771, 393.517 500.492, 399.114 493.768 C 403.413 488.602, 404 487.340, 404 483.267 L 404 478.637 388 462.530 L 372 446.424 372 423.284 L 372 400.144 377.750 397.998 C 400.522 389.502, 434.231 365.637, 437.131 355.959 C 440.326 345.293, 429.307 334.433, 418.806 337.899 C 416.977 338.503, 411.885 342.002, 407.490 345.676 C 380.945 367.865, 355.111 377.950, 328 376.708 C 313.747 376.054, 303.897 373.538, 290.457 367.118 C 277.467 360.913, 269.617 355.566, 259.979 346.358 C 249.926 336.753, 244.578 334.505, 238 337.121 M 299.036 435.750 L 299.072 444.500 308.518 454.250 L 317.964 464 332.750 464 L 347.536 464 357.768 453.733 C 368.871 442.592, 368.653 443.081, 367.352 432.250 L 366.721 427 332.861 427 L 299 427 299.036 435.750" stroke="none" fill="black" fill-rule="evenodd"/>
</svg>