<svg xmlns="http://www.w3.org/2000/svg" width="667" height="667" viewBox="0 0 667 667" version="1.1">
	<path d="M 193.387 95.863 C 189.035 98.576, 185.806 105.769, 185.309 113.857 C 183.955 135.893, 181.263 269.128, 182.084 273.500 C 183.598 281.565, 187.513 288.315, 194.428 294.784 C 200.814 300.758, 213.826 309.854, 221.735 313.873 L 225.971 316.026 226.235 446.440 C 226.499 576.392, 226.507 576.864, 228.562 579.615 C 233.558 586.306, 234.303 586.500, 255 586.500 C 275.697 586.500, 276.442 586.306, 281.438 579.615 C 283.493 576.863, 283.501 576.395, 283.771 445.677 L 284.041 314.500 289.985 311.231 C 306.234 302.293, 319.567 288.912, 324.095 277 C 329.193 263.587, 329.168 264.573, 326.377 185 C 324.959 144.575, 323.351 109.716, 322.803 107.536 C 322.216 105.198, 320.255 102.020, 318.022 99.786 C 314.867 96.631, 313.549 96, 310.121 96 C 304.636 96, 298.749 101.110, 297.161 107.249 C 296.557 109.587, 295.193 133.834, 294.131 161.130 C 292.828 194.599, 291.803 211.532, 290.982 213.130 C 288.021 218.899, 282.842 220.421, 277.420 217.114 C 271.417 213.454, 271.364 213.060, 269.528 159 C 268.603 131.775, 267.388 107.716, 266.827 105.536 C 266.224 103.189, 264.211 99.976, 261.893 97.657 C 258.385 94.150, 257.598 93.804, 254.333 94.333 C 249.891 95.054, 245.367 99.110, 242.895 104.588 C 241.283 108.158, 240.784 115.126, 238.960 159.513 C 236.669 215.269, 236.749 214.721, 230.383 217.757 C 227.022 219.360, 226.686 219.346, 223.222 217.469 C 216.033 213.573, 216.235 214.845, 213.999 159.418 C 211.806 105.059, 211.658 103.968, 205.710 98.204 C 201.471 94.095, 197.448 93.331, 193.387 95.863 M 444.145 106.737 C 409.008 143.405, 385.038 192.909, 373.083 253.500 C 367.391 282.348, 364.550 313.996, 365.175 341.585 C 365.761 367.430, 366.349 368, 392.383 368 L 408.964 368 409.232 472.427 C 409.498 576.129, 409.514 576.873, 411.562 579.615 C 416.558 586.306, 417.303 586.500, 438 586.500 C 458.697 586.500, 459.443 586.306, 464.438 579.615 L 466.500 576.853 466.791 344.677 C 466.951 216.980, 466.798 110.502, 466.451 108.060 C 466 104.885, 464.878 102.678, 462.510 100.310 C 456.953 94.753, 454.961 95.450, 444.145 106.737" stroke="none" fill="black" fill-rule="evenodd"/>
</svg>