<svg xmlns="http://www.w3.org/2000/svg" width="667" height="667" viewBox="0 0 667 667" version="1.1">
	<path d="M 37 394.500 L 37 507 27.500 507 L 18 507 18 526.500 L 18 546 81.775 546 L 145.549 546 146.757 538.408 C 149.856 518.931, 165.094 502.442, 184.028 498.079 C 194.666 495.628, 207.908 497.386, 218.239 502.621 C 224.829 505.961, 234.981 516.055, 238.259 522.528 C 241.553 529.032, 244 537.410, 244 542.182 L 244 546 364 546 L 484 546 484 542.105 C 484 532.246, 491.519 517.051, 500.088 509.593 C 505.786 504.635, 516.885 499.320, 524.500 497.905 C 540.158 494.996, 557.461 501.059, 568.738 513.408 C 575.805 521.146, 579.442 529.359, 581.480 542.185 C 581.929 545.005, 582.586 545.944, 584.283 546.185 C 585.502 546.358, 600.567 546.375, 617.759 546.222 L 649.019 545.945 648.759 497.278 L 648.500 448.611 618.328 431.592 L 588.156 414.573 567.574 354.037 C 550.183 302.885, 546.993 292.609, 546.996 287.750 L 547 282 292 282 L 37 282 37 394.500 M 153.877 313.649 C 152.822 314.920, 152.425 321.069, 152.146 340.507 L 151.783 365.717 155.301 369.234 C 157.236 371.169, 160.210 373.368, 161.909 374.120 L 165 375.488 165 413.044 C 165 440.921, 165.309 450.909, 166.200 451.800 C 166.860 452.460, 169.920 453, 173 453 C 176.080 453, 179.140 452.460, 179.800 451.800 C 180.691 450.909, 181 440.874, 181 412.835 L 181 375.070 183.250 373.913 C 186.635 372.172, 190.988 367.866, 192.723 364.542 C 194.047 362.005, 194.166 358.372, 193.558 339.042 C 192.837 316.085, 192.088 312, 188.599 312 C 185.436 312, 184.610 315.209, 183.880 330.336 C 183.477 338.676, 183.114 345.869, 183.074 346.320 C 183.033 346.770, 181.988 346.995, 180.750 346.820 C 178.789 346.541, 178.418 345.729, 177.859 340.500 C 177.506 337.200, 177.168 330.308, 177.109 325.184 C 176.992 315.202, 176.015 312, 173.087 312 C 169.636 312, 168.932 314.498, 168.397 328.650 C 167.732 346.249, 167.536 347.216, 164.715 346.815 C 162.026 346.433, 161.237 341.945, 161.056 326 C 160.934 315.275, 159.930 312, 156.762 312 C 155.928 312, 154.629 312.742, 153.877 313.649 M 224.624 318.073 C 213.106 330.884, 206.017 350.906, 204.440 375.082 C 203.544 388.813, 204.109 390, 211.535 390 L 217 390 217 420.300 C 217 442.533, 217.319 450.919, 218.200 451.800 C 220.009 453.609, 230.522 453.335, 232.429 451.429 C 233.826 450.031, 234 442.447, 234 383.010 C 234 346.245, 233.727 315.452, 233.393 314.582 C 232.293 311.715, 229.252 312.926, 224.624 318.073 M 470 375 L 470 414 516.500 414 C 542.075 414, 563 413.774, 563 413.498 C 563 413.222, 557.150 395.812, 550 374.809 C 542.850 353.806, 537 336.481, 537 336.311 C 537 336.140, 521.925 336, 503.500 336 L 470 336 470 375 M 184.550 505.606 C 170.510 509.001, 159.220 519.624, 154.536 533.847 C 151.789 542.187, 152.709 556.598, 156.493 564.500 C 160.096 572.025, 168.725 580.763, 176.106 584.361 C 200.054 596.035, 228.808 583.039, 235.448 557.540 C 240.584 537.816, 231.617 517.808, 213.718 509.052 C 203.461 504.035, 195.120 503.049, 184.550 505.606 M 524 505.098 C 516.960 506.473, 507.430 511.675, 502.178 517.011 C 482.360 537.144, 487.565 570.363, 512.631 583.723 C 529.102 592.501, 548.625 589.552, 561.863 576.284 C 571.628 566.497, 575.506 554.811, 573.810 540.277 C 571.845 523.434, 557.342 508.257, 540.114 505.014 C 533.911 503.846, 530.313 503.865, 524 505.098 M 189.994 525.896 C 179.576 529.223, 174 536.403, 174 546.490 C 174 553.270, 176.479 558.601, 181.592 562.815 C 192.194 571.555, 207.949 567.907, 213.682 555.384 C 216.856 548.451, 216.527 542.282, 212.630 535.632 C 208.299 528.242, 197.369 523.541, 189.994 525.896 M 527.236 525.936 C 518.462 528.132, 511 537.584, 511 546.500 C 511 552.756, 515.375 560.648, 520.725 564.040 C 526.650 567.798, 531.647 568.535, 538.228 566.622 C 547.258 563.997, 553 556.180, 553 546.510 C 553 532.863, 540.246 522.679, 527.236 525.936" stroke="none" fill="black" fill-rule="evenodd"/>
</svg>