<svg xmlns="http://www.w3.org/2000/svg" width="667" height="667" viewBox="0 0 667 667" version="1.1">
	<path d="M 32.355 94.971 C 29.671 96.081, 25.630 101.441, 24.155 105.849 C 22.850 109.752, 18.523 263.565, 19.493 271.612 C 20.388 279.032, 25.146 288.298, 30.982 293.982 C 36.358 299.219, 51.232 309.564, 59.166 313.584 L 64 316.034 64 445.782 C 64 570.440, 64.073 575.668, 65.863 579.016 C 69.455 585.734, 72.182 586.500, 92.500 586.500 C 112.818 586.500, 115.545 585.734, 119.137 579.016 C 120.927 575.668, 121 570.428, 121 445.289 L 121 315.046 123.750 313.388 C 135.197 306.488, 146.670 298.047, 150.917 293.400 C 157.733 285.943, 163.697 273.598, 165.120 264 C 166.002 258.054, 165.680 241.371, 163.567 183.500 C 162.101 143.350, 160.466 108.925, 159.934 107 C 156.335 93.970, 141.311 92.261, 135.996 104.277 C 134.360 107.976, 133.866 114.814, 132.014 159.396 C 129.781 213.145, 129.673 214.014, 124.783 217.439 C 120.960 220.117, 117.166 219.401, 112.975 215.210 C 110.070 212.306, 109.057 210.380, 108.634 206.960 C 108.330 204.507, 107.368 180.900, 106.496 154.500 C 105.015 109.675, 104.772 106.212, 102.818 102.152 C 97.645 91.398, 86.525 92.087, 80.998 103.505 C 78.954 107.727, 78.709 110.902, 76.890 156.748 C 75.826 183.561, 74.705 207.043, 74.399 208.929 C 73.730 213.047, 68.156 219, 64.968 219 C 63.740 219, 61.251 218.082, 59.436 216.960 C 53.489 213.285, 53.257 211.613, 51.074 156.803 C 49.255 111.136, 48.931 106.785, 47.070 103.138 C 43.811 96.750, 37.083 93.016, 32.355 94.971 M 628.371 106.250 C 600.052 135.069, 580.299 169.740, 565.843 216 C 554.760 251.467, 548.997 292.163, 549.004 334.911 C 549.009 368.233, 548.816 368, 576.468 368 L 593 368 593.004 472.250 C 593.007 573.883, 593.056 576.580, 594.960 579.701 C 598.681 585.805, 601.393 586.500, 621.500 586.500 C 641.818 586.500, 644.545 585.734, 648.137 579.016 C 649.939 575.645, 650 567.891, 650 341.733 C 650 87.594, 650.368 103.795, 644.486 99.168 C 639.871 95.537, 638.158 96.290, 628.371 106.250 M 318.536 194.146 C 284.295 198.534, 250.320 213.012, 221.500 235.496 C 210.380 244.172, 192.735 262.691, 184.293 274.548 C 151.895 320.052, 140.354 374.549, 151.480 429.497 C 159.216 467.703, 178.654 502.995, 207.128 530.530 C 232.693 555.252, 261.250 571.390, 294.775 580.062 C 317.375 585.907, 348.304 587.697, 370.999 584.471 C 437.212 575.062, 492.655 534.563, 521.550 474.500 C 568.345 377.230, 527.580 259.888, 430.545 212.544 C 411.968 203.480, 392.839 197.614, 371.872 194.552 C 360.202 192.848, 330.432 192.621, 318.536 194.146 M 332 222.591 C 295.417 226.912, 270.316 236.289, 244.906 255.130 C 171.846 309.301, 155.330 411.976, 207.770 486 C 216.393 498.172, 234.853 516.709, 246.905 525.297 C 312.433 571.993, 401.201 565.708, 459.049 510.275 C 484.313 486.067, 500.653 456.695, 508.158 422 C 510.133 412.871, 510.430 408.628, 510.430 389.500 C 510.430 370.372, 510.133 366.129, 508.158 357 C 501.099 324.369, 486.723 297.056, 464.569 274.188 C 438.787 247.574, 408.763 231.303, 373.826 225.012 C 363.215 223.102, 339.367 221.721, 332 222.591 M 328 262.048 C 277.651 268.278, 234.658 303.886, 219.599 351.829 C 211.520 377.550, 211.864 408.144, 220.520 433.576 C 233.552 471.868, 266.706 503.895, 305.204 515.383 C 320.640 519.990, 324.653 520.504, 344.500 520.416 C 362.356 520.338, 364.193 520.149, 375 517.284 C 398.787 510.976, 418.205 499.911, 435.058 483.058 C 454.366 463.750, 466.889 439.781, 471.509 413.290 C 473.440 402.213, 473.420 380.696, 471.467 369.381 C 466.859 342.678, 453.521 317.126, 434.470 298.503 C 416.368 280.808, 392.330 268.175, 367.965 263.553 C 357.698 261.605, 337.674 260.851, 328 262.048" stroke="none" fill="black" fill-rule="evenodd"/>
</svg>