<svg xmlns="http://www.w3.org/2000/svg" width="667" height="667" viewBox="0 0 667 667" version="1.1">
	<path d="M 529.678 69.500 C 529.335 71.150, 528.124 81.050, 526.987 91.500 C 525.849 101.950, 524.779 110.950, 524.608 111.500 C 524.437 112.050, 521.981 108.900, 519.149 104.500 C 516.317 100.100, 514.001 96.950, 514.002 97.500 C 514.004 98.050, 518.922 118.733, 524.933 143.463 L 535.862 188.427 531.931 191.791 C 526.858 196.133, 521.619 207, 518.738 219.153 C 516.675 227.860, 516.532 230.691, 516.649 260.500 C 516.731 281.249, 517.254 296.016, 518.138 302.500 L 519.500 312.500 540.750 312.770 L 561.999 313.040 565.721 307.270 C 572.441 296.851, 582.604 275.655, 584.823 267.432 C 587.218 258.555, 587.575 251.949, 585.917 247.192 C 584.856 244.148, 585.164 243.681, 601.343 223.802 C 610.422 212.645, 617.702 203.369, 617.520 203.187 C 617.338 203.005, 615.383 203.996, 613.176 205.389 L 609.163 207.922 613.072 196.285 C 615.222 189.885, 616.840 184.506, 616.666 184.333 C 616.492 184.159, 611.806 190.328, 606.251 198.041 L 596.152 212.065 595.500 206.283 C 595.141 203.102, 594.713 200.050, 594.550 199.500 C 594.387 198.950, 592.968 202.662, 591.398 207.750 C 589.828 212.838, 588.240 217, 587.869 217 C 587.499 217, 586.700 215.577, 586.093 213.838 C 585.487 212.099, 584.801 210.865, 584.570 211.097 C 584.338 211.329, 582.564 217.806, 580.627 225.491 C 578.691 233.177, 576.695 239.602, 576.192 239.769 C 575.689 239.937, 573.640 240.909, 571.639 241.929 L 568 243.784 568 237.616 C 568 229.671, 566.398 216.959, 564.448 209.424 C 562.258 200.966, 559.255 195.246, 554.668 190.793 L 550.674 186.917 555.848 161.709 C 558.694 147.844, 561.018 136.097, 561.011 135.605 C 561.005 135.113, 558.552 137.025, 555.560 139.855 C 552.568 142.685, 549.961 145, 549.768 145 C 549.574 145, 550.420 138.363, 551.647 130.250 C 555.036 107.860, 555.057 107.924, 547.957 118.902 C 544.633 124.042, 541.747 128.079, 541.543 127.874 C 541.340 127.668, 538.856 114.225, 536.023 98 C 530.035 63.700, 530.473 65.667, 529.678 69.500 M 87.230 136.488 C 80.579 138.357, 77.043 140.159, 69.382 145.582 C 53.125 157.090, 47.999 168.431, 48.001 192.886 C 48.004 216.846, 52.815 247.472, 66.125 308.250 L 67.166 313 123.083 313 C 176.547 313, 179 312.920, 179 311.175 C 179 309.320, 175.074 286.741, 174.684 286.350 C 174.141 285.808, 155.913 283.819, 140.825 282.655 C 123.216 281.297, 122.045 280.921, 119.377 275.762 C 117.523 272.177, 118.814 267.457, 122.622 263.897 C 125.078 261.600, 125.695 261.512, 137.343 261.794 C 144.029 261.955, 154 262.443, 159.500 262.878 C 165 263.312, 169.577 263.628, 169.671 263.579 C 169.766 263.530, 168.677 258.436, 167.252 252.259 C 165.466 244.515, 164.170 240.873, 163.081 240.530 C 160.191 239.620, 136.679 237.143, 124 236.412 C 111.631 235.699, 111.466 235.658, 108.250 232.446 C 104.512 228.713, 104.180 225.857, 106.956 221.304 C 111.026 214.630, 111.382 214.568, 136.267 216.249 C 148.495 217.076, 158.599 217.671, 158.720 217.572 C 159.228 217.159, 153.241 195.841, 152.374 194.974 C 151.338 193.938, 130.821 191.554, 113.650 190.476 C 103.689 189.850, 102.547 189.567, 99.700 187.024 C 94.429 182.314, 96.068 174.084, 102.991 170.504 C 105.579 169.166, 108.088 169.111, 122.364 170.080 C 131.384 170.692, 139.517 171.036, 140.438 170.846 C 141.790 170.567, 141.124 169.056, 136.978 163 C 121.902 140.980, 104.414 131.660, 87.230 136.488 M 315.830 143.860 L 312.500 146.835 312.229 236.418 L 311.958 326 188.933 326 L 65.907 326 66.282 402.250 C 66.611 469.284, 66.858 479.325, 68.328 485.324 C 74.433 510.239, 85.179 530.004, 102.171 547.569 C 121.106 567.143, 143.062 578.889, 171.536 584.678 C 179.984 586.395, 189.566 586.500, 338 586.500 C 485.022 586.500, 496.129 586.381, 504.961 584.714 C 561.087 574.116, 602.931 529.906, 609.970 473.766 C 610.588 468.836, 611 437.659, 611 395.776 L 611 326 487.500 326 L 364 326 364 236.556 L 364 147.112 361.589 144.306 L 359.177 141.500 339.169 141.192 L 319.160 140.885 315.830 143.860 M 433.604 191.573 C 422.279 205.846, 417.604 218.195, 417.541 234 C 417.519 239.775, 417.883 246.448, 418.351 248.830 L 419.203 253.159 415.083 250.175 C 409.708 246.281, 402.414 244.579, 394.340 245.333 C 384.577 246.244, 384.360 246.552, 388.556 253.545 C 394.620 263.651, 401.367 269.532, 409.798 272.058 L 413.914 273.291 410.120 277.601 C 402.816 285.899, 397 299.911, 397 309.210 L 397 313 449.500 313 L 502 313 502 309.210 C 502 292.978, 489.273 273.732, 473.263 265.754 C 464.078 261.177, 456.724 259.659, 446.369 260.202 L 438.156 260.633 441.017 254.966 C 447.979 241.175, 450.810 226.221, 448.984 212.887 C 447.712 203.590, 443.999 192.785, 440.621 188.550 L 438.307 185.647 433.604 191.573 M 228.913 195.282 C 226.011 197.510, 225 200.800, 225 208.011 C 225 214.572, 225.238 215.392, 227.923 218.077 L 230.846 221 248 221 L 265.154 221 268.077 218.077 C 270.816 215.338, 271 214.655, 271 207.223 C 271 200.191, 270.722 198.992, 268.548 196.646 L 266.095 194 248.298 194.032 C 235.886 194.054, 230.020 194.432, 228.913 195.282 M 226.871 230.508 C 223.749 232.205, 224.504 230.380, 208.546 274.815 C 198.406 303.051, 196.102 310.418, 197.054 311.565 C 198.877 313.762, 297.168 313.707, 298.993 311.508 C 300.010 310.283, 297.616 303.376, 285.559 272.758 C 277.489 252.266, 270.241 234.510, 269.453 233.300 C 267.262 229.937, 261.920 229.008, 245 229.046 C 233.515 229.071, 228.819 229.450, 226.871 230.508" stroke="none" fill="black" fill-rule="evenodd"/>
</svg>