<svg xmlns="http://www.w3.org/2000/svg" width="667" height="667" viewBox="0 0 667 667" version="1.1">
	<path d="M 319.545 82.250 C 319.216 85.138, 316.235 120.125, 312.920 160 C 307.350 227.014, 306.917 234.316, 307.197 256.500 C 307.479 278.821, 307.651 280.781, 309.650 284.513 C 312.411 289.669, 316.439 293.669, 321.487 296.266 C 326.359 298.773, 338.607 299.732, 344.708 298.083 C 351.022 296.376, 357.091 291.292, 360.250 285.064 L 363 279.641 363.032 253.071 C 363.062 228.218, 362.630 221.667, 356.345 151.750 L 349.627 77 334.885 77 L 320.144 77 319.545 82.250 M 371 79.750 C 371 81.263, 374.375 115.575, 378.500 156 C 385.575 225.345, 386 230.857, 386.005 253.500 C 386.009 266.946, 386.466 279.138, 387.046 281.225 C 389.777 291.059, 399.099 297.916, 410.885 298.760 C 423.844 299.687, 433.330 295.397, 438.765 286.152 L 441.500 281.500 441.810 255.287 L 442.121 229.073 424.009 158.287 C 414.047 119.354, 405.232 85.138, 404.420 82.250 L 402.944 77 386.972 77 L 371 77 371 79.750 M 423.351 79.250 C 423.663 80.487, 433.162 114.997, 444.460 155.938 L 465 230.376 465 255.220 C 465 273.805, 465.340 280.875, 466.348 283.282 C 468.348 288.054, 472.624 292.694, 477.855 295.770 C 482.078 298.252, 483.409 298.500, 492.500 298.500 C 503.729 298.500, 507.832 297.012, 513.638 290.838 C 520.349 283.700, 520.470 283.089, 520.791 255 L 521.081 229.500 494.548 154.167 C 479.955 112.733, 467.760 78.421, 467.448 77.917 C 467.133 77.406, 457.116 77, 444.833 77 L 422.783 77 423.351 79.250 M 487.477 78.750 C 487.857 79.713, 500.472 113.643, 515.510 154.150 L 542.851 227.801 543.176 254.150 C 543.533 283.176, 543.631 283.679, 550.362 290.838 C 556.168 297.012, 560.271 298.500, 571.500 298.500 C 580.607 298.500, 581.917 298.255, 586.176 295.751 C 591.867 292.406, 596.329 287.183, 597.859 282.078 C 598.583 279.660, 599 269.050, 599 253.035 L 599 227.802 563.822 152.401 L 528.643 77 507.715 77 C 488.186 77, 486.832 77.117, 487.477 78.750 M 138.079 82.250 C 137.061 84.588, 121.525 118.637, 103.554 157.915 L 70.880 229.329 71.190 254.915 C 71.480 278.855, 71.638 280.758, 73.649 284.513 C 76.411 289.669, 80.439 293.669, 85.487 296.266 C 90.359 298.773, 102.607 299.732, 108.708 298.083 C 115.022 296.376, 121.091 291.292, 124.250 285.064 L 127 279.641 127 254.752 L 127 229.863 153.500 154.850 C 168.075 113.592, 180 79.423, 180 78.918 C 180 78.391, 171.466 78, 159.964 78 L 139.929 78 138.079 82.250 M 201.496 79.250 C 201.253 79.938, 189.567 113.738, 175.527 154.361 L 150 228.222 150.006 252.861 C 150.009 266.748, 150.463 279.125, 151.046 281.225 C 153.830 291.251, 163.169 297.990, 175.363 298.773 C 185.726 299.438, 192.566 297.276, 198.326 291.516 C 205.440 284.402, 206 281.618, 206 253.364 L 206 229.084 227.026 155.292 C 238.590 114.706, 248.295 80.713, 248.593 79.750 C 249.098 78.117, 247.551 78, 225.536 78 C 207.559 78, 201.832 78.298, 201.496 79.250 M 248.201 152.750 L 228.931 227.500 228.966 253.782 C 228.991 273.509, 229.336 280.867, 230.348 283.282 C 232.348 288.054, 236.624 292.694, 241.855 295.770 C 246.078 298.252, 247.409 298.500, 256.500 298.500 C 268.052 298.500, 272.112 296.939, 278.262 290.132 C 284.277 283.474, 285 279.212, 285 250.403 C 285 226.600, 285.396 221.155, 291.981 154.335 C 295.820 115.376, 299.117 82.263, 299.308 80.750 L 299.654 78 283.562 78 L 267.471 78 248.201 152.750 M 135.676 286 C 135.388 286.825, 134.607 289.300, 133.941 291.500 C 126.601 315.736, 102.398 328.196, 81.364 318.566 C 78.142 317.091, 74.492 314.932, 73.253 313.768 L 71 311.651 71 449.826 L 71 588 102.975 588 L 134.950 588 135.225 495.750 L 135.500 403.500 137.662 399.500 C 138.852 397.300, 141.328 394.057, 143.166 392.293 C 149.611 386.106, 150.562 386, 199.760 386 C 230.981 386, 245.440 386.351, 248.193 387.176 C 253.446 388.750, 260.339 394.983, 262.635 400.234 C 264.404 404.279, 264.514 409.244, 264.775 496.250 L 265.050 588 432.525 588 L 600 588 600 451.417 C 600 376.296, 599.663 315.006, 599.250 315.217 C 588.139 320.903, 586.447 321.386, 577.500 321.427 C 569.784 321.463, 567.679 321.086, 562.747 318.788 C 551.743 313.661, 541.973 301.740, 538.961 289.762 C 537.602 284.361, 536.535 284.335, 535.533 289.677 C 535.151 291.712, 533.512 296.005, 531.890 299.218 C 521.926 318.956, 500.464 327.109, 481.804 318.244 C 471.081 313.150, 463.866 304.570, 459.564 291.792 C 458.218 287.797, 456.901 285.198, 456.637 286.015 C 456.372 286.832, 455.407 289.868, 454.493 292.763 C 452.375 299.469, 446.001 309.039, 441.029 312.977 C 438.908 314.657, 434.546 317.262, 431.336 318.766 C 426.412 321.073, 424.171 321.500, 417 321.500 C 409.829 321.500, 407.588 321.073, 402.664 318.766 C 399.454 317.262, 395.092 314.657, 392.971 312.977 C 387.999 309.039, 381.625 299.469, 379.507 292.763 C 378.593 289.868, 377.628 286.832, 377.363 286.015 C 377.099 285.198, 375.782 287.797, 374.436 291.792 C 370.134 304.570, 362.919 313.150, 352.196 318.244 C 333.536 327.109, 312.074 318.956, 302.110 299.218 C 300.488 296.005, 298.849 291.712, 298.467 289.677 C 297.465 284.335, 296.398 284.361, 295.039 289.762 C 292.027 301.740, 282.257 313.661, 271.253 318.788 C 266.321 321.086, 264.216 321.463, 256.500 321.427 C 248.997 321.393, 246.564 320.957, 241.875 318.803 C 231.131 313.870, 221.918 302.897, 218.604 291.086 C 217.665 287.739, 216.718 285, 216.500 285 C 216.282 285, 215.335 287.739, 214.396 291.086 C 211.082 302.897, 201.869 313.870, 191.125 318.803 C 186.436 320.957, 184.003 321.393, 176.500 321.427 C 168.797 321.463, 166.676 321.085, 161.782 318.804 C 150.836 313.704, 142.645 303.985, 138.350 291 C 137.142 287.350, 135.970 285.158, 135.676 286 M 330 443.048 L 330 500.095 336.250 499.798 L 342.500 499.500 343 466 L 343.500 432.500 348.974 425.250 L 354.448 418 361.658 418 L 368.869 418 374.434 426.080 L 380 434.159 380 467.080 L 380 500 394.793 500 L 409.585 500 410.755 495.626 C 411.399 493.220, 413.514 489.170, 415.456 486.626 C 418.119 483.137, 418.587 482, 417.361 482 C 412.458 482, 401.163 469.785, 404.252 467.823 C 406.482 466.407, 414.491 466.956, 418.039 468.768 L 421.500 470.536 421.173 462.756 C 420.952 457.490, 421.364 453.446, 422.449 450.238 C 424.139 445.238, 430.808 434.886, 432.495 434.643 C 433.041 434.564, 434.575 437.200, 435.901 440.500 C 437.712 445.004, 438.310 448.370, 438.298 454 C 438.282 461.007, 437.734 463.217, 433.521 473.250 C 432.882 474.772, 433.395 475, 437.450 475 C 450.958 475, 463.146 483.750, 466.126 495.588 L 467.237 500 477.655 500 L 488.074 500 487.411 487.250 C 486.446 468.702, 488.525 457.567, 494.094 451.460 C 495.915 449.463, 495.852 449.002, 491.068 429.460 C 486.564 411.063, 486.361 409.726, 488.482 412.380 C 491.254 415.850, 491.496 415.353, 492.559 404 C 493.396 395.062, 494.010 396.171, 496.576 411.250 C 497.582 417.163, 498.667 422, 498.987 422 C 499.307 422, 500.441 420.538, 501.507 418.750 C 503.913 414.714, 504.429 416.440, 503.186 424.367 L 502.291 430.075 504.645 427.863 C 507.618 425.071, 507.630 425.632, 504.889 439.074 C 503.383 446.456, 503.104 449.535, 503.915 449.805 C 506.331 450.610, 509.182 458.370, 509.731 465.631 C 510.038 469.684, 510.642 473, 511.073 473 C 512.274 473, 514.999 470.005, 515.006 468.679 C 515.019 465.853, 517.191 460, 518.033 460.520 C 518.541 460.834, 519.605 459.608, 520.397 457.796 C 521.261 455.818, 521.869 455.200, 521.918 456.250 C 522.060 459.283, 523.713 458.181, 527.921 452.250 C 532.444 445.874, 532.669 445.852, 530.500 452 C 528.645 457.257, 528.646 457.350, 530.547 456.620 C 532.432 455.897, 532.025 456.498, 523.709 466.711 C 519.048 472.435, 518.038 474.302, 518.533 476.277 C 519.338 479.481, 517.546 486.076, 513.914 493.280 C 512.311 496.459, 511 499.283, 511 499.555 C 511 499.827, 518.313 499.926, 527.250 499.775 L 543.500 499.500 543.758 442.750 L 544.017 386 437.008 386 L 330 386 330 443.048 M 353.091 405.391 C 352.420 406.199, 352.012 408.579, 352.185 410.680 L 352.500 414.500 361.304 414.790 L 370.107 415.079 369.804 409.790 L 369.500 404.500 361.905 404.211 C 356.174 403.992, 354.011 404.282, 353.091 405.391" stroke="none" fill="black" fill-rule="evenodd"/>
</svg>