<svg xmlns="http://www.w3.org/2000/svg" width="667" height="667" viewBox="0 0 667 667" version="1.1">
	<path d="M 295.337 32.514 C 288.707 36.488, 287 41.157, 287 55.316 L 287 67 260.401 67 C 230.320 67, 228.993 67.266, 223.884 74.319 L 221 78.300 221 95.700 C 221 108.734, 221.354 113.777, 222.411 115.800 C 224.528 119.853, 229.227 123.918, 233.069 125.020 C 234.949 125.559, 247.852 126, 261.743 126 L 287 126 287 141.880 L 287 157.759 277.747 162.351 C 266.136 168.114, 254.068 177.702, 246.972 186.804 L 241.500 193.822 185.972 194.161 L 130.443 194.500 125.481 197.055 C 122.479 198.600, 119.329 201.300, 117.509 203.889 L 114.500 208.168 114.208 238.042 C 113.935 266.024, 114.040 268.156, 115.867 271.708 C 118.361 276.558, 122.505 280.478, 127.218 282.447 C 130.416 283.783, 138.140 284, 182.448 284 L 233.959 284 236.120 288.250 C 241.934 299.682, 251.784 311.490, 261.946 319.207 C 269.561 324.990, 285.858 333.162, 294.500 335.530 C 303.853 338.094, 326.730 338.640, 337.098 336.546 C 363.782 331.159, 388.201 312.939, 400.487 289.250 L 403.210 284 425.105 284 L 447 284 447 311.263 L 447 338.527 441.960 339.724 C 435.763 341.196, 431.857 343.885, 428.821 348.768 C 426.786 352.040, 426.456 354.032, 426.143 364.920 C 425.928 372.372, 426.239 378.853, 426.919 381.124 C 428.394 386.048, 432.282 390.593, 437.137 393.070 C 440.885 394.982, 442.859 395.042, 492.835 394.776 L 544.648 394.500 548.804 391.749 C 555.767 387.140, 557 383.416, 557 366.990 C 557 351.310, 556.450 349.358, 550.578 344.203 C 547.251 341.281, 541.659 339.018, 537.736 339.006 C 536.086 339, 535.975 336.884, 536.013 306.250 C 536.056 271.958, 535.629 267.141, 531.467 254.904 C 521.748 226.329, 497.843 204.537, 467.818 196.881 C 460.455 195.004, 455.815 194.704, 427.401 194.271 L 395.302 193.782 393.559 190.830 C 390.436 185.544, 377.685 173.536, 369.510 168.184 C 365.115 165.306, 358.027 161.524, 353.760 159.779 L 346 156.607 346 141.303 L 346 126 371.257 126 C 385.148 126, 398.051 125.559, 399.931 125.020 C 403.773 123.918, 408.472 119.853, 410.589 115.800 C 411.646 113.777, 412 108.734, 412 95.700 L 412 78.300 409.116 74.319 C 404.007 67.266, 402.680 67, 372.599 67 L 346 67 346 55.157 C 346 44.693, 345.729 42.802, 343.675 38.907 C 342.226 36.160, 339.872 33.659, 337.425 32.266 C 333.789 30.197, 332.247 30.032, 316.500 30.026 C 300.148 30.019, 299.341 30.114, 295.337 32.514 M 490.141 429.500 C 482.104 469.712, 472.333 494.810, 454.543 520.937 C 447.738 530.931, 445.668 537.587, 446.175 547.854 C 446.999 564.562, 457.842 578.403, 475.114 584.793 C 497.072 592.917, 523.094 582.764, 533.273 562.101 C 536.017 556.530, 536.553 554.231, 536.851 546.732 C 537.326 534.814, 535.762 530.539, 525.051 514.468 C 504.878 484.201, 495.763 461.769, 492.633 434.690 L 491.340 423.500 490.141 429.500" stroke="none" fill="black" fill-rule="evenodd"/>
</svg>