<svg xmlns="http://www.w3.org/2000/svg" width="667" height="667" viewBox="0 0 667 667" version="1.1">
	<path d="M 202.021 28.068 C 175.059 35.126, 155.057 54.356, 146.794 81.161 L 144.532 88.500 144.240 212.750 L 143.947 337 120.289 337 C 98.314 337, 96.324 337.149, 92.302 339.096 C 85.722 342.281, 83 347.632, 83 357.378 C 83 367.106, 85.190 371.855, 91.336 375.457 C 94.590 377.363, 97.080 378, 101.288 378 L 106.900 378 107.225 429.750 L 107.550 481.500 110.284 490.297 C 121.867 527.562, 153.436 553.587, 190.977 556.818 L 198.898 557.500 190.902 570 C 186.505 576.875, 182.241 583.738, 181.428 585.250 L 179.949 588 193.724 587.953 L 207.500 587.905 218 572.703 L 228.500 557.500 337.500 557.500 L 446.500 557.500 457 572.703 L 467.500 587.905 481.276 587.953 L 495.051 588 493.572 585.250 C 492.759 583.737, 488.494 576.875, 484.094 570 L 476.095 557.500 483.797 556.299 C 520.446 550.587, 550.278 524.114, 560.201 488.500 C 562.349 480.789, 562.442 478.649, 562.765 429.250 L 563.101 378 568.712 378 C 575.797 378, 581.611 374.817, 584.761 369.212 C 586.546 366.035, 587 363.652, 587 357.452 C 587 347.626, 584.296 342.290, 577.698 339.096 L 573.369 337 371.176 337 L 168.984 337 169.065 218.750 C 169.112 150.570, 169.545 97.748, 170.088 94 C 173.543 70.146, 196.212 51, 221 51 C 234.688 51, 246.683 55.906, 257.161 65.791 C 264.583 72.793, 270.340 82.721, 271.488 90.500 L 272.078 94.500 264.411 97.965 C 251.466 103.815, 248.544 111.640, 254.429 124.691 L 257.220 130.882 255.118 133.834 C 249.043 142.365, 244.114 158.512, 245.241 166.190 C 245.633 168.859, 245.285 169.401, 242.411 170.602 C 238.797 172.112, 236 175.454, 236 178.262 C 236 181.024, 239.759 187.801, 241.938 188.967 C 243 189.535, 244.866 190, 246.085 190 C 248.709 190, 379.564 130.704, 382.195 128.323 C 386.188 124.710, 383.002 114.092, 377.271 111.913 C 375.225 111.135, 373.608 111.243, 370.799 112.347 C 367.055 113.817, 367.052 113.816, 362.811 109.940 C 355.851 103.577, 346.586 99.732, 332.984 97.559 C 329.836 97.056, 329.285 96.479, 327.709 92.043 C 325.357 85.422, 320.571 80.507, 314.976 78.966 C 310.565 77.751, 306.779 78.512, 297.902 82.398 C 296.623 82.958, 295.748 81.575, 293.528 75.487 C 288.742 62.364, 277.224 47.514, 265.443 39.276 C 259.191 34.905, 247.943 29.956, 239.847 28.015 C 228.672 25.336, 212.369 25.359, 202.021 28.068 M 354.500 159.167 C 349.627 162.062, 348.643 167.005, 352.073 171.365 C 356.460 176.943, 366 173.471, 366 166.296 C 366 160.453, 359.313 156.307, 354.500 159.167 M 324.455 173.455 C 319.334 178.575, 322.696 187, 329.860 187 C 333.572 187, 338 183.242, 338 180.093 C 338 172.422, 329.602 168.307, 324.455 173.455 M 368.759 179.348 C 361.809 185.789, 366.163 196.400, 375.756 196.400 C 380.480 196.400, 385 191.514, 385 186.407 C 385 178.393, 374.645 173.892, 368.759 179.348 M 296.747 185.984 C 293.436 188.589, 292.576 192.280, 294.442 195.887 C 296.053 199.004, 297.799 200, 301.648 200 C 305.361 200, 307.666 198.396, 308.856 194.984 C 310.147 191.280, 309.043 187.844, 305.841 185.601 C 302.781 183.458, 299.799 183.583, 296.747 185.984 M 333.636 195.636 C 331.619 197.653, 331 199.266, 331 202.500 C 331 205.734, 331.619 207.347, 333.636 209.364 C 335.653 211.381, 337.266 212, 340.500 212 C 349.249 212, 353.392 202.150, 347.313 195.805 C 343.603 191.933, 337.416 191.857, 333.636 195.636 M 389.893 200.497 C 381.920 204.830, 382.091 217.410, 390.180 221.593 C 400.308 226.830, 411.390 215.945, 406.475 205.588 C 403.603 199.535, 395.972 197.193, 389.893 200.497 M 298.589 212.077 C 294.967 216.381, 295.092 221.246, 298.923 225.077 C 306.580 232.734, 318.800 224.636, 314.634 214.666 C 312.871 210.447, 310.450 209, 305.155 209 C 301.942 209, 300.681 209.591, 298.589 212.077 M 348.500 219.355 C 344.302 221.275, 342.012 224.150, 341.329 228.359 C 340.077 236.076, 345.364 242, 353.504 242 C 357.511 242, 358.699 241.501, 361.600 238.600 C 364.484 235.716, 365 234.500, 365 230.585 C 365 221.886, 356.145 215.859, 348.500 219.355 M 302.645 241.007 C 292.149 250.222, 303.504 266.962, 315.901 260.551 C 319.970 258.447, 322 254.748, 322 249.435 C 322 245.497, 321.489 244.289, 318.600 241.400 C 315.726 238.526, 314.493 238, 310.635 238 C 306.986 238, 305.382 238.604, 302.645 241.007" stroke="none" fill="black" fill-rule="evenodd"/>
</svg>