<svg xmlns="http://www.w3.org/2000/svg" width="667" height="667" viewBox="0 0 667 667" version="1.1">
	<path d="M 135.011 78.206 C 127.389 81.139, 119.042 89.598, 116.154 97.317 L 113.983 103.120 114.242 335.810 L 114.500 568.500 117.300 574.203 C 120.811 581.352, 128.332 588.232, 135.612 590.956 C 141.124 593.018, 141.263 593.020, 335.314 592.760 L 529.500 592.500 533.849 590.179 C 542.664 585.475, 549.635 577.248, 552.106 568.630 C 553.256 564.622, 553.318 104.326, 552.169 100.472 C 549.548 91.676, 542.517 83.311, 534 78.855 L 529.500 76.500 335 76.297 L 140.500 76.094 135.011 78.206 M 233.420 99.829 C 225.141 105.029, 227.021 116.671, 236.683 120.039 C 243.215 122.316, 250.455 116.421, 250.455 108.825 C 250.455 100.819, 240.345 95.480, 233.420 99.829 M 275 98.706 C 272.239 99.716, 269.068 103.263, 267.980 106.561 C 265.741 113.345, 271.518 120.455, 279.269 120.455 C 282.521 120.455, 283.779 119.817, 286.598 116.742 C 290.409 112.583, 290.971 108.778, 288.483 103.967 C 286.090 99.340, 279.887 96.920, 275 98.706 M 160 109.500 L 160 120 182 120 L 204 120 204 109.500 L 204 99 182 99 L 160 99 160 109.500 M 128.669 145.664 C 128.301 146.032, 128 151.208, 128 157.167 L 128 168 333.533 168 L 539.066 168 538.783 156.750 L 538.500 145.500 333.919 145.248 C 221.400 145.109, 129.037 145.296, 128.669 145.664 M 323 251.012 C 289.331 253.797, 259.217 268.330, 235.319 293.328 C 210.584 319.201, 198 350.773, 198 386.955 C 198 415.408, 204.915 438.536, 220.739 463 C 227.515 473.476, 246.491 492.685, 257.015 499.720 C 290.226 521.921, 329.523 528.937, 367.403 519.429 C 409.069 508.970, 443.952 478.806, 460.320 439.084 C 481.408 387.904, 469.690 329.722, 430.374 290.407 C 402.434 262.466, 362.344 247.758, 323 251.012 M 322.500 281.097 C 286.446 284.322, 252.731 307.977, 236.430 341.486 C 225 364.981, 222.798 395.250, 230.684 420.476 C 241.687 455.676, 270.434 482.973, 306.794 492.747 C 315.459 495.076, 318.324 495.356, 333.500 495.356 C 348.721 495.356, 351.546 495.078, 360.500 492.700 C 398.345 482.651, 427.763 453.254, 438.065 415.190 C 441.264 403.371, 441.834 379.559, 439.219 367 C 435.025 346.857, 425.947 329.479, 411.809 314.524 C 388.322 289.681, 357.117 278.002, 322.500 281.097 M 317 303.501 C 279.052 311.170, 250.924 342.653, 247.414 381.387 C 247.045 385.455, 247.056 391.695, 247.437 395.254 L 248.130 401.724 253.815 399.386 C 264.369 395.045, 273.374 396.398, 283.040 403.777 C 292.561 411.045, 297.915 413.796, 305.015 415.069 C 313.366 416.565, 321.275 414.709, 330.655 409.052 C 340.460 403.139, 345.725 401.682, 355.453 402.193 C 362.389 402.557, 364.559 403.124, 369.346 405.826 C 376.253 409.725, 385.273 411.965, 394.136 411.985 C 399.666 411.998, 401.666 411.500, 406.136 409.001 C 409.086 407.352, 413.167 405.215, 415.204 404.251 C 418.634 402.630, 418.960 402.097, 419.593 397.063 C 420.589 389.150, 419.362 374.625, 416.970 366 C 407.876 333.216, 381.183 309.005, 347.566 303.051 C 339.694 301.657, 325.063 301.872, 317 303.501" stroke="none" fill="black" fill-rule="evenodd"/>
</svg>