<svg xmlns="http://www.w3.org/2000/svg" width="667" height="667" viewBox="0 0 667 667" version="1.1">
	<path d="M 326.286 43.433 C 319.006 47.596, 315.242 50.960, 309.604 58.341 C 294.228 78.473, 284.579 104.079, 282.030 131.517 C 278.732 167.019, 292.342 207.744, 314.944 230 C 326.311 241.194, 336.105 244.039, 346.286 239.106 C 363.661 230.687, 381.317 200.931, 387.683 169.339 C 390.381 155.953, 390.111 129.913, 387.130 116 C 379.973 82.599, 363.758 53.786, 346.569 43.926 C 339.899 40.101, 332.433 39.919, 326.286 43.433 M 202.538 106.425 C 194.499 109.438, 193.481 112.902, 193.550 137 C 193.592 151.500, 193.973 155.993, 195.772 163.207 C 201.070 184.461, 209.879 200.016, 224.319 213.618 C 241.228 229.546, 263.993 239.921, 293 244.918 C 298.775 245.913, 303.663 246.588, 303.862 246.418 C 304.061 246.249, 302.651 244.172, 300.729 241.805 C 294.297 233.880, 284.847 218.619, 278.305 205.587 C 263.538 176.173, 258.174 149.117, 262.543 126.085 C 263.392 121.610, 263.842 117.553, 263.543 117.069 C 262.750 115.786, 246.790 110.168, 237.500 107.902 C 226.589 105.240, 207.815 104.447, 202.538 106.425 M 440.594 106.546 C 424.754 109.528, 406.458 116.145, 407.383 118.557 C 410.523 126.739, 411.126 148.869, 408.576 162.339 C 404.193 185.487, 390.175 215.530, 372.455 239.750 L 367.882 246 370.534 246 C 378.540 246, 403.744 239.307, 416.282 233.851 C 459.481 215.053, 482.393 174.504, 478.010 124.610 C 476.550 108.002, 474.368 105.830, 458.670 105.361 C 452.558 105.179, 445.345 105.652, 440.594 106.546 M 91.994 191.875 C 84.166 194.442, 78.811 199.403, 77.072 205.700 C 74.544 214.858, 85.987 304.190, 93.939 337.374 C 100.335 364.060, 111.465 386.583, 129.079 408.482 C 142.438 425.090, 164.933 445.489, 186.374 460.438 L 195.682 466.928 196.338 484.214 C 196.699 493.721, 196.995 517.783, 196.997 537.685 C 196.999 560.812, 197.384 574.886, 198.064 576.685 C 199.367 580.134, 203.575 584.695, 207.200 586.589 C 209.394 587.735, 217.425 588, 249.990 588 C 287.953 588, 290.285 587.895, 293.956 586.023 C 298.691 583.607, 301.516 579.809, 303.020 573.833 C 303.839 570.582, 304.038 550.337, 303.727 501.904 C 303.326 439.519, 303.132 433.346, 301.120 419.001 C 296.911 388.988, 291.072 367.977, 281.458 348.256 C 276.065 337.192, 275.630 336.643, 254.239 313.870 C 227.677 285.593, 226.706 284.445, 216.696 269.500 C 204.041 250.606, 201.275 247.185, 196.723 244.802 C 187.666 240.059, 175.611 242.670, 170.901 250.395 C 167.696 255.651, 168.445 259.918, 175.104 274.308 C 186.176 298.239, 191.731 306.439, 209.329 324.834 C 220.475 336.485, 223 340.452, 223 346.320 C 223 350.628, 219.301 356.149, 215.788 357.085 C 209.242 358.828, 201.785 354.473, 186.628 340.056 C 154.477 309.473, 132.647 267.828, 125.001 222.488 C 123.796 215.344, 122.156 207.925, 121.355 206 C 119.471 201.472, 114.528 196.354, 109.572 193.801 C 105.285 191.593, 95.968 190.572, 91.994 191.875 M 564.591 192.512 C 553.892 196.600, 549.731 203.018, 547.019 219.623 C 539.421 266.130, 519.421 305.648, 487.315 337.594 C 476.178 348.675, 467.141 355.616, 462.072 356.981 C 454.258 359.085, 448.620 354.165, 448.753 345.357 C 448.788 343.077, 449.371 340.152, 450.049 338.856 C 450.727 337.560, 456.546 330.875, 462.979 324 C 469.412 317.125, 476.824 308.575, 479.450 305 C 484.249 298.467, 499.626 268.859, 501.979 261.622 C 505.385 251.147, 494.029 240.461, 481.604 242.447 C 473.265 243.781, 470.435 246.421, 458.959 263.575 C 446.001 282.944, 443.984 285.373, 417.086 314 C 398.735 333.531, 395.366 337.622, 391.558 345 C 379.765 367.851, 372.819 394.597, 368.836 432.500 C 367.300 447.117, 367.570 572.729, 369.147 576.904 C 370.375 580.157, 374.659 584.739, 378.200 586.589 C 380.395 587.736, 388.457 588, 421.216 588 C 466.825 588, 465.751 588.169, 471.500 580.062 L 474.500 575.831 475 521.498 C 475.275 491.614, 475.725 466.982, 476 466.758 C 476.275 466.535, 480.325 463.688, 485 460.433 C 529.479 429.463, 560.051 392.510, 572.871 354.221 C 580.408 331.710, 588.467 282.634, 593.622 227.851 C 595.048 212.706, 595.149 208.442, 594.164 205.154 C 592.833 200.711, 588.506 195.830, 583.689 193.339 C 579.359 191.100, 569.413 190.669, 564.591 192.512" stroke="none" fill="black" fill-rule="evenodd"/>
</svg>