<svg xmlns="http://www.w3.org/2000/svg" width="667" height="667" viewBox="0 0 667 667" version="1.1">
	<path d="M 391.301 59.027 C 388.335 60.533, 386.499 62.403, 385.051 65.395 C 383.018 69.594, 383 70.692, 383 188.816 L 383 308 245.868 308 L 108.736 308 105.344 310.097 C 100.361 313.176, 99 316.605, 99 326.082 C 99 332.540, 99.425 334.951, 101.016 337.526 C 105.318 344.487, 92.982 344, 264.915 344 L 420.028 344 419.764 205.573 C 419.501 67.527, 419.494 67.139, 417.438 64.385 C 413.437 59.027, 410.416 57.557, 402.699 57.214 C 396.899 56.957, 394.684 57.309, 391.301 59.027 M 432.434 97.073 C 431.089 98.559, 430.446 101.107, 430.166 106.067 C 429.678 114.711, 430.553 119.553, 433.056 122.056 C 434.942 123.942, 436.960 124, 500.500 124 C 564.385 124, 566.049 123.951, 567.975 122.025 C 570.693 119.307, 571.271 116.311, 570.853 107.110 C 570.245 93.702, 577.786 95, 500.500 95 C 434.798 95, 434.296 95.015, 432.434 97.073 M 432.924 133.581 L 430.500 136.161 430.500 233.167 L 430.500 330.173 433.306 332.587 C 436.069 334.963, 436.414 335, 456.056 335 L 476 335 476 368.500 L 476 402 439 402 C 410.061 402, 402.002 401.728, 402.011 400.750 C 402.017 400.063, 402.645 397.445, 403.408 394.934 C 405.224 388.951, 407.687 373.608, 408.494 363.250 L 409.137 355 260.916 355 L 112.695 355 113.337 366.750 C 116.095 417.165, 147.850 465.444, 193.543 488.693 L 202.991 493.500 202.995 539.750 L 203 586 260.500 586 L 318 586 318 539.693 L 318 493.386 325.243 489.943 C 346.533 479.823, 369.285 459.959, 382.796 439.697 C 386.758 433.755, 390 428.467, 390 427.947 C 390 427.364, 408.300 427, 437.532 427 C 478.172 427, 485.601 426.776, 488.768 425.452 C 493.483 423.482, 496.692 420.481, 499.097 415.790 C 500.870 412.332, 501 409.456, 501 373.540 L 501 335 523.500 335 C 536.551 335, 546 334.613, 546 334.079 C 546 333.572, 551.426 290.485, 558.058 238.329 C 564.690 186.173, 570.185 141.830, 570.269 139.789 C 570.379 137.112, 569.757 135.370, 568.037 133.539 L 565.651 131 500.500 131 L 435.349 131 432.924 133.581" stroke="none" fill="black" fill-rule="evenodd"/>
</svg>