<svg xmlns="http://www.w3.org/2000/svg" width="667" height="667" viewBox="0 0 667 667" version="1.1">
	<path d="M 273.272 114.437 C 254.514 118.982, 238.909 134.556, 234.540 153.093 C 233.393 157.960, 233.026 165.929, 233.015 186.250 L 233 213 174.750 213.026 C 117.109 213.051, 116.431 213.075, 109.942 215.287 C 95.562 220.190, 84.160 229.960, 77.662 242.949 C 72.855 252.558, 71.897 258.209, 72.221 275.037 L 72.500 289.481 201.652 337.827 L 330.804 386.172 465.152 335.836 L 599.500 285.500 599.789 276.166 C 600.695 246.865, 587.905 225.621, 563.500 215.892 L 557.500 213.500 498 213 L 438.500 212.500 437.985 183 C 437.501 155.325, 437.329 153.151, 435.202 147.854 C 428.294 130.653, 414.681 118.494, 397.907 114.540 C 389.285 112.508, 281.601 112.419, 273.272 114.437 M 281.388 155.980 C 280.227 156.449, 278.314 158.057, 277.138 159.552 C 275.082 162.166, 275 163.238, 275 187.635 L 275 213 335.500 213 L 396 213 396 187.400 L 396 161.800 392.600 158.400 L 389.200 155 336.350 155.063 C 307.282 155.098, 282.550 155.511, 281.388 155.980 M 478 379.359 L 357.500 424.554 357 448.608 L 356.500 472.662 353.500 477.491 C 349.138 484.511, 344.874 486.416, 332.555 486.850 C 321.404 487.242, 316.558 486.181, 312.009 482.354 C 305.819 477.145, 305.548 475.864, 305 449.109 L 304.500 424.718 190 381.853 C 127.025 358.277, 74.713 338.735, 73.750 338.426 C 72.090 337.894, 72 344.250, 72 462.433 L 72 587 336 587 L 600 587 600 460.500 C 600 390.925, 599.663 334.037, 599.250 334.082 C 598.837 334.127, 544.275 354.502, 478 379.359" stroke="none" fill="black" fill-rule="evenodd"/>
</svg>