<svg xmlns="http://www.w3.org/2000/svg" width="667" height="667" viewBox="0 0 667 667" version="1.1">
	<path d="M 151.289 132.509 C 137.261 135.557, 122.423 146.089, 114.172 158.855 C 108.178 168.128, 105.871 175.703, 105.294 188 C 104.396 207.137, 109.619 220.754, 122.946 234.018 C 134.949 245.964, 148.141 251.424, 165 251.424 C 182.168 251.424, 195.078 245.992, 207.521 233.532 C 220.825 220.210, 225.608 207.697, 224.729 188.519 C 224.113 175.100, 221.802 167.863, 214.780 157.363 C 201.164 137.005, 175.974 127.144, 151.289 132.509 M 386.500 138.623 C 367.523 141.501, 353.622 145.684, 338.842 152.966 C 328.407 158.107, 313 167.843, 313 169.297 C 313 169.790, 316.938 174.973, 321.750 180.814 C 326.563 186.655, 331.187 192.273, 332.026 193.300 C 333.494 195.095, 333.761 195.024, 339.026 191.439 C 346.878 186.093, 363.038 178.558, 373.500 175.365 C 381.755 172.846, 383.906 172.614, 399.500 172.559 C 416.234 172.501, 416.649 172.552, 426 175.810 C 436.689 179.533, 444.761 183.778, 453.772 190.411 L 459.907 194.927 470.558 182.408 C 483.018 167.764, 483.179 169.592, 468.565 159.816 C 453.521 149.754, 440.205 143.975, 423.858 140.416 C 416.719 138.861, 392.572 137.703, 386.500 138.623 M 491.500 245.018 L 464.500 316.995 387.750 316.997 L 311 317 311 330.500 L 311 344 397.250 343.995 L 483.500 343.990 513.360 264.504 C 529.783 220.786, 543.283 184.298, 543.360 183.418 C 543.462 182.257, 540.347 180.625, 532 177.463 C 525.675 175.067, 520.050 173.092, 519.500 173.074 C 518.950 173.056, 506.350 205.431, 491.500 245.018 M 382.561 191.650 C 374.262 193.429, 365.993 196.685, 357.645 201.461 C 346.801 207.664, 347.071 207.119, 351.820 213.217 C 354.082 216.123, 357.641 220.462, 359.730 222.861 L 363.527 227.222 370.079 223.621 C 383.365 216.318, 395.647 213.751, 406.533 216.002 C 412.605 217.257, 422.092 221.530, 427.209 225.313 L 430.041 227.406 433.199 223.575 C 434.935 221.468, 438.538 217.214, 441.204 214.122 L 446.051 208.500 442.276 205.173 C 436.885 200.423, 421.705 193.207, 413.500 191.495 C 404.683 189.656, 391.561 189.721, 382.561 191.650 M 390.500 237.412 C 384.945 239.880, 380.974 245.916, 381.022 251.815 C 381.059 256.310, 384.512 262.535, 388.250 264.845 C 390.577 266.284, 393.360 266.999, 396.618 266.996 C 405.789 266.989, 411.989 260.735, 411.996 251.482 C 412.005 240.168, 400.800 232.834, 390.500 237.412 M 159.195 276.045 C 149.516 277.999, 141.726 283.966, 136.793 293.205 L 134.500 297.500 134.225 370.819 C 133.952 443.463, 133.969 444.172, 136.028 447.836 C 137.171 449.870, 139.736 452.652, 141.729 454.017 L 145.351 456.500 190.175 456.789 C 214.829 456.948, 235 457.287, 235 457.543 C 235 458.271, 256.954 582.222, 257.538 584.792 L 258.059 587.084 276.280 586.406 C 286.301 586.033, 294.649 585.603, 294.831 585.450 C 295.014 585.296, 289.965 557.114, 283.612 522.823 C 277.258 488.531, 271.598 457.216, 271.033 453.233 C 269.122 439.756, 262.601 430.392, 251.223 424.787 L 244.552 421.500 220.276 421.186 L 196 420.871 195.999 360.186 L 195.998 299.500 193.141 293.460 C 187.091 280.671, 172.743 273.311, 159.195 276.045 M 275.791 356.981 C 268.585 359.173, 262.979 366.893, 263.022 374.566 C 263.047 379.033, 265.782 385.669, 268.645 388.212 C 274.002 392.969, 274.428 393, 333.968 393 L 390 393 390 490 L 390 587 408 587 L 426 587 426 490 L 426 393 486.250 392.978 C 542.933 392.957, 546.744 392.845, 550.616 391.087 C 556.741 388.305, 560.295 383.067, 560.801 376.074 C 561.331 368.747, 558.659 363.126, 552.804 359.251 L 548.647 356.500 413.573 356.329 C 339.283 356.234, 277.281 356.528, 275.791 356.981" stroke="none" fill="black" fill-rule="evenodd"/>
</svg>