<svg xmlns="http://www.w3.org/2000/svg" width="667" height="667" viewBox="0 0 667 667" version="1.1">
	<path d="M 273.500 160.426 C 271.300 161.750, 268.600 164.333, 267.500 166.166 C 265.536 169.439, 265.500 171.278, 265.500 267.073 L 265.500 364.646 268.161 368.667 C 273.447 376.655, 257.447 376, 447.253 376 L 616.704 376 620.078 373.726 C 621.934 372.476, 624.476 369.934, 625.726 368.078 L 628 364.704 628 267 L 628 169.296 625.726 165.922 C 624.476 164.066, 621.934 161.524, 620.078 160.274 L 616.704 158 447.102 158.009 L 277.500 158.019 273.500 160.426 M 127 161.362 C 113.849 164.219, 102.448 173.268, 96.282 185.743 C 92.910 192.568, 92.523 194.194, 92.167 203.045 C 91.841 211.179, 92.147 213.931, 93.999 219.497 C 98.130 231.910, 108.898 242.966, 121.363 247.593 C 125.218 249.024, 129.134 249.500, 137.053 249.500 C 147.216 249.500, 147.881 249.363, 155.053 245.797 C 164.473 241.114, 168.817 237.489, 173.542 230.370 C 179.299 221.697, 181.229 214.387, 180.800 202.888 C 180.474 194.184, 180.089 192.564, 176.718 185.743 C 170.341 172.841, 158.325 163.628, 144.566 161.093 C 137.346 159.763, 134.137 159.812, 127 161.362 M 120.300 258.813 C 114.042 261.034, 107.550 265.385, 104.372 269.488 C 99.349 275.971, 46.581 348.675, 44.848 351.500 C 43.836 353.150, 43.006 356.153, 43.004 358.173 C 42.994 367.737, 57.051 374.767, 64.144 368.745 C 65.599 367.510, 73.474 356.618, 81.644 344.540 L 96.500 322.581 97 435.540 C 97.395 524.734, 97.769 548.971, 98.780 550.740 C 102.741 557.673, 116.595 557.700, 121.439 550.783 C 122.819 548.814, 123 540.108, 123 475.777 L 123 403 135.981 403 L 148.962 403 149.231 475.981 L 149.500 548.962 152.769 552.231 C 155.787 555.248, 156.536 555.500, 162.500 555.500 C 168.464 555.500, 169.213 555.248, 172.231 552.231 L 175.500 548.962 176 436.405 L 176.500 323.849 180.784 329.924 L 185.069 336 210.300 336 C 238.455 336, 240.216 335.642, 244.750 329.001 C 247.482 324.999, 247.598 321.584, 245.158 317.035 C 241.685 310.559, 238 309.545, 216.500 309.155 L 197.500 308.810 192.870 302.655 C 190.323 299.270, 184.370 291.325, 179.641 285 C 166.846 267.888, 162.651 263.467, 156.203 260.301 C 151.014 257.752, 149.373 257.476, 138 257.233 C 127.900 257.017, 124.502 257.321, 120.300 258.813 M 313.762 407.942 C 289.390 415.733, 276.567 442.351, 285.400 466.816 C 287.230 471.887, 289.949 476.041, 294.907 481.342 C 318.210 506.261, 359.934 496.588, 370.105 463.909 C 377.475 440.231, 363.782 414.561, 340.068 407.595 C 332.861 405.478, 320.979 405.635, 313.762 407.942 M 433.487 407.799 C 420.913 412.147, 412.156 419.859, 406.269 431.771 C 402.583 439.229, 402.501 439.639, 402.549 450.448 C 402.589 459.397, 403.014 462.546, 404.787 467 C 409.559 478.990, 421.729 490.121, 433.952 493.674 C 441.681 495.921, 453.999 495.669, 461.278 493.116 C 472.917 489.032, 483.278 479.515, 487.950 468.617 C 498.420 444.192, 485.405 415.765, 460.187 407.976 C 452.108 405.481, 440.416 405.403, 433.487 407.799 M 551.856 408.316 C 540.045 412.342, 531.079 420.332, 525.862 431.481 C 516.243 452.036, 522.674 475.048, 541.695 488.134 C 553.954 496.568, 571.835 497.721, 585.665 490.968 C 602.755 482.625, 611.936 466.574, 610.728 447.154 C 608.933 418.281, 579.529 398.884, 551.856 408.316 M 314.500 502.925 C 299.975 505.295, 288.151 515.416, 283.881 529.136 C 282.256 534.355, 282 538.503, 282 559.589 L 282 584 327 584 L 372 584 372 559.159 C 372 531.376, 371.510 528.354, 365.554 519.384 C 361.375 513.089, 354.672 507.856, 347.092 504.969 C 340.984 502.643, 323.102 501.522, 314.500 502.925 M 433.800 503.080 C 417.890 505.413, 404.718 518.675, 402.064 535.034 C 401.487 538.590, 401.012 551.063, 401.008 562.750 L 401 584 446.575 584 L 492.149 584 491.792 558.250 C 491.458 534.175, 491.285 532.124, 489.133 526.715 C 486.134 519.181, 477.882 510.246, 470.655 506.707 C 461.995 502.467, 447.624 501.053, 433.800 503.080 M 553.694 503.093 C 542.339 504.754, 530.201 513.755, 525.095 524.304 C 521.744 531.226, 521 538.010, 521 561.636 L 521 584 566.587 584 L 612.174 584 611.789 558.250 C 611.426 534.030, 611.263 532.144, 609.039 526.500 C 606.189 519.267, 596.949 509.539, 589.753 506.197 C 581.605 502.413, 566.963 501.152, 553.694 503.093" stroke="none" fill="black" fill-rule="evenodd"/>
</svg>