<svg xmlns="http://www.w3.org/2000/svg" width="667" height="667" viewBox="0 0 667 667" version="1.1">
	<path d="M 324.883 40.047 C 281.166 43.941, 244.142 66.603, 229.413 98.481 C 224.972 108.094, 223.040 117.038, 223.017 128.090 C 222.960 156.223, 239.228 180.885, 269.750 198.939 C 273.738 201.298, 277 203.324, 277 203.440 C 277 203.557, 270.953 210.809, 263.562 219.556 C 256.172 228.302, 250.277 235.610, 250.463 235.796 C 250.649 235.982, 267.158 231.652, 287.151 226.174 L 323.500 216.213 341.500 215.677 C 361.328 215.087, 371.105 213.410, 386.500 207.958 C 436.425 190.280, 462.890 148.486, 450.429 107 C 444.003 85.606, 423.434 63.925, 398.742 52.516 C 383.211 45.341, 369.049 41.721, 349.860 40.023 C 337.483 38.927, 337.449 38.927, 324.883 40.047 M 323.500 71.954 C 322.400 72.409, 320.382 73.984, 319.016 75.454 C 316.934 77.695, 316.472 79.329, 316.157 85.563 L 315.781 93 303.641 93.022 C 293.883 93.040, 290.679 93.417, 287.316 94.943 C 282.217 97.258, 279.770 101.483, 280.195 107.235 L 280.500 111.358 309.398 122.174 L 338.295 132.990 368.398 121.685 L 398.500 110.379 398.837 106.940 C 399.317 102.038, 396.484 97.413, 391.536 95.018 C 388.056 93.333, 385.360 93, 375.184 93 L 363 93 363 87.468 C 363 80.330, 360.952 75.551, 356.810 73.026 C 353.891 71.246, 351.846 71.015, 339.500 71.067 C 331.800 71.100, 324.600 71.499, 323.500 71.954 M 326.695 81.638 C 326.313 82.021, 326 84.733, 326 87.667 L 326 93 339.550 93 L 353.100 93 352.800 87.250 L 352.500 81.500 339.945 81.222 C 333.040 81.068, 327.077 81.256, 326.695 81.638 M 370.750 131.169 L 344 141.246 344 146.923 C 344 153.387, 342.902 155, 338.500 155 C 334.102 155, 333 153.387, 333 146.952 L 333 141.304 307.750 131.976 C 293.863 126.845, 281.938 122.454, 281.250 122.217 C 280.269 121.879, 280 127.844, 280 149.893 L 280 178 339.500 178 L 399 178 399 149.500 C 399 133.825, 398.663 121.021, 398.250 121.046 C 397.837 121.072, 385.462 125.627, 370.750 131.169 M 168.459 195.395 C 152.164 199.354, 138.735 212.791, 134.989 228.886 C 134.223 232.177, 133.940 237.564, 134.263 242.732 C 136.620 280.510, 183.465 297.668, 210.481 270.649 C 220.307 260.822, 225.148 245.943, 222.965 232.279 C 218.843 206.477, 193.482 189.316, 168.459 195.395 M 482 195.098 C 474.807 196.503, 465.269 201.775, 459.522 207.522 C 441.982 225.062, 442.177 253.577, 459.956 271 C 474.324 285.080, 495.412 287.976, 513.174 278.309 C 519.075 275.097, 527.952 265.972, 531.027 259.955 C 548.225 226.315, 519.144 187.844, 482 195.098 M 162.863 292.567 C 152.482 295.763, 150.560 297.913, 117.246 343.579 C 100.025 367.186, 85.661 387.574, 85.325 388.887 C 82.768 398.883, 96.848 409.077, 105.437 403.449 C 106.739 402.596, 114.711 391.762, 123.152 379.374 L 138.500 356.849 139 469.675 C 139.551 594.094, 139.047 585.371, 145.881 588.614 C 150.215 590.670, 158.187 590.034, 161.148 587.396 C 166.046 583.032, 166 583.784, 166 508.032 L 166 437 178.500 437 L 191 437 191 508.032 C 191 586.318, 190.828 584.096, 197.190 587.974 C 203.427 591.777, 212.886 589.849, 216.294 584.080 C 217.875 581.403, 218 572.945, 218 468.856 L 218 356.521 222.521 363.261 L 227.042 370 252.053 370 C 279.616 370, 281.585 369.658, 286.297 364.059 C 291.175 358.261, 289.008 349.232, 281.794 345.302 C 279.055 343.810, 275.215 343.423, 259.014 343.004 L 239.527 342.500 223.512 321.204 C 206.530 298.623, 203.056 295.282, 193.652 292.489 C 187.207 290.575, 169.185 290.621, 162.863 292.567 M 475.314 292.808 C 467.922 295.433, 462.374 299.401, 458.693 304.697 C 456.937 307.224, 449.767 316.841, 442.759 326.069 L 430.019 342.847 410.759 343.173 C 394.521 343.449, 390.983 343.782, 388.206 345.299 C 380.991 349.238, 378.825 358.262, 383.703 364.059 C 388.412 369.655, 390.393 370, 417.845 370 L 442.755 370 447.377 363.305 L 452 356.610 452 468.855 C 452 592.734, 451.597 585.157, 458.357 588.365 C 466.078 592.029, 475.276 588.985, 477.694 581.965 C 478.572 579.414, 478.902 559.834, 478.944 507.750 L 479 437 491.481 437 L 503.962 437 504.231 509.981 L 504.500 582.962 507.769 586.231 C 510.787 589.248, 511.536 589.500, 517.500 589.500 C 523.464 589.500, 524.213 589.248, 527.231 586.231 L 530.500 582.962 531 469.906 L 531.500 356.850 546.763 379.377 C 555.157 391.767, 563.020 402.601, 564.235 403.452 C 569.599 407.209, 580.021 403.728, 583.489 397.021 C 586.167 391.842, 585.412 388.786, 579.371 380.355 C 555.546 347.109, 522.927 303.054, 520.110 300.318 C 518.227 298.490, 514.170 295.758, 511.093 294.247 C 506.032 291.761, 504.311 291.475, 493 291.233 C 482.911 291.018, 479.500 291.321, 475.314 292.808" stroke="none" fill="black" fill-rule="evenodd"/>
</svg>