<svg xmlns="http://www.w3.org/2000/svg" width="667" height="667" viewBox="0 0 667 667" version="1.1">
	<path d="M 421.168 54.154 C 404.710 56.510, 385.959 65.339, 372.938 76.863 C 361.139 87.304, 350.504 104.314, 345.967 120 C 343.259 129.367, 342.145 151.853, 343.924 161.258 C 348.775 186.906, 363.223 208.401, 385.291 222.802 C 414.532 241.884, 455.447 241.702, 484.626 222.360 C 508.046 206.836, 523.357 181.628, 525.852 154.488 C 528.465 126.068, 519.196 99.909, 499.610 80.428 C 478.573 59.502, 450.195 49.997, 421.168 54.154 M 161.539 123.044 C 123.974 128.946, 93.221 158.166, 85.588 195.208 C 83.542 205.137, 83.542 222.863, 85.588 232.792 C 89.049 249.587, 97.306 265.225, 109.363 277.819 C 143.666 313.647, 201.634 315.402, 237.660 281.702 C 262.304 258.648, 272.550 225.344, 265.057 192.647 C 257.739 160.710, 230.860 133.370, 198.500 124.950 C 189.290 122.554, 170.747 121.598, 161.539 123.044 M 407.500 253.480 C 391.003 257.112, 377.136 266.072, 367.235 279.500 C 364.801 282.800, 354.234 295.250, 343.753 307.167 C 327.037 326.172, 324.254 328.913, 321.098 329.477 C 303.502 332.620, 273.314 341.012, 259.687 346.549 L 253.736 348.967 245.325 341.006 C 235.569 331.771, 223.006 324.896, 211.500 322.495 C 202.897 320.700, 149.698 320.392, 140.434 322.083 C 127.200 324.500, 112.606 332.369, 102.874 342.337 L 97.412 347.931 85.227 344.524 C 74.792 341.605, 52.486 336.492, 35.750 333.182 L 31 332.242 31.015 342.871 C 31.024 348.717, 31.917 392.425, 33 440 C 34.083 487.575, 34.976 530.184, 34.985 534.686 L 35 542.872 50.250 542.928 C 96.194 543.097, 143.330 558.855, 178.304 585.739 L 184.109 590.201 189.804 584.802 C 207.325 568.196, 242.350 554.513, 282.500 548.591 C 294.230 546.860, 316.673 545, 325.819 545 L 332.237 545 331.493 476 C 330.769 408.932, 330.801 406.999, 332.624 406.963 C 333.812 406.940, 337.984 402.471, 344 394.779 L 353.500 382.633 353.759 435.316 L 354.018 488 435 488 L 515.982 488 516.241 437.057 L 516.500 386.113 545.491 428.685 C 562.096 453.069, 576.144 472.679, 578.372 474.586 C 583.545 479.014, 591.119 480.778, 598.072 479.173 C 603.489 477.922, 613.563 471.642, 616.846 467.468 C 622.075 460.821, 623.439 449.595, 619.884 442.470 C 619.065 440.828, 593.632 405.513, 563.366 363.992 C 533.100 322.472, 507.491 287.150, 506.458 285.500 C 495.706 268.330, 479.796 256.969, 461.634 253.494 C 451.570 251.569, 416.224 251.559, 407.500 253.480 M 300.500 342.445 C 253.216 354.625, 216.922 372.712, 192.250 396.393 L 187 401.432 187 488.216 C 187 535.947, 187.165 575, 187.368 575 C 187.570 575, 190.832 572.908, 194.618 570.350 C 220.877 552.609, 259.935 541.400, 307.880 537.845 L 324.259 536.631 323.625 480.065 C 323.276 448.954, 322.709 404.262, 322.364 380.750 C 321.738 338.053, 321.734 338, 319.619 338.033 C 318.453 338.051, 309.850 340.037, 300.500 342.445 M 38.999 345.731 C 38.994 357.330, 43.098 532.665, 43.393 533.500 C 43.589 534.055, 48.360 534.619, 54.123 534.767 C 95.747 535.839, 137.892 548.718, 170.956 570.471 C 175.578 573.512, 179.504 576, 179.680 576 C 179.856 576, 180 536.606, 180 488.457 L 180 400.914 175.295 395.884 C 158.075 377.474, 109.002 357.068, 53 345.029 C 47.775 343.906, 42.487 342.756, 41.250 342.474 C 39.224 342.013, 39 342.337, 38.999 345.731" stroke="none" fill="black" fill-rule="evenodd"/>
</svg>