<svg xmlns="http://www.w3.org/2000/svg" width="667" height="667" viewBox="0 0 667 667" version="1.1">
	<path d="M 378.431 33.056 C 341.661 36.625, 309.674 56.054, 297.030 82.500 C 294.926 86.900, 292.635 92.975, 291.939 96 C 290.407 102.658, 290.318 117.095, 291.777 122.250 C 292.361 124.313, 292.722 126, 292.579 126 C 292.437 126, 288.760 125.058, 284.410 123.906 C 278.710 122.398, 273.286 121.792, 265 121.737 C 251.566 121.648, 243.318 123.034, 233.162 127.084 C 199.275 140.597, 187 172.658, 205.938 198.189 C 210.266 204.024, 217.565 210.183, 226.450 215.500 C 227.894 216.364, 227.093 217.719, 220.541 225.494 C 216.373 230.440, 213.361 234.620, 213.848 234.783 C 214.335 234.945, 223.711 232.585, 234.683 229.539 C 250.778 225.070, 256.091 224, 262.185 224 C 284.770 224, 305.488 215.881, 318.347 201.992 C 324.871 194.945, 328.455 187.796, 330.047 178.649 C 330.693 174.941, 331.509 172.060, 331.861 172.247 C 349.578 181.655, 366.917 185.964, 389.801 186.648 L 405.103 187.105 436.150 195.621 C 453.225 200.305, 467.376 203.958, 467.595 203.738 C 467.814 203.519, 462.820 197.216, 456.497 189.732 C 450.174 182.247, 445 175.931, 445 175.697 C 445 175.462, 448.488 173.225, 452.750 170.725 C 470.978 160.036, 483.335 145.372, 489.596 127 C 492.407 118.752, 492.249 100.864, 489.282 91.500 C 486.219 81.834, 480.747 72.907, 472.568 64.235 C 456.078 46.750, 431.522 35.702, 403.173 33.014 C 391.489 31.906, 390.257 31.908, 378.431 33.056 M 111.782 178.553 C 97.408 182.038, 82.367 194.080, 76.211 207.031 C 66.036 228.438, 70.097 253.097, 86.500 269.500 C 97.110 280.110, 109.979 285.298, 125.450 285.202 C 141.298 285.103, 153.971 279.413, 164.809 267.531 C 184.382 246.071, 183.594 213.594, 163 193 C 149.550 179.550, 130.192 174.090, 111.782 178.553 M 536 178.583 C 516.619 183.696, 500.950 199.385, 496.540 218.093 C 492.295 236.100, 496.876 254.218, 509 267.375 C 520.138 279.462, 532.653 285.103, 548.550 285.202 C 564.021 285.298, 576.890 280.110, 587.500 269.500 C 598.004 258.995, 603.008 246.741, 602.988 231.568 C 602.967 215.373, 598.567 204.535, 587.519 193.470 C 579.600 185.538, 571.457 180.791, 561.907 178.540 C 553.935 176.661, 543.218 176.678, 536 178.583 M 115.500 308.155 C 112.277 309.337, 106.321 313.449, 104.195 315.959 C 103.478 316.807, 101.795 319.750, 100.455 322.500 L 98.020 327.500 98.010 391.685 C 98.003 434.536, 98.353 456.805, 99.061 458.685 C 100.640 462.872, 105.935 467.887, 109.956 469.004 C 111.991 469.570, 129.529 469.991, 151.158 469.994 L 188.815 470 190.471 479.250 C 191.381 484.337, 196.042 510.550, 200.827 537.500 L 209.528 586.500 226.014 586.136 C 235.081 585.936, 242.644 585.642, 242.819 585.483 C 242.995 585.324, 238.427 559.613, 232.669 528.347 C 226.910 497.081, 221.923 468.212, 221.587 464.192 C 220.585 452.223, 215.398 444.379, 205.500 439.867 C 201.965 438.256, 198.511 438.041, 175.774 438.022 L 150.048 438 149.774 381.750 C 149.514 328.430, 149.399 325.297, 147.563 321.597 C 145.078 316.587, 140.350 311.878, 135.403 309.485 C 130.830 307.272, 119.898 306.542, 115.500 308.155 M 540.748 308.427 C 535.217 310.401, 530.404 314.457, 527.272 319.784 L 524.500 324.500 524 381 L 523.500 437.500 497 438 L 470.500 438.500 465.855 441.230 C 456.610 446.666, 453.380 452.529, 452.053 466.288 C 451.564 471.355, 446.581 500.166, 440.979 530.314 C 435.378 560.462, 430.953 585.273, 431.147 585.450 C 431.341 585.627, 438.899 585.936, 447.942 586.136 L 464.384 586.500 474.652 529 C 480.300 497.375, 484.938 471.163, 484.960 470.750 C 484.982 470.337, 501.988 469.997, 522.750 469.994 C 545.185 469.991, 561.981 469.577, 564.152 468.975 C 568.685 467.715, 574.674 461.290, 575.490 456.810 C 575.821 454.989, 575.959 424.700, 575.796 389.500 C 575.501 325.677, 575.494 325.489, 573.292 321.372 C 570.425 316.012, 563.163 309.665, 558.193 308.176 C 553.066 306.640, 545.449 306.749, 540.748 308.427 M 208.615 382.088 C 204.564 385.275, 203 389.209, 203.004 396.200 C 203.008 403.259, 205.029 407.662, 209.657 410.696 C 212.207 412.367, 216.265 412.521, 264.705 412.784 L 317 413.068 317 500.059 L 317 587.050 333.250 586.775 L 349.500 586.500 349.756 499.782 L 350.011 413.064 405.801 412.782 C 457.611 412.520, 461.786 412.371, 464.343 410.696 C 468.971 407.662, 470.992 403.259, 470.996 396.200 C 471 389.209, 469.436 385.275, 465.385 382.088 L 462.730 380 337 380 L 211.270 380 208.615 382.088" stroke="none" fill="black" fill-rule="evenodd"/>
</svg>