<svg xmlns="http://www.w3.org/2000/svg" width="667" height="667" viewBox="0 0 667 667" version="1.1">
	<path d="M 375 165.496 C 362.870 168.230, 356.201 172.596, 317.001 203.465 C 296.376 219.707, 279.404 233.334, 279.285 233.748 C 279.166 234.161, 282.087 236.525, 285.775 239 C 294.348 244.752, 307.275 257.645, 312.847 266 C 315.231 269.575, 317.549 272.500, 317.998 272.500 C 318.447 272.500, 334.870 259.759, 354.493 244.187 L 390.172 215.875 499.836 303.729 C 560.151 352.049, 610.613 392.352, 611.973 393.292 C 614.809 395.251, 621.715 395.543, 625.411 393.858 C 627.670 392.829, 644.934 373.424, 649.243 367.070 C 651.378 363.923, 651.561 355.973, 649.586 352.200 C 648.809 350.715, 629.712 334.650, 607.149 316.500 L 566.125 283.500 566.062 240.651 C 565.993 193.315, 565.988 193.268, 559.627 188.730 C 556.617 186.583, 555.548 186.490, 531 186.220 C 502.483 185.908, 500.877 186.221, 496.250 192.999 C 494.184 196.027, 494 197.426, 494 210.148 C 494 217.767, 493.745 224, 493.434 224 C 493.123 224, 481.311 214.628, 467.184 203.173 C 431.766 174.454, 427.894 171.893, 412.500 167.008 C 403.377 164.113, 384.512 163.353, 375 165.496 M 211.955 229.035 C 178.441 233.702, 149.601 254.595, 135.396 284.500 C 121.162 314.466, 122.606 350.510, 139.116 377.342 L 142.227 382.398 138.320 385.949 C 83.127 436.113, 19.019 495.664, 18.145 497.580 C 15.166 504.120, 17.970 512.041, 24.922 516.726 C 28.676 519.256, 35.118 519.721, 38.620 517.715 C 40.791 516.471, 160.398 406.782, 161.464 405.058 C 161.788 404.534, 164.942 406.124, 168.473 408.592 C 194.059 426.478, 228.277 430.822, 258.223 419.987 C 287.764 409.298, 310.255 384.959, 319.664 353.500 C 322.123 345.276, 322.357 343.035, 322.371 327.500 C 322.389 307.588, 320.915 300.579, 313.444 285.056 C 307.466 272.636, 302.077 265.256, 291.749 255.348 C 274.442 238.745, 253.262 229.863, 227.962 228.597 C 222.758 228.336, 215.555 228.533, 211.955 229.035 M 356.090 256.533 C 330.192 277.264, 322.988 283.518, 323.499 284.824 C 334.751 313.545, 334.608 342.461, 323.079 370.156 C 312.978 394.419, 290.603 416.183, 264.807 426.834 C 250.810 432.613, 241.307 434.396, 224.500 434.396 C 208.770 434.396, 199.456 432.826, 186.910 428.057 C 183.935 426.926, 181.158 426.001, 180.740 426.001 C 179.600 426, 180.935 561.687, 182.127 567 C 184.351 576.913, 192.871 585.474, 203 587.974 C 209.739 589.638, 574.134 587.652, 579 585.925 C 584.443 583.993, 590.814 579.238, 593.601 575.027 C 599.170 566.611, 599.064 568.757, 598.339 479.367 L 597.671 397.074 494.633 313.787 C 437.962 267.979, 391.087 230.369, 390.466 230.209 C 389.846 230.049, 374.376 241.895, 356.090 256.533 M 212.121 254.061 C 197.389 256.689, 185.469 262.844, 173.885 273.804 C 160.915 286.074, 153.656 299.932, 150.999 317.493 C 147.296 341.968, 157.939 368.463, 177.966 384.623 C 190.828 395.001, 203.876 399.874, 221.025 400.700 C 230.703 401.167, 233.909 400.916, 241.025 399.138 C 267.212 392.594, 286.456 374.595, 295.164 348.500 C 297.193 342.420, 297.495 339.594, 297.462 327 C 297.429 313.974, 297.152 311.687, 294.738 304.500 C 290.828 292.858, 285.610 284.620, 275.997 274.916 C 268.888 267.739, 265.939 265.569, 257.997 261.672 C 252.774 259.109, 245.800 256.307, 242.500 255.445 C 235.055 253.501, 219.286 252.783, 212.121 254.061 M 218.589 270.645 C 204.668 273.629, 191.328 281.549, 180.218 293.426 C 174.753 299.268, 170.249 305.742, 171.176 306.424 C 171.354 306.555, 173.604 307.813, 176.176 309.219 L 180.852 311.777 185.343 305.994 C 197.169 290.765, 215.641 281, 232.621 281 L 238.822 281 239.161 274.998 L 239.500 268.996 232.500 269.080 C 228.650 269.126, 222.390 269.830, 218.589 270.645" stroke="none" fill="black" fill-rule="evenodd"/>
</svg>