<svg xmlns="http://www.w3.org/2000/svg" width="667" height="667" viewBox="0 0 667 667" version="1.1">
	<path d="M 326.469 45.002 C 324.801 45.520, 322.389 46.920, 321.109 48.114 C 316.605 52.309, 316 55.620, 316 76.075 C 316 93.899, 315.880 95.167, 314.250 94.524 C 313.288 94.145, 308.450 92.876, 303.500 91.704 C 291.192 88.789, 260.849 88.574, 248 91.310 C 233.338 94.432, 216.964 100.506, 199.088 109.456 C 178.478 119.774, 174.603 121.354, 162.122 124.521 C 141.953 129.639, 119.546 129.977, 97.500 125.495 C 87.152 123.392, 67.910 116.993, 60.146 113.074 C 56.797 111.383, 52.494 110, 50.584 110 C 43.802 110, 39.141 117.108, 41.381 124.037 C 42.329 126.971, 43.723 128.141, 50.500 131.695 C 59.943 136.647, 78.612 143.016, 92.163 145.908 C 104.017 148.437, 123.975 150.340, 133.193 149.819 C 138.368 149.527, 139.931 149.737, 139.571 150.675 C 139.309 151.359, 118.313 191.424, 92.913 239.709 L 46.731 327.500 47.332 336.500 C 49.660 371.356, 70.885 404.615, 101.257 420.997 C 115.694 428.785, 128.924 432.077, 145.779 432.077 C 162.771 432.077, 174.172 429.470, 188.500 422.309 C 221.235 405.949, 244.107 369.809, 245.045 332.961 L 245.210 326.500 201.605 237.263 C 177.622 188.182, 158 147.832, 158 147.595 C 158 147.359, 160.363 146.668, 163.250 146.059 C 174.897 143.604, 189.341 138.103, 204.905 130.193 C 224.828 120.068, 232.208 117.082, 246.500 113.363 C 256.716 110.704, 258.783 110.505, 275.500 110.577 C 293.941 110.656, 301.516 111.846, 312.330 116.365 L 316 117.898 316 319.449 L 316 521 268.682 521 C 215.904 521, 214.717 521.127, 207.199 527.561 C 201.398 532.527, 197.849 538.952, 197.110 545.827 L 196.500 551.500 172.500 552 C 156.098 552.342, 147.816 552.892, 146.339 553.737 C 142.034 556.203, 140 561.142, 140.004 569.118 C 140.008 577.601, 141.896 581.747, 147.241 585.005 C 150.462 586.969, 152.657 586.993, 333.500 586.995 C 505.733 586.997, 516.705 586.894, 519.980 585.248 C 525.672 582.389, 528 577.890, 528 569.753 C 528 561.834, 526.189 557.041, 522.164 554.309 C 519.835 552.727, 516.482 552.437, 495.500 552 L 471.500 551.500 470.880 546.500 C 469.628 536.417, 464.452 528.862, 455.590 524.186 L 450.500 521.500 401.250 521.214 L 352 520.928 352 319.105 L 352 117.281 358.272 115.223 C 380.826 107.818, 406.698 108.306, 432 116.611 C 437.775 118.507, 450.148 123.932, 459.495 128.666 C 478.891 138.490, 485.410 141.119, 499.616 144.846 L 509.732 147.500 465.771 237.500 L 421.810 327.500 422.442 336.269 C 425.096 373.070, 448.028 407.388, 480.388 422.987 C 495.085 430.071, 502.075 431.508, 521.500 431.441 C 537.104 431.386, 539.239 431.155, 547.500 428.630 C 587.386 416.439, 616.330 379.652, 619.782 336.762 L 620.555 327.169 582.236 254.335 C 561.160 214.276, 540.140 174.293, 535.523 165.484 L 527.130 149.468 534.527 149.841 C 543.879 150.314, 562.573 148.519, 575.357 145.921 C 594.731 141.985, 620.636 131.821, 624.806 126.519 C 629.998 119.920, 625.255 110.074, 616.860 110.022 C 614.672 110.009, 610.369 111.409, 606.076 113.530 C 585.280 123.808, 554.153 130.087, 531.500 128.573 C 509.150 127.079, 493.535 122.322, 467.606 109.110 C 447.894 99.065, 432.921 93.810, 415.500 90.823 C 396.168 87.508, 367.482 89.224, 353.808 94.515 C 352.258 95.114, 352.090 93.445, 351.808 74.655 C 351.472 52.270, 351.291 51.546, 344.808 46.706 C 341.838 44.488, 331.281 43.507, 326.469 45.002 M 106.937 240.713 C 83.596 285.083, 64.355 321.974, 64.177 322.693 C 63.912 323.761, 78.936 324, 146.427 324 C 191.842 324, 229 323.776, 229 323.502 C 229 323.064, 150.068 160.858, 149.569 160.270 C 149.461 160.143, 130.277 196.343, 106.937 240.713 M 477.864 242.250 L 438.246 323.500 520.784 323.756 C 566.180 323.897, 603.466 323.867, 603.642 323.691 C 604.090 323.244, 518.720 161, 518.037 161 C 517.731 161, 499.653 197.563, 477.864 242.250" stroke="none" fill="black" fill-rule="evenodd"/>
</svg>