<svg xmlns="http://www.w3.org/2000/svg" width="667" height="667" viewBox="0 0 667 667" version="1.1">
	<path d="M 188.501 343.020 C 283.526 438.061, 319.711 473.640, 323 475.270 C 326.600 477.054, 329.201 477.497, 336 477.486 C 343.277 477.474, 345.219 477.088, 349.500 474.804 C 353.226 472.816, 387.498 439.120, 483.999 342.568 L 613.497 213 336 213 L 58.503 213 188.501 343.020 M 37.250 224.250 C 35.522 226.037, 32.846 230.200, 31.304 233.500 L 28.500 239.500 28.235 397.442 C 27.996 539.472, 28.130 555.944, 29.563 560.942 C 30.439 563.999, 31.806 567.511, 32.599 568.747 C 34.020 570.960, 34.610 570.539, 71.271 541.204 C 145.175 482.068, 204.677 435.253, 225.286 420.026 L 234.049 413.552 137.776 317.276 C 84.826 264.324, 41.254 221, 40.948 221 C 40.642 221, 38.978 222.463, 37.250 224.250 M 533.630 317.870 L 437.763 413.741 442.294 416.858 C 452.997 424.222, 531.786 486.177, 604.398 544.328 C 620.842 557.497, 635.017 568.323, 635.898 568.386 C 636.967 568.462, 638.067 566.838, 639.206 563.500 C 640.786 558.869, 640.913 546.751, 640.915 399.500 C 640.917 252.044, 640.793 240.159, 639.208 235.797 C 637.452 230.963, 631.645 222, 630.269 222 C 629.844 222, 586.356 265.142, 533.630 317.870 M 237.492 432.688 C 202.555 458.464, 47.475 581.915, 48.678 582.992 C 51.953 585.922, 59.379 586, 334.468 586 C 583.403 586, 613.188 585.836, 617.883 584.442 C 620.768 583.585, 622.987 582.487, 622.814 582.001 C 622.215 580.318, 478.875 466.564, 443.511 439.708 L 425.523 426.047 394.511 456.893 C 366.917 484.340, 362.769 488.083, 356.867 490.864 C 343.254 497.280, 328.445 497.277, 314.849 490.855 C 309.306 488.236, 304.562 483.931, 277.492 456.954 L 246.484 426.054 237.492 432.688" stroke="none" fill="black" fill-rule="evenodd"/>
</svg>