<svg xmlns="http://www.w3.org/2000/svg" width="667" height="667" viewBox="0 0 667 667" version="1.1">
	<path d="M 37.766 43.918 L 34.500 46.836 34.500 314.395 L 34.500 581.955 37.273 584.727 L 40.045 587.500 244 587.500 L 447.955 587.500 450.727 584.728 L 453.500 581.955 453.769 509.033 L 454.038 436.111 492.769 405.273 C 514.071 388.311, 543.822 364.774, 558.882 352.967 C 593.701 325.669, 637.806 288.056, 640.712 283.182 C 642.179 280.722, 643.255 276.566, 643.904 270.855 C 646.362 249.220, 638.812 233.178, 622.624 225.640 C 611.365 220.397, 597.479 219.185, 590.350 222.822 C 586.619 224.725, 543.673 257.600, 480 307.294 L 454.500 327.196 454 239.625 L 453.500 152.053 446.905 145.277 C 443.277 141.550, 419.953 117.009, 395.074 90.742 C 370.194 64.475, 349.004 42.537, 347.985 41.992 C 346.783 41.349, 292.519 41, 193.582 41 L 41.032 41 37.766 43.918 M 55 314.500 L 55 567 244 567 L 433 567 433 509.916 L 433 452.832 429.250 455.811 C 427.188 457.450, 421.225 462.211, 416 466.391 C 410.775 470.572, 405.938 473.994, 405.250 473.996 C 403.583 474.001, 403.722 470.110, 405.500 467 C 407.827 462.929, 407.363 457.585, 404.374 454.033 C 401.319 450.402, 397.131 448.141, 387.749 445.056 C 379.197 442.244, 378 440.578, 378 431.489 C 378 418.914, 373.114 412.859, 361.019 410.444 C 350.751 408.395, 349.726 409.451, 401.500 368.714 L 432.500 344.323 432.755 255.661 L 433.011 167 385.928 167 L 338.846 167 335.923 164.077 L 333 161.154 333 111.577 L 333 62 194 62 L 55 62 55 314.500 M 110.405 148.105 C 107.484 151.333, 107.752 159.571, 110.861 162.088 C 113.117 163.915, 115.501 164, 164.436 164 L 215.651 164 217.826 161.686 C 220.769 158.552, 220.867 150.867, 218 148 C 216.051 146.051, 214.667 146, 164.155 146 C 112.718 146, 112.295 146.017, 110.405 148.105 M 110.861 255.912 C 107.752 258.429, 107.484 266.667, 110.405 269.895 L 112.310 272 233.582 272 L 354.855 272 356.927 269.365 C 359.649 265.906, 359.649 260.094, 356.927 256.635 L 354.855 254 234.038 254 C 116.573 254, 113.156 254.053, 110.861 255.912 M 550 258.626 C 547.525 260.560, 545.101 262.532, 544.614 263.007 C 543.823 263.779, 560.385 285.153, 583.051 312.612 L 590.602 321.760 596.636 316.580 L 602.670 311.401 579.395 283.471 C 566.594 268.109, 555.756 255.443, 555.311 255.325 C 554.865 255.207, 552.475 256.692, 550 258.626 M 110.405 320.105 C 107.484 323.333, 107.752 331.571, 110.861 334.088 C 113.156 335.947, 116.567 336, 233.656 336 L 354.091 336 356.545 333.545 C 359.710 330.381, 359.887 324.397, 356.927 320.635 L 354.855 318 233.582 318 L 112.310 318 110.405 320.105 M 110.667 383.816 C 106.982 387.887, 107.800 396.752, 112.071 399.038 C 113.187 399.635, 151.179 400, 212.246 400 C 309.867 400, 310.640 399.984, 312.811 397.961 C 314.532 396.358, 315 394.787, 315 390.616 C 315 381.169, 324.949 382, 211.826 382 C 116.949 382, 112.233 382.085, 110.667 383.816 M 341.419 421.015 C 339.724 421.540, 337.646 422.764, 336.802 423.735 C 335.957 424.706, 327.302 441.314, 317.567 460.641 C 301.465 492.613, 299.930 496.108, 300.547 499.397 C 301.344 503.647, 305.957 508, 309.664 508 C 313.408 508, 386.877 488.310, 389.468 486.613 C 392.790 484.436, 395.336 478.287, 395.808 471.301 C 396.151 466.215, 395.838 464.474, 394.063 461.602 C 391.198 456.967, 386.510 454.202, 379.360 452.931 C 369.356 451.152, 370.055 451.974, 370.243 442.195 C 370.454 431.281, 368.679 427.068, 362.295 423.327 C 357.361 420.435, 346.996 419.288, 341.419 421.015 M 112.282 498.206 C 107.645 500.445, 106.963 509.847, 111.162 513.646 C 113.100 515.401, 115.968 515.500, 164.693 515.500 L 216.177 515.500 218.088 513.139 C 220.960 509.593, 220.682 502.591, 217.545 499.455 L 215.091 497 164.795 497.068 C 131.227 497.113, 113.762 497.492, 112.282 498.206" stroke="none" fill="black" fill-rule="evenodd"/>
</svg>