<svg xmlns="http://www.w3.org/2000/svg" width="667" height="667" viewBox="0 0 667 667" version="1.1">
	<path d="M 533.500 19.145 C 517.236 21.218, 496.523 28.777, 484.322 37.091 C 467.313 48.681, 455.722 64.006, 451.522 80.460 C 449.835 87.065, 449.544 101.325, 450.969 107.472 C 451.475 109.656, 451.795 111.538, 451.680 111.653 C 451.565 111.768, 448.328 110.932, 444.486 109.795 C 438.847 108.126, 434.703 107.724, 423 107.710 C 410.098 107.695, 407.508 107.992, 399.500 110.398 C 362.951 121.380, 346.098 152.837, 362.292 179.851 C 366.183 186.340, 375.843 195.596, 382.276 198.998 C 384.874 200.372, 387 201.785, 387 202.138 C 387 202.492, 383.647 206.752, 379.550 211.607 C 375.452 216.461, 372.255 220.588, 372.445 220.778 C 372.635 220.968, 381.828 218.619, 392.875 215.559 C 410.296 210.733, 414.456 209.934, 424.230 209.535 C 445.988 208.648, 463.250 201.943, 475.577 189.591 C 483.807 181.344, 487.766 174.029, 489.293 164.245 L 490.345 157.500 496.923 160.753 C 512.002 168.212, 529.785 172.062, 551 172.460 L 564.500 172.714 595.460 181.313 C 612.488 186.043, 626.607 189.726, 626.836 189.498 C 627.064 189.269, 622.807 183.852, 617.376 177.460 C 602.003 159.368, 602.667 162.129, 612.270 156.228 C 630.550 144.997, 642.394 131.361, 648.085 115 C 651.147 106.196, 651.863 89.958, 649.588 80.932 C 639.210 39.762, 587.535 12.258, 533.500 19.145 M 255.912 167.445 C 243.320 170.918, 230.278 181.288, 224.281 192.594 C 205.682 227.660, 230.431 269.050, 269.960 268.988 C 298.864 268.943, 321.185 246.507, 321.185 217.500 C 321.185 194.412, 306.816 174.662, 285.145 167.964 C 277.747 165.678, 263.250 165.420, 255.912 167.445 M 249.190 292.026 C 242.870 295.879, 242.999 294.342, 243.006 365.218 C 243.009 404.320, 243.397 430.888, 243.996 433.044 C 245.113 437.065, 250.128 442.360, 254.315 443.939 C 256.162 444.635, 274.139 445, 306.565 445 C 333.754 445, 356 445.139, 356 445.310 C 356 445.998, 380.036 581.672, 380.547 583.869 L 381.098 586.238 396.799 585.513 C 405.434 585.115, 412.609 584.689, 412.743 584.568 C 413.508 583.874, 384.902 432.596, 383.412 429.456 C 380.989 424.349, 375.626 419.184, 370.089 416.623 C 365.726 414.604, 363.718 414.484, 329.250 414.173 L 293 413.847 293 372.423 C 293 349.641, 293.209 331, 293.465 331 C 293.721 331, 308.233 340.104, 325.715 351.231 C 362.210 374.459, 362.878 374.717, 366.750 367.038 C 371.094 358.423, 368.737 344.533, 361.882 338.352 C 358.129 334.968, 290.570 292.394, 286.951 291.133 C 285.066 290.476, 277.151 290.002, 268.101 290.004 C 254.217 290.007, 252.136 290.230, 249.190 292.026 M 194.500 344.014 C 170.911 348.851, 151.557 358.955, 134.153 375.517 C 105.451 402.831, 91.718 442.252, 97.433 480.927 C 101.478 508.306, 112.558 530.462, 132 550.050 C 156.772 575.007, 187.791 587.112, 223.387 585.711 C 273.576 583.736, 315.634 553.057, 333.608 505.310 C 336.396 497.901, 339.570 482.446, 340.498 471.750 L 341.171 464 326.234 464 L 311.296 464 310.685 471.750 C 307.636 510.424, 279.450 543.663, 241.212 553.678 C 229.237 556.815, 210.839 557.241, 199.257 554.651 C 171.688 548.484, 148.226 530.433, 136.027 506 C 128.780 491.487, 126 479.639, 126 463.274 C 126 439.354, 134.687 417.810, 151.447 400.167 C 167.339 383.436, 188.022 373.444, 210.889 371.449 L 219 370.742 219 356.371 L 219 342 211.250 342.084 C 206.988 342.131, 199.450 342.999, 194.500 344.014" stroke="none" fill="black" fill-rule="evenodd"/>
</svg>