<svg xmlns="http://www.w3.org/2000/svg" width="667" height="667" viewBox="0 0 667 667" version="1.1">
	<path d="M 402.500 188.657 C 368.036 192.758, 344.846 199.131, 319.500 211.466 C 277.676 231.819, 246.549 263.831, 233.641 299.766 C 226.846 318.684, 224.968 344.526, 228.977 363.953 C 230.049 369.152, 230.812 373.522, 230.671 373.663 C 230.530 373.804, 227.059 372.854, 222.957 371.551 C 168.836 354.367, 104.848 367.610, 68.764 403.462 C 36.507 435.513, 32.117 478.759, 57.494 514.500 C 65.927 526.378, 86.204 543.420, 99.250 549.595 C 101.313 550.572, 103 551.691, 103 552.082 C 103 552.474, 96.032 561.022, 87.515 571.079 C 78.998 581.135, 72.139 589.473, 72.273 589.606 C 72.407 589.740, 91.888 584.535, 115.564 578.039 L 158.612 566.229 167.580 566.740 C 178.436 567.359, 196.988 565.660, 209.887 562.866 C 248.530 554.493, 281.162 531.908, 296.436 502.963 C 300.901 494.500, 304.648 481.458, 305.535 471.287 L 306.240 463.215 319.178 469.512 C 326.294 472.976, 338.278 477.845, 345.808 480.331 C 373.867 489.598, 396.344 493, 429.498 493 L 450.508 493 514.392 510.529 C 549.528 520.170, 578.414 527.919, 578.583 527.750 C 578.753 527.581, 568.341 514.987, 555.446 499.764 C 542.550 484.541, 532 471.729, 532.001 471.293 C 532.002 470.857, 535.714 468.496, 540.251 466.047 C 585.292 441.733, 614.612 405.777, 623.632 363.796 C 626.087 352.369, 626.087 328.631, 623.632 317.204 C 615.781 280.666, 593.140 249.271, 557.500 225.503 C 528.035 205.854, 494.657 194.002, 456.006 189.466 C 444.815 188.153, 411.028 187.642, 402.500 188.657" stroke="none" fill="black" fill-rule="evenodd"/>
</svg>