<svg xmlns="http://www.w3.org/2000/svg" width="667" height="667" viewBox="0 0 667 667" version="1.1">
	<path d="M 76.266 149.083 C 63.700 153.073, 52.098 164.885, 48.005 177.855 C 46.031 184.112, 46 186.837, 46 352.605 L 46 521 333.500 521 L 621 521 621 355.184 C 621 239.494, 620.670 187.574, 619.907 183.434 C 617.367 169.648, 608.163 157.661, 595.197 151.253 L 587.604 147.500 335.052 147.302 C 85.872 147.107, 82.417 147.131, 76.266 149.083 M 83.997 178.244 C 81.357 179.582, 78.723 181.924, 77.523 184 C 75.520 187.466, 75.497 188.991, 75.237 339.250 L 74.975 491 332.997 491 L 591.019 491 590.759 338.573 C 590.500 186.384, 590.497 186.142, 588.438 183.385 C 587.304 181.866, 585.134 179.696, 583.615 178.562 L 580.853 176.500 334.651 176.244 L 88.448 175.988 83.997 178.244 M 313 252.437 C 287.822 256.950, 264.549 266.378, 243.267 280.685 C 238.720 283.742, 235 286.684, 235 287.223 C 235 287.989, 248.688 305.244, 254.442 311.731 C 255.287 312.684, 256.887 312.048, 261.517 308.922 C 270.260 303.018, 287.829 294.354, 297.899 290.980 C 313.674 285.695, 320.189 284.644, 337 284.673 C 350.452 284.696, 353.787 285.042, 362.242 287.290 C 377.532 291.356, 392.107 298.579, 404.924 308.441 L 410.740 312.917 421.405 300.310 L 432.071 287.704 429.834 285.324 C 423.821 278.923, 401.281 265.420, 387.584 260.013 C 371.231 253.558, 361.498 251.803, 340 251.430 C 326.662 251.199, 318.130 251.517, 313 252.437 M 318 313.503 C 307.460 315.635, 294.624 320.800, 285.255 326.680 C 280.440 329.701, 276.341 332.331, 276.147 332.523 C 275.877 332.790, 285.287 344.671, 291.045 351.332 C 291.440 351.790, 295.305 350.122, 299.632 347.626 C 323.635 333.781, 347.099 333.783, 367.752 347.632 C 375.355 352.731, 373.480 353.482, 383.901 341.162 C 387.315 337.126, 389.937 333.301, 389.729 332.662 C 389.064 330.622, 374.163 321.255, 366.525 318.075 C 362.467 316.386, 355.935 314.328, 352.008 313.502 C 343.415 311.694, 326.939 311.695, 318 313.503 M 323.610 367.308 C 317.895 370.851, 315.011 376.210, 315.005 383.300 C 314.999 389.882, 316.591 393.637, 320.939 397.295 C 330.306 405.177, 344.715 402.417, 349.879 391.750 C 353.859 383.529, 351.618 373.861, 344.469 368.409 C 341.386 366.057, 339.547 365.492, 334.110 365.223 C 328.519 364.947, 326.900 365.268, 323.610 367.308 M 18.174 555.250 C 18.477 570.652, 18.746 572.936, 20.684 576.568 C 23.277 581.428, 29.824 587.560, 34.860 589.847 C 38.214 591.370, 61.391 591.521, 330 591.764 C 536.341 591.952, 623.031 591.712, 626.740 590.946 C 633.746 589.497, 640.760 584.607, 644.471 578.583 L 647.500 573.666 647.813 555.833 L 648.126 538 521.196 538 L 394.266 538 391.614 542.008 C 388.302 547.011, 382.406 551.349, 376.798 552.908 C 373.698 553.769, 360.932 554.018, 331 553.801 C 290.399 553.507, 289.411 553.452, 285.372 551.292 C 281.457 549.198, 273 540.699, 273 538.859 C 273 538.385, 215.869 538, 145.417 538 L 17.835 538 18.174 555.250" stroke="none" fill="black" fill-rule="evenodd"/>
</svg>