<svg xmlns="http://www.w3.org/2000/svg" width="667" height="667" viewBox="0 0 667 667" version="1.1">
	<path d="M 76.266 149.083 C 63.700 153.073, 52.098 164.885, 48.005 177.855 C 46.031 184.112, 46 186.837, 46 352.605 L 46 521 333.500 521 L 621 521 621 355.184 C 621 239.494, 620.670 187.574, 619.907 183.434 C 617.367 169.648, 608.163 157.661, 595.197 151.253 L 587.604 147.500 335.052 147.302 C 85.872 147.107, 82.417 147.131, 76.266 149.083 M 83.997 178.244 C 81.357 179.582, 78.723 181.924, 77.523 184 C 75.520 187.466, 75.497 188.991, 75.237 339.250 L 74.975 491 332.997 491 L 591.019 491 590.759 338.573 C 590.500 186.384, 590.497 186.142, 588.438 183.385 C 587.304 181.866, 585.134 179.696, 583.615 178.562 L 580.853 176.500 334.651 176.244 L 88.448 175.988 83.997 178.244 M 288.020 324.128 L 288.040 400.500 293.283 395 C 296.166 391.975, 303.341 384.346, 309.227 378.047 C 315.112 371.748, 320.119 366.798, 320.353 367.047 C 320.587 367.296, 327.355 380.665, 335.395 396.755 L 350.011 426.010 361.926 420.037 L 373.840 414.065 362.420 385.537 C 356.139 369.847, 351 356.628, 351 356.161 C 351 355.695, 360.563 354.725, 372.250 354.007 C 383.938 353.288, 394.220 352.430, 395.099 352.100 C 396.263 351.663, 382.422 337.753, 344.251 301 C 315.405 273.225, 290.948 249.883, 289.902 249.128 C 288.037 247.783, 288 249.253, 288.020 324.128 M 18.174 555.250 C 18.477 570.652, 18.746 572.936, 20.684 576.568 C 23.277 581.428, 29.824 587.560, 34.860 589.847 C 38.214 591.370, 61.391 591.521, 330 591.764 C 536.341 591.952, 623.031 591.712, 626.740 590.946 C 633.746 589.497, 640.760 584.607, 644.471 578.583 L 647.500 573.666 647.813 555.833 L 648.126 538 521.196 538 L 394.266 538 391.614 542.008 C 388.302 547.011, 382.406 551.349, 376.798 552.908 C 373.698 553.769, 360.932 554.018, 331 553.801 C 290.399 553.507, 289.411 553.452, 285.372 551.292 C 281.457 549.198, 273 540.699, 273 538.859 C 273 538.385, 215.869 538, 145.417 538 L 17.835 538 18.174 555.250" stroke="none" fill="black" fill-rule="evenodd"/>
</svg>