<svg xmlns="http://www.w3.org/2000/svg" width="667" height="667" viewBox="0 0 667 667" version="1.1">
	<path d="M 312 125.074 C 233.022 131.453, 154.093 156.688, 79.823 199.307 C 51.343 215.649, 17.566 238.797, 18.200 241.539 C 18.365 242.253, 26.600 252.636, 36.500 264.612 C 46.400 276.588, 55.023 287.084, 55.663 287.935 C 56.682 289.291, 57.364 289.082, 61.163 286.248 C 83.508 269.582, 110.330 253.379, 140.019 238.614 C 192.166 212.679, 241.709 197.156, 295.482 189.905 C 317.097 186.990, 357.998 186.243, 380 188.361 C 458.166 195.886, 527.993 225.138, 596.013 278.854 C 603.225 284.549, 609.250 289.049, 609.403 288.854 C 609.555 288.659, 618.527 278.045, 629.340 265.266 C 640.153 252.487, 648.991 241.687, 648.981 241.266 C 648.970 240.845, 642.558 235.432, 634.731 229.238 C 560.346 170.373, 482.356 137.080, 394 126.470 C 377.902 124.537, 328.964 123.704, 312 125.074 M 323 312.038 C 297.664 313.712, 275.200 318.255, 249 327.003 C 215.776 338.095, 185.808 353.286, 158.740 372.755 C 151.824 377.729, 151.117 378.531, 152.240 380.125 C 152.933 381.108, 160.656 390.620, 169.402 401.261 L 185.304 420.608 198.941 411.554 C 249.532 377.965, 309.519 361.473, 360.789 367.058 C 400.071 371.337, 437.757 387.161, 471.680 413.620 C 476.180 417.129, 480.105 420, 480.403 420 C 481.195 420, 515 379.803, 515 378.861 C 515 377.618, 497.745 364.525, 484.738 355.898 C 435.843 323.467, 379.841 308.280, 323 312.038 M 318 462.576 C 290.372 469.832, 271 494.737, 271 523 C 271 551.651, 291.056 577.111, 318.750 583.614 C 328.097 585.809, 344.195 585.076, 353 582.055 C 366.252 577.507, 377.053 569.189, 384.856 557.524 C 392.715 545.773, 394.507 539.243, 394.465 522.500 C 394.433 509.654, 394.205 507.923, 391.690 501.500 C 384.061 482.013, 367.260 467.103, 347.745 462.502 C 339.887 460.649, 325.197 460.686, 318 462.576" stroke="none" fill="black" fill-rule="evenodd"/>
</svg>