<svg xmlns="http://www.w3.org/2000/svg" width="667" height="667" viewBox="0 0 667 667" version="1.1">
	<path d="M 210.641 25.571 C 206.892 26.769, 203.644 29.192, 196.425 36.176 C 185.236 47.001, 182.674 51.579, 182.572 60.934 C 182.425 74.331, 178.670 69.905, 255.619 147.011 L 324.988 216.521 285 256.500 L 245.012 296.479 175.256 226.864 C 97.990 149.754, 102.372 153.480, 89 153.519 C 80.098 153.544, 74.381 156.487, 64.890 165.929 C 54.440 176.326, 52.524 180.211, 52.524 191 C 52.524 197.972, 52.946 200.309, 54.870 204 C 56.469 207.067, 79.147 230.472, 126.100 277.515 L 194.984 346.531 169.990 371.510 C 156.244 385.248, 145.110 396.803, 145.248 397.187 C 145.703 398.447, 197.310 447.138, 205.625 454.151 C 245.518 487.802, 297.608 506.683, 345.064 504.694 C 360.749 504.037, 379.267 500.614, 392.602 495.908 C 408.642 490.246, 429.390 478.743, 439.380 469.972 L 442.760 467.004 500.002 526.002 C 531.485 558.451, 557.463 585, 557.732 585 C 558.735 585, 613 531.690, 613 530.704 C 613 530.139, 597.596 514.112, 578.769 495.088 C 559.942 476.065, 534.681 450.536, 522.634 438.357 L 500.731 416.214 506.282 407.857 C 523.351 382.160, 531.682 355.428, 532.727 323 C 534.167 278.323, 520.265 231.890, 493.153 190.819 C 481.359 172.953, 470.377 160.168, 447.599 137.783 L 425.500 116.067 399.995 141.531 L 374.490 166.996 305.495 97.977 C 256.949 49.415, 235.221 28.336, 232.186 26.859 C 226.548 24.115, 216.986 23.544, 210.641 25.571" stroke="none" fill="black" fill-rule="evenodd"/>
</svg>