<svg xmlns="http://www.w3.org/2000/svg" width="667" height="667" viewBox="0 0 667 667" version="1.1">
	<path d="M 148 51.779 C 139.477 56.421, 118.977 68.644, 113.537 72.326 C 99.769 81.648, 85.610 97.847, 77.985 113 C 64.462 139.875, 63.201 174.565, 74.696 203.500 C 85.279 230.142, 112.278 278.591, 137.388 316 C 167.731 361.205, 199.986 400.048, 239.130 438.520 C 294.006 492.454, 351.274 533.595, 418.738 567.548 C 449.464 583.011, 463.761 587.471, 486.518 588.691 C 521.584 590.570, 554.973 577.543, 578.524 552.793 C 596.733 533.657, 605.085 513.173, 602.149 494.852 C 600.987 487.606, 595.996 475.840, 592.188 471.370 C 590.935 469.898, 571.715 462.534, 530.057 447.562 C 474.905 427.740, 469.030 425.834, 461.439 425.299 C 456.473 424.948, 450.599 425.203, 446.819 425.933 C 427.561 429.654, 410.598 444.787, 404.464 463.719 L 402.419 470.031 392.459 462.797 C 330.102 417.507, 268.379 360.130, 228.090 310 C 209.558 286.941, 188.013 255.416, 189.778 253.941 C 190.175 253.609, 192.525 252.761, 195 252.057 C 219.786 245.007, 235.741 215.804, 228.396 190.932 C 224.734 178.529, 185.585 70.181, 183.436 66.500 C 180.334 61.187, 174.531 55.702, 169 52.854 C 162.809 49.667, 152.817 49.155, 148 51.779" stroke="none" fill="black" fill-rule="evenodd"/>
</svg>