<svg xmlns="http://www.w3.org/2000/svg" width="667" height="667" viewBox="0 0 667 667" version="1.1">
	<path d="M 289 203.117 C 273.389 203.956, 255.737 206.562, 245.422 209.551 C 202.746 221.918, 170.628 252.537, 152.623 298.018 C 148.274 309.003, 142.845 328.183, 141.449 337.489 L 140.798 341.834 133.649 343.561 C 111.012 349.030, 88.309 361.150, 72.236 376.348 C 48.751 398.554, 36.050 428.257, 34.328 465 C 32.299 508.300, 47.141 544.133, 76.163 566.002 C 92.249 578.123, 113.018 586.274, 134.500 588.896 C 140.755 589.659, 202.674 589.993, 337.500 589.991 C 503.077 589.989, 532.929 589.773, 541.252 588.518 C 576.410 583.219, 605.780 561.322, 623.210 527.415 C 637.290 500.024, 638.326 472.513, 626.186 448.370 C 616.676 429.459, 601.318 414.592, 573.872 397.729 C 571.707 396.398, 571.118 395.093, 570.526 390.307 C 569.371 380.987, 564.589 363.341, 560.144 352 C 545.881 315.613, 519.862 291.009, 486.500 282.364 C 473.961 279.114, 448.768 278.088, 434.734 280.256 L 425.969 281.609 422.371 275.055 C 415.927 263.314, 407.801 252.699, 397.050 241.980 C 367.856 212.870, 334.019 200.700, 289 203.117 M 272.874 229.936 C 244.534 233.820, 223.780 243.498, 205.880 261.177 C 183.710 283.073, 170.802 312.039, 164.492 354.056 C 163.638 359.742, 162.840 364.448, 162.719 364.514 C 162.599 364.580, 158.104 365.166, 152.732 365.817 C 135.275 367.931, 113.811 376.248, 99.567 386.417 C 91.046 392.500, 79 405.439, 74.191 413.672 C 64.154 430.859, 59.782 448.318, 59.712 471.500 C 59.666 487.071, 60.670 494.951, 64.110 506 C 72.171 531.889, 90.570 550.170, 117.928 559.476 C 133.258 564.690, 124.975 564.500, 337.500 564.500 L 535.500 564.500 544.228 562.274 C 570.181 555.655, 589.465 539.122, 602.041 512.706 C 607.192 501.888, 609.003 494.416, 608.988 484.040 C 608.966 467.758, 604.011 456.328, 591.087 442.740 C 582.196 433.394, 568.671 423.599, 554.879 416.519 L 547.257 412.607 546.604 404.053 C 544.911 381.880, 536.374 355.745, 525.680 340 C 503.615 307.514, 469.594 297.258, 421.659 308.643 C 415.696 310.059, 410.464 310.831, 410.032 310.359 C 409.600 309.887, 408.465 307.025, 407.510 304 C 402.863 289.275, 390.674 270.687, 377.267 257.878 C 363.146 244.386, 348.763 236.449, 329.074 231.284 C 315.851 227.815, 292.445 227.253, 272.874 229.936 M 324 324.114 C 320.975 324.599, 314.720 326.851, 310.100 329.120 C 295.226 336.425, 284.402 350.162, 280.082 367.216 L 278.237 374.500 271.368 375.013 C 263.622 375.592, 261.114 376.693, 258.392 380.709 C 256.594 383.362, 256.500 386.183, 256.500 437.598 C 256.500 496.962, 256.325 495.183, 262.555 499.034 C 265.636 500.938, 267.874 501, 333.418 501 C 408.110 501, 405.044 501.255, 409.040 494.701 C 410.912 491.632, 410.993 489.300, 410.996 438.200 C 411 380.269, 411.123 381.601, 405.385 377.088 C 403.280 375.432, 401.313 375, 395.884 375 C 389.229 375, 389.021 374.923, 388.432 372.250 C 385.089 357.090, 380.798 348.787, 371.505 339.498 C 358.351 326.349, 342.369 321.173, 324 324.114 M 326.734 345.034 C 314.338 348.133, 303.635 359.217, 300.454 372.250 L 299.783 375 333.392 375 C 371.283 375, 368.385 375.777, 364.929 366.541 C 359.373 351.691, 341.150 341.430, 326.734 345.034 M 330.333 411.108 C 325.398 412.520, 322 417.260, 322 422.732 C 322 426.772, 322.470 427.757, 326 431.115 L 330 434.920 330 444.960 L 330 455 333.500 455 L 337 455 337.006 444.750 L 337.013 434.500 340.048 432.773 C 342.965 431.112, 346 425.841, 346 422.433 C 346 419.377, 342.737 413.915, 340.115 412.583 C 335.967 410.474, 333.726 410.136, 330.333 411.108" stroke="none" fill="black" fill-rule="evenodd"/>
</svg>