<svg xmlns="http://www.w3.org/2000/svg" width="667" height="667" viewBox="0 0 667 667" version="1.1">
	<path d="M 370.765 43.041 C 329.701 46.453, 294.906 59.484, 265.539 82.450 C 255.161 90.566, 237.093 109.352, 229.734 119.678 C 220.241 132.998, 208.045 155.378, 209.491 156.824 C 209.775 157.109, 211.019 156.429, 212.254 155.314 C 224.635 144.137, 251.357 132.268, 272.741 128.449 C 284.314 126.382, 306.786 126.401, 318.500 128.488 C 375.551 138.652, 419.959 183.598, 429.527 240.860 C 431.617 253.371, 431.096 278.154, 428.494 290 C 418.224 336.751, 384.611 375.058, 340.473 390.312 C 323.456 396.193, 315.642 397.452, 296 397.477 C 282.733 397.495, 276.444 397.057, 270 395.669 C 261.203 393.774, 247.314 389.470, 240.715 386.594 L 236.931 384.944 238.833 388.722 C 245.499 401.960, 253.297 427.809, 256.414 447 C 262.438 484.093, 260.173 529.743, 250.562 564.953 C 249.744 567.953, 249.225 570.559, 249.411 570.744 C 249.896 571.230, 494.430 589.890, 494.854 589.474 C 495.048 589.283, 492.945 583.360, 490.181 576.313 C 478.391 546.261, 474.209 527.377, 475.297 509.099 C 476.308 492.103, 482.063 480.406, 491.295 476.580 C 496.015 474.624, 496.018 474.624, 520.758 477.043 C 535.493 478.485, 552.173 479.471, 562 479.482 C 577.953 479.499, 578.667 479.412, 583.540 476.839 C 589.672 473.603, 596.333 466.578, 599.299 460.220 C 601.391 455.734, 601.492 454.310, 601.345 431.500 C 601.260 418.300, 600.898 400.975, 600.541 393 C 599.741 375.168, 599.680 375.289, 610.486 373.410 C 629.314 370.136, 635.321 358.747, 629.690 337 C 626.299 323.905, 621.929 312.985, 613.705 297.064 C 609.852 289.604, 605.433 281.025, 603.885 278 C 597.896 266.300, 597.180 257.685, 598.061 208 C 598.347 191.867, 598.106 188.190, 596.179 179.266 C 585.978 132.033, 553.993 95.730, 498.500 68.401 C 472.854 55.771, 445.206 47.376, 418.500 44.110 C 406.027 42.585, 382.580 42.060, 370.765 43.041 M 272.500 146.014 C 255.175 149.567, 238.145 157.073, 224.893 166.997 C 216.675 173.151, 202.626 187.770, 197.500 195.500 C 177.023 226.382, 171.674 263.188, 182.579 298.171 C 184.007 302.752, 187.854 311.634, 191.128 317.910 C 194.402 324.185, 196.725 329.673, 196.290 330.104 C 195.856 330.536, 189.540 336.202, 182.255 342.695 C 142.443 378.180, 48.927 464.944, 47.574 467.651 C 44.123 474.558, 45.871 479.751, 54.344 487.764 C 59.479 492.621, 60.237 493, 64.805 493 C 68.380 493, 70.521 492.386, 72.615 490.761 C 76.302 487.899, 195.534 378.553, 207.500 367.061 C 221.878 353.251, 219.468 354.010, 228.792 360.359 C 261.598 382.697, 303.061 387.055, 340.430 372.092 C 374.565 358.423, 401.148 327.830, 410.636 291.294 C 413.783 279.177, 414.888 258.499, 413.058 245.981 C 407.440 207.560, 383.527 173.994, 349.500 156.765 C 339.222 151.561, 326.709 147.327, 316.119 145.470 C 304.505 143.433, 283.829 143.691, 272.500 146.014 M 284.500 169.139 C 253.480 173.066, 225.815 192.528, 211.891 220.218 C 205.501 232.926, 202.852 243.477, 202.262 258.581 C 201.871 268.581, 202.152 273.643, 203.453 280.066 C 210.582 315.246, 235.169 341.854, 270.500 352.624 C 278.591 355.090, 281.065 355.374, 295 355.433 C 308.212 355.490, 311.745 355.160, 318.933 353.196 C 351.986 344.164, 376.546 319.779, 386.213 286.395 C 388.171 279.632, 388.498 276.206, 388.495 262.500 C 388.490 245.366, 387.629 240.425, 382.337 227.173 C 378.106 216.576, 372.112 207.337, 363.618 198.320 C 347.837 181.565, 328.561 171.933, 305.026 169.041 C 295.563 167.878, 294.415 167.884, 284.500 169.139 M 286.600 196.085 C 267.175 200.857, 246.492 215.741, 234.679 233.449 L 232.045 237.398 236.772 240.182 C 239.373 241.713, 241.816 242.974, 242.202 242.983 C 242.588 242.992, 244.226 241.088, 245.842 238.750 C 254.047 226.884, 269.527 214.858, 282.862 209.991 C 290.962 207.035, 306.226 204.428, 310.570 205.258 C 312.779 205.680, 313.001 205.394, 313.014 202.111 C 313.021 200.125, 313.299 197.488, 313.630 196.250 C 314.227 194.025, 314.125 194.001, 304.367 194.072 C 298.216 194.118, 291.525 194.876, 286.600 196.085" stroke="none" fill="black" fill-rule="evenodd"/>
</svg>