<svg xmlns="http://www.w3.org/2000/svg" width="667" height="667" viewBox="0 0 667 667" version="1.1">
	<path d="M 175.258 23.010 C 143.528 26.308, 114.575 42.341, 99.928 64.724 C 93.112 75.141, 90.876 82.276, 90.284 95.500 C 89.706 108.400, 91.237 115.816, 96.582 126 C 112.218 155.794, 147.675 174, 190.062 174 C 200.684 174, 201.823 174.232, 232.085 182.571 C 249.193 187.286, 263.408 190.926, 263.673 190.660 C 263.938 190.395, 262.639 188.450, 260.785 186.339 C 258.932 184.228, 253.735 178.174, 249.238 172.886 L 241.061 163.272 249.781 157.975 C 260.384 151.534, 273.916 138.246, 279.288 129 C 285.230 118.773, 287.440 110.346, 287.420 98 C 287.404 88.910, 286.998 86.352, 284.391 78.956 C 274.792 51.717, 247.757 31.316, 212.426 24.648 C 201.959 22.673, 185.487 21.947, 175.258 23.010 M 174 69 L 174 85 158 85 L 142 85 142 100 L 142 115 158 115 L 174 115 174 131 L 174 147 188.500 147 L 203 147 203 131.025 L 203 115.050 219.250 114.775 L 235.500 114.500 235.500 100 L 235.500 85.500 219.250 85.225 L 203 84.950 203 68.975 L 203 53 188.500 53 L 174 53 174 69 M 319.105 190.583 C 310.974 192.769, 304.171 196.820, 297.379 203.519 C 287.736 213.031, 282.991 224.397, 283.012 237.932 C 283.034 251.889, 288.138 264.012, 297.922 273.344 C 321.474 295.809, 359.705 289.844, 375.251 261.279 C 387.568 238.649, 379.051 208.575, 356.623 195.503 C 346.221 189.441, 330.847 187.425, 319.105 190.583 M 241.267 228.139 C 233.588 230.299, 227.465 239.859, 229.821 246.010 C 230.345 247.380, 243.873 266.449, 259.883 288.387 L 288.992 328.274 288.992 453.832 L 288.992 579.389 291.407 583.038 C 294.804 588.172, 299.821 590.326, 307.147 589.796 C 313.399 589.343, 316.776 587.519, 320.438 582.616 C 322.456 579.913, 322.506 578.645, 322.774 522.927 L 323.048 466 331.538 466 L 340.027 466 339.983 522.583 C 339.940 578.081, 339.979 579.230, 342.007 582.512 C 346.768 590.214, 360.758 592.473, 368.262 586.750 C 375.501 581.228, 375 591.245, 375 451.989 L 375 326.780 397.697 295.640 C 410.181 278.513, 423.274 260.562, 426.793 255.749 C 436.349 242.678, 436.214 236.262, 426.249 229.943 C 420.844 226.515, 415.828 226.137, 411.717 228.848 C 410.186 229.858, 399.036 245.215, 386.939 262.976 C 374.842 280.737, 364.031 296.553, 362.914 298.121 L 360.882 300.974 355.691 298.237 C 350.576 295.540, 350.230 295.500, 331.998 295.500 C 313.887 295.500, 313.380 295.557, 308.012 298.214 C 304.367 300.018, 302.188 300.595, 301.514 299.935 C 300.956 299.390, 290.150 283.797, 277.500 265.286 C 264.850 246.775, 253.375 230.857, 252 229.913 C 248.652 227.614, 245.176 227.040, 241.267 228.139 M 293 426.531 C 293 430.924, 293.360 432.175, 294.750 432.610 C 305.443 435.953, 314.665 443.824, 321.382 455.343 L 325.264 462 331.095 462 L 336.925 462 340.881 456.175 C 346.398 448.051, 354.977 440.537, 363.082 436.730 L 369.960 433.500 369.980 427.250 L 370 421 331.500 421 L 293 421 293 426.531" stroke="none" fill="black" fill-rule="evenodd"/>
</svg>