<svg xmlns="http://www.w3.org/2000/svg" width="667" height="667" viewBox="0 0 667 667" version="1.1">
	<path d="M 324 37.005 C 261.699 42.210, 210.503 89.041, 199.380 151 C 197.104 163.678, 197.104 186.322, 199.380 199 C 208.483 249.705, 244.834 291.083, 294.090 306.808 C 309.873 311.846, 321.803 313.351, 340.892 312.712 C 358.457 312.124, 370.065 309.970, 384.071 304.697 C 430.940 287.054, 465.088 245.101, 472.545 196 C 483.367 124.746, 437.178 56.222, 367.481 40.131 C 359.575 38.306, 338.197 35.768, 334 36.156 C 333.175 36.232, 328.675 36.614, 324 37.005 M 189.286 337.451 C 179.699 340.447, 170.465 348.235, 165.929 357.151 C 164.259 360.434, 32.097 570.721, 22.573 585.250 L 20.770 588 63.635 587.980 L 106.500 587.961 134 541.303 L 161.500 494.645 161.760 541.322 L 162.020 588 335 588 L 507.980 588 508.240 541.497 L 508.500 494.993 536 541.475 L 563.500 587.956 605.809 587.978 C 639.398 587.995, 647.962 587.742, 647.360 586.750 C 646.943 586.063, 615.056 535.325, 576.499 474 C 537.942 412.675, 505.317 360.250, 503.997 357.500 C 500.764 350.760, 492.314 342.505, 485.268 339.203 C 479.506 336.503, 479.470 336.500, 452.337 336.192 L 425.174 335.884 427.995 344.692 C 429.547 349.536, 431.444 357.302, 432.211 361.948 L 433.605 370.396 438.053 371.532 C 445.379 373.402, 450.221 376.151, 455.549 381.464 C 479.722 405.570, 461.088 446.207, 426.981 443.767 C 413.629 442.811, 400.698 433.467, 395.887 421.297 C 392.357 412.367, 392.568 400.541, 396.406 392.218 C 399.895 384.650, 408.645 376.065, 415.561 373.423 L 420.233 371.639 419.635 366.552 C 418.811 359.540, 415.559 347.169, 412.937 341.075 L 410.754 336 345.916 336 L 281.077 336 279.542 341.170 C 276.266 352.202, 268 400.637, 268 408.802 C 268 409.200, 270.363 410.087, 273.250 410.771 C 282.195 412.892, 289.073 416.919, 296.565 424.423 C 304.895 432.767, 308.772 439.222, 312.959 451.717 C 317.088 464.041, 318.987 477.584, 318.994 494.750 L 319 509 298.500 509 L 278 509 278 502.500 L 278 496 292 496 L 306 496 306 490.224 C 306 475.018, 302.230 457.369, 296.598 446.209 C 291.581 436.267, 286.174 430.689, 277.303 426.305 C 270.276 422.832, 269.119 422.570, 261.066 422.619 C 254.005 422.662, 251.385 423.137, 246.948 425.176 C 239.891 428.420, 235.465 432.227, 231.499 438.465 C 224.517 449.448, 221.315 462.392, 220.352 483.522 L 219.713 497.544 232.106 497.522 L 244.500 497.500 244.500 504 L 244.500 510.500 227.074 510.774 C 216.781 510.936, 209.253 510.653, 208.681 510.081 C 208.148 509.548, 207.492 502.603, 207.221 494.646 C 206.444 471.751, 209.570 452.938, 216.587 438.284 C 220.342 430.443, 229.013 420.279, 235.375 416.263 C 239.800 413.470, 249.247 410, 252.427 410 C 254.417 410, 254.675 408.947, 256.781 392.250 C 258.653 377.408, 264.258 346.588, 266.601 338.250 L 267.233 336 230.367 336.067 C 202.833 336.117, 192.433 336.467, 189.286 337.451 M 418.500 386.775 C 409.021 391.948, 404.468 402.444, 407.044 413.182 C 408.725 420.190, 416.275 427.990, 423.264 429.939 C 434.708 433.130, 447.087 427.175, 451.652 416.282 C 452.393 414.512, 453 410.217, 453 406.738 C 453 401.377, 452.504 399.585, 449.750 394.999 C 443.374 384.381, 429.552 380.744, 418.500 386.775 M 416.698 471.635 C 416.314 472.019, 416 477.883, 416 484.667 L 416 497 403.500 497 L 391 497 391 508.500 L 391 520 403.500 520 L 416 520 416 532.500 L 416 545 427.500 545 L 439 545 439 532.530 L 439 520.060 451.750 519.780 L 464.500 519.500 464.500 508.500 L 464.500 497.500 451.780 497.220 L 439.059 496.941 438.780 484.220 L 438.500 471.500 427.948 471.218 C 422.145 471.063, 417.083 471.251, 416.698 471.635" stroke="none" fill="black" fill-rule="evenodd"/>
</svg>