<svg xmlns="http://www.w3.org/2000/svg" width="667" height="667" viewBox="0 0 667 667" version="1.1">
	<path d="M 215 51.654 C 189.500 55.541, 179.028 58.051, 165.513 63.513 C 146.940 71.021, 130.497 83.438, 120.407 97.578 C 98.130 128.796, 96.342 175.764, 115.176 234.954 C 120.337 251.173, 126.735 266.586, 138.026 290 C 149.950 314.724, 154.535 326.908, 158.390 344.117 C 162.999 364.684, 163.328 368.839, 163.444 408 C 163.563 448.211, 164.042 453.681, 169.656 479 C 176.673 510.648, 191.846 552.058, 201.778 566.666 C 212.611 582.600, 228.997 591.581, 242.636 589.059 C 255.372 586.705, 266.499 575.831, 272.782 559.597 C 274.087 556.228, 274.494 548.393, 275.078 515.500 C 275.827 473.342, 276.933 459.780, 281.571 435.883 C 290.723 388.733, 311.613 356.275, 337.083 349.632 C 342.185 348.301, 342.728 348.343, 346.417 350.359 C 363.624 359.764, 378.046 384.323, 387.017 419.500 C 394.642 449.396, 398.076 481.790, 398.359 526.500 L 398.549 556.500 401.619 563 C 408.791 578.183, 424.393 587.058, 441.500 585.686 C 459.190 584.267, 469.399 575.987, 479.951 554.500 C 491.777 530.420, 501.481 492.476, 506.549 450.500 C 507.426 443.235, 508.509 422.058, 509.003 402.500 C 509.800 371.014, 510.141 366.292, 512.408 355.467 C 515.318 341.568, 521.537 322.855, 526.565 312.870 C 536.585 292.975, 551.227 253.268, 556.941 230.500 C 563.949 202.576, 566.756 171.753, 564.104 151.844 C 556.309 93.336, 515.402 60.606, 440.500 52.947 C 420.727 50.925, 365.466 53.201, 362.509 56.158 C 362.204 56.463, 368.153 62.340, 375.728 69.218 C 403.065 94.043, 406.664 99.230, 405.814 112.581 C 405.187 122.425, 399.964 128.167, 391.635 128.167 C 385.115 128.167, 381.530 125.716, 374.521 116.467 C 342.412 74.093, 291.654 50.629, 233.199 51.136 C 224.564 51.211, 216.375 51.444, 215 51.654" stroke="none" fill="black" fill-rule="evenodd"/>
</svg>