<svg xmlns="http://www.w3.org/2000/svg" width="667" height="667" viewBox="0 0 667 667" version="1.1">
	<path d="M 266.286 38.392 C 248.304 44.263, 236.811 62.007, 238.289 81.618 C 238.681 86.819, 240.053 91.839, 243.385 100.263 C 251.063 119.676, 251.349 125.498, 244.937 131.909 C 241.246 135.600, 236.865 136.523, 229.283 135.205 C 226.102 134.652, 223.327 134.366, 223.115 134.568 C 222.259 135.387, 225.655 141.719, 228.845 145.251 C 235.927 153.089, 248.398 153.631, 256.770 146.465 C 263.934 140.333, 266.037 132.506, 267.977 104.761 C 269.125 88.338, 270.644 83.102, 275.201 79.857 C 278.900 77.223, 284.790 76.977, 288.347 79.308 L 291.041 81.073 288.602 85.287 C 281.805 97.024, 279.457 117.351, 283.386 130.448 C 295.487 170.783, 341.237 187.610, 375.988 164.508 C 392.599 153.465, 402.331 135.233, 402.416 115 C 402.490 97.235, 397.229 84.215, 385.018 71.946 C 372.560 59.429, 359.602 54, 342.184 54 C 330.636 54, 322.788 55.918, 313.115 61.104 C 309.053 63.281, 305.642 64.936, 305.534 64.781 C 305.427 64.627, 303.690 61.506, 301.675 57.848 C 292.750 41.642, 279.181 34.182, 266.286 38.392 M 310.500 187.351 C 300.894 191.831, 293.144 202.145, 289.726 215 C 288.922 218.025, 278.656 244.125, 266.912 273 C 243.393 330.830, 243.045 332.041, 247.950 338.930 C 252.375 345.144, 265.276 348.981, 271.316 345.878 C 276.595 343.165, 278.841 339.665, 283.638 326.670 L 288.500 313.500 288.758 371.250 L 289.016 429 294.008 429 C 298.098 429, 298.999 429.316, 298.993 430.750 C 298.964 437.589, 305.135 577.215, 305.585 579.921 C 306.277 584.074, 311.225 589, 314.706 589 C 316.191 589, 318.526 587.674, 320.476 585.724 C 324.568 581.632, 324.214 585.833, 327.527 502 C 328.929 466.525, 330.312 435.587, 330.599 433.250 L 331.123 429 359.061 429 L 387 429 387.005 423.750 C 387.007 420.863, 387.297 413.550, 387.649 407.500 L 388.289 396.500 395.584 394.152 C 406.392 390.672, 414.490 385.506, 424.037 376 C 433.844 366.235, 439.725 356.150, 443.115 343.287 C 445.762 333.241, 445.950 317.358, 443.538 307.500 C 439.740 291.975, 429.291 275.899, 416.990 266.652 C 405.495 258.011, 395.132 254.079, 377 251.482 C 373.531 250.985, 373.474 250.894, 370.514 241.240 C 366.720 228.864, 358.632 212.412, 352.136 203.854 C 346.454 196.369, 340.802 191.412, 333.601 187.596 C 326.993 184.094, 317.696 183.996, 310.500 187.351 M 360.088 292.375 C 351.579 295.478, 344.950 307.035, 346.417 316.209 C 347.942 325.741, 356.308 336.562, 370.314 347.115 C 374.772 350.475, 378.981 353.439, 379.666 353.702 C 381.653 354.464, 395.815 344.181, 404.045 336 C 419.399 320.739, 421.138 307.556, 409.216 296.807 C 401.977 290.280, 393.512 290.722, 385.571 298.041 L 381.338 301.944 377.919 298.386 C 372.053 292.283, 365.966 290.231, 360.088 292.375" stroke="none" fill="black" fill-rule="evenodd"/>
</svg>