<svg xmlns="http://www.w3.org/2000/svg" width="667" height="667" viewBox="0 0 667 667" version="1.1">
	<path d="M 545.455 120.275 L 475.583 187.652 470.934 185.688 C 464.111 182.805, 460.031 183.889, 453.098 190.427 L 447.500 195.706 443 193.618 C 439.545 192.015, 436.525 191.531, 430 191.535 C 414.112 191.545, 424.281 182.543, 300.250 306.392 L 190 416.479 171.502 398.002 L 153.004 379.524 139.498 393.002 L 125.993 406.479 151.739 432.239 L 177.484 457.999 155.004 480.496 L 132.523 502.994 120.497 490.997 L 108.472 479.001 94.994 492.506 L 81.515 506.012 123.751 548.249 L 165.988 590.485 179.494 577.006 L 192.999 563.528 181.003 551.503 L 169.006 539.477 191.504 516.996 L 214.001 494.516 239.997 520.497 L 265.993 546.479 279.499 533.001 L 293.004 519.524 274.300 500.800 L 255.597 482.077 364.841 372.558 C 467.934 269.208, 474.264 262.660, 477.243 256.294 C 479.972 250.462, 480.397 248.460, 480.381 241.524 C 480.366 235.502, 479.825 232.300, 478.211 228.692 L 476.062 223.885 479.492 220.873 C 486.884 214.383, 489.185 206.126, 485.558 199.112 L 483.949 196 545.635 131.750 C 579.563 96.413, 609.822 64.913, 612.877 61.752 C 617.900 56.556, 618.284 55.855, 616.880 54.452 C 615.476 53.048, 608.620 59.366, 545.455 120.275 M 422.500 209.918 C 420.038 211.071, 411.200 219.135, 399.517 230.888 L 380.535 249.985 387.769 257.268 L 395.003 264.550 387.993 271.507 L 380.982 278.464 373.752 271.235 L 366.523 264.005 353.760 276.739 L 340.998 289.473 355.506 304.006 L 370.015 318.539 363 325.500 L 355.986 332.460 341.489 317.989 L 326.992 303.518 314.261 316.249 L 301.530 328.980 308.767 336.265 L 316.003 343.550 308.993 350.507 L 301.982 357.464 294.752 350.235 L 287.523 343.005 274.760 355.739 L 261.998 368.473 276.506 383.006 L 291.015 397.539 284 404.500 L 276.986 411.460 262.491 396.991 L 247.996 382.522 227.498 403.002 L 207 423.482 227.241 443.741 C 238.373 454.883, 247.939 464, 248.497 464 C 250.149 464, 459.664 253.779, 461.280 250.500 C 466.269 240.380, 464.552 235.324, 451.645 222.126 C 437.942 208.115, 431.822 205.551, 422.500 209.918 M 164.994 488.506 L 143.515 510.002 152.760 519.246 L 162.004 528.490 183.510 506.984 L 205.017 485.477 195.745 476.244 L 186.473 467.010 164.994 488.506" stroke="none" fill="black" fill-rule="evenodd"/>
</svg>