<svg xmlns="http://www.w3.org/2000/svg" width="667" height="667" viewBox="0 0 667 667" version="1.1">
	<path d="M 319.184 39.077 C 281.102 42.576, 243.295 62.438, 206.125 98.473 C 195.459 108.813, 175 131.604, 175 133.146 C 175 133.529, 186.978 144.276, 201.618 157.028 L 228.237 180.214 230.868 178.118 C 251.918 161.357, 281.532 147.170, 308.500 140.929 C 321.687 137.878, 347.352 137.170, 361.159 139.477 C 386.265 143.671, 411.746 155.380, 433.085 172.528 L 439.670 177.820 464.728 155.660 C 483.811 138.783, 489.589 133.142, 488.961 132 C 486.579 127.663, 473.072 112.056, 462.504 101.430 C 417.843 56.522, 367.532 34.633, 319.184 39.077 M 325 67 L 325 78 314 78 L 303 78 303 88 L 303 98 314 98 L 325 98 325 109 L 325 120 335 120 L 345 120 345 109 L 345 98 356 98 L 367 98 367 88 L 367 78 356 78 L 345 78 345 67 L 345 56 335 56 L 325 56 325 67 M 315.500 148.616 C 293.183 152.622, 270.279 162.028, 249.500 175.720 C 229.611 188.827, 225.816 193.307, 220.608 209.828 C 198.963 278.502, 241.969 350.312, 312.677 363.561 C 330.337 366.871, 353.631 365.260, 371.874 359.468 C 406.262 348.550, 436.550 318.262, 447.468 283.874 C 455.355 259.032, 455.213 231.484, 447.076 207.560 C 442.659 194.574, 439.354 189.287, 431.500 182.646 C 410.654 165.020, 385.363 152.678, 361.619 148.546 C 350.503 146.611, 326.464 146.647, 315.500 148.616 M 271.655 389.565 C 255.933 392.469, 238.973 399.597, 226.110 408.705 C 222.475 411.279, 213.615 419.261, 206.423 426.443 C 199.231 433.624, 157.731 472.800, 114.201 513.500 L 35.055 587.500 80.260 587.760 L 125.465 588.021 151.490 562.010 C 165.803 547.705, 177.848 536, 178.257 536 C 178.666 536, 179 547.700, 179 562 L 179 588 328.985 588 L 478.969 588 479.235 559.526 L 479.500 531.052 509.500 559.491 L 539.500 587.930 585.483 587.965 L 631.467 588 627.983 584.622 C 620.400 577.267, 443.262 418.145, 436.855 412.931 C 424.596 402.958, 409.822 395.554, 392.938 390.923 C 384.679 388.658, 383.388 388.604, 332 388.363 C 289.612 388.163, 277.989 388.395, 271.655 389.565 M 384 468 L 384 479 373 479 L 362 479 362 489 L 362 499 373 499 L 384 499 384 510 L 384 521 394 521 L 404 521 404 510 L 404 499 415 499 L 426 499 426 489 L 426 479 415 479 L 404 479 404 468 L 404 457 394 457 L 384 457 384 468" stroke="none" fill="black" fill-rule="evenodd"/>
</svg>