<svg xmlns="http://www.w3.org/2000/svg" width="667" height="667" viewBox="0 0 667 667" version="1.1">
	<path d="M 220 45.039 C 195.085 50.158, 175.749 78.362, 170.936 116.605 C 169.243 130.050, 170.224 155.529, 172.967 169.379 C 179.156 200.626, 191.953 226.324, 210.377 244.500 C 225.257 259.180, 236.174 264.395, 252 264.383 C 259.477 264.377, 262.719 263.896, 267.225 262.125 C 287.869 254.011, 302.821 231.118, 308.690 198.636 C 311.096 185.322, 310.838 159.039, 308.153 144 C 299.513 95.598, 274.193 57.560, 243.613 47.039 C 236.829 44.705, 226.064 43.793, 220 45.039 M 433.402 45.486 C 421.931 47.981, 408.241 56.513, 398.519 67.224 C 373.656 94.615, 359.490 137.782, 361.346 180.500 C 362.283 202.065, 367.545 222.123, 376.083 236.676 C 380.846 244.795, 393.207 256.935, 400 260.166 C 420.382 269.863, 441.872 264.280, 462.027 244.053 C 499.867 206.078, 513.441 129.558, 490.924 81.156 C 481.394 60.672, 468.701 48.951, 452.280 45.471 C 444.143 43.747, 441.383 43.749, 433.402 45.486 M 73.324 219.377 C 60.573 223.555, 50.785 235.368, 46.297 252 C 43.933 260.759, 43.968 284.367, 46.360 294.915 C 58.528 348.566, 100.288 392.561, 136.290 389.657 C 153.771 388.247, 166.825 375.735, 172.025 355.404 C 174.484 345.786, 174.673 328.122, 172.452 315.385 C 168.986 295.511, 159.114 273.273, 146.009 255.819 C 133.772 239.522, 120.098 228.163, 105.191 221.913 C 98.614 219.156, 96.051 218.639, 87.500 218.349 C 80.880 218.124, 76.089 218.471, 73.324 219.377 M 564.899 225.392 C 551.840 229.152, 539.957 236.788, 527.500 249.423 C 509.428 267.755, 496.157 292.837, 490.422 319.500 C 488.044 330.558, 487.987 352.216, 490.312 361 C 494.360 376.288, 502.730 387.640, 513.764 392.812 C 518.886 395.212, 520.624 395.494, 530 395.442 C 538.927 395.393, 541.521 394.984, 547.316 392.712 C 577.184 381.003, 604.743 346.062, 614.525 307.501 C 624.256 269.140, 615.465 237.174, 592.330 226.790 C 586.369 224.115, 571.896 223.377, 564.899 225.392 M 305.069 297.088 C 293.414 299.374, 276.387 306.835, 262.500 315.739 C 233.442 334.370, 204.050 367.766, 179.979 409.500 C 159.453 445.088, 135.979 503.144, 136.015 518.232 C 136.109 558.170, 182.271 593.454, 226.051 587.053 C 237.697 585.350, 244.205 582.690, 262.355 572.216 C 271.075 567.183, 280.525 562.200, 283.355 561.143 C 292.266 557.814, 302.734 556.687, 319.233 557.280 C 339.476 558.008, 348.103 560.325, 379.500 573.467 C 388.300 577.151, 399.775 581.363, 405 582.827 C 413.928 585.329, 415.735 585.486, 435 585.424 C 458.971 585.346, 470.775 583.399, 482.499 577.588 C 509.815 564.050, 524.579 526.703, 514.952 495.500 C 512.773 488.436, 499.883 461.773, 491.532 447.056 C 454.827 382.368, 413.282 336.499, 368 310.664 C 348.505 299.541, 336.552 295.931, 319.803 296.110 C 314.136 296.170, 307.506 296.610, 305.069 297.088" stroke="none" fill="black" fill-rule="evenodd"/>
</svg>