<svg xmlns="http://www.w3.org/2000/svg" width="667" height="667" viewBox="0 0 667 667" version="1.1">
	<path d="M 160 66.020 C 148.733 68.014, 132.138 73.387, 122.995 78.002 C 119.895 79.567, 113.341 83.542, 108.429 86.834 C 77.400 107.638, 59.556 137.324, 51.827 181 C 50.053 191.026, 50.043 234.337, 51.812 246.500 C 54.846 267.360, 61.363 295.481, 65.892 307.250 L 66.950 310 121.514 310 L 176.078 310 225.243 271 C 252.283 249.550, 274.713 232, 275.086 232 C 275.458 232, 293.704 257.413, 315.632 288.473 C 337.559 319.533, 355.725 344.942, 356 344.937 C 356.275 344.932, 369.550 333.926, 385.500 320.478 L 414.500 296.027 507.703 296.014 L 600.906 296 601.952 292.250 C 615.687 243.032, 616.997 200.063, 605.877 163.500 C 599.496 142.518, 587.209 121.651, 572.044 106.042 C 543.932 77.106, 500.727 61.778, 459 65.939 C 423.773 69.451, 395.154 80.500, 369.500 100.491 C 358.426 109.120, 343.473 124.989, 336.277 135.747 L 330.244 144.766 326.955 137.755 C 310.850 103.429, 277.062 79.205, 231.100 69.035 C 206.642 63.623, 179.943 62.490, 160 66.020 M 225.500 327.497 L 189.500 355.972 140.231 356.236 L 90.962 356.500 99.113 367 C 150.269 432.902, 233.421 514.265, 314.981 578.221 L 328.462 588.793 332.855 585.646 C 340.868 579.908, 384.470 544.739, 402.917 529.137 C 461.163 479.870, 515.893 426.056, 545.750 388.696 C 557.860 373.542, 577 345.403, 577 342.752 C 577 342.157, 549.216 342.080, 502.300 342.545 L 427.601 343.287 387.709 379.275 C 349.046 414.154, 347.763 415.204, 346.048 413.381 C 345.075 412.347, 325.956 386.188, 303.561 355.250 C 281.165 324.313, 262.540 299.005, 262.171 299.011 C 261.802 299.017, 245.300 311.836, 225.500 327.497" stroke="none" fill="black" fill-rule="evenodd"/>
</svg>