<svg xmlns="http://www.w3.org/2000/svg" width="667" height="667" viewBox="0 0 667 667" version="1.1">
	<path d="M 54.287 182.866 C 41.566 187.262, 30.883 198.163, 27.011 210.701 C 25.030 217.113, 25 219.738, 25 385.500 C 25 550.268, 25.041 553.922, 26.975 560.145 C 30.695 572.114, 38.750 581.187, 50.570 586.723 L 56.500 589.500 332 589.500 L 607.500 589.500 613.430 586.723 C 625.250 581.187, 633.305 572.114, 637.025 560.145 C 638.959 553.922, 639 550.268, 639 385.500 C 639 219.738, 638.970 217.113, 636.989 210.701 C 634.248 201.826, 627.546 192.956, 619.797 187.947 C 608.082 180.375, 633.967 180.996, 331.568 181.033 C 72.158 181.064, 59.257 181.149, 54.287 182.866 M 415 274.120 C 391.720 304.072, 357.809 318.483, 324.364 312.637 C 300.345 308.438, 273.239 295.372, 253.341 278.401 C 250.503 275.980, 247.747 274, 247.218 274 C 246.396 274, 137.952 398.902, 134.163 404.213 C 132.463 406.595, 132.222 406.305, 148 420.857 C 201.213 469.932, 254.458 497.255, 309.974 503.974 C 320.948 505.303, 347.200 505.291, 358.026 503.953 C 407.018 497.897, 454.115 476.061, 498.812 438.678 C 510.135 429.209, 534.638 404.716, 535.497 402.008 C 535.949 400.585, 523.136 385.138, 481.427 336.822 C 451.362 301.995, 425.355 272.047, 423.632 270.272 L 420.500 267.044 415 274.120 M 251.500 335.386 C 244.101 337.185, 236.620 341.651, 230.935 347.662 C 211.361 368.359, 217.569 401.342, 243.431 414.048 C 249.861 417.207, 251.069 417.455, 260.115 417.477 L 269.868 417.500 271.087 421.831 C 278.020 446.473, 317.101 467.032, 352.500 464.658 C 363.804 463.900, 371.537 461.928, 380.652 457.479 C 394.433 450.752, 397.993 443.472, 398.902 420.159 C 399.682 400.144, 398.798 401, 418.688 401 L 433.154 401 436.077 398.077 C 439.702 394.452, 439.804 391.109, 436.411 387.077 L 433.822 384 414.161 384.006 C 399.917 384.011, 393.811 384.373, 392 385.321 C 390.625 386.040, 385.696 389.702, 381.046 393.458 C 371.593 401.095, 358.920 407.661, 351.764 408.628 C 345.891 409.422, 339.180 407.649, 335.643 404.370 C 334.189 403.022, 333 401.586, 333 401.179 C 333 400.772, 338.895 395.967, 346.099 390.501 C 353.304 385.035, 360.054 379.476, 361.099 378.147 C 363.179 375.503, 363.695 368.167, 362.021 365.039 C 360.894 362.933, 356.012 361, 351.819 361 C 346.592 361, 342.275 363.707, 324.016 378.433 C 314.081 386.445, 305.848 393, 305.720 393 C 305.592 393, 304.077 393.404, 302.355 393.898 L 299.223 394.796 301.214 389.148 C 302.804 384.638, 303.126 381.659, 302.812 374.365 C 302.462 366.261, 301.997 364.378, 298.693 357.693 C 289.854 339.808, 270.647 330.730, 251.500 335.386" stroke="none" fill="black" fill-rule="evenodd"/>
</svg>