<svg xmlns="http://www.w3.org/2000/svg" width="667" height="667" viewBox="0 0 667 667" version="1.1">
	<path d="M 330.333 62.500 C 316.452 65.518, 311.325 71.730, 318.047 77.386 C 322.833 81.413, 330.121 83.153, 344.616 83.730 C 359.795 84.334, 369.093 83.077, 376.749 79.385 C 382.140 76.785, 383.819 74.155, 382.579 70.250 C 381.705 67.496, 375.069 64.122, 367.283 62.472 C 358.829 60.681, 338.631 60.696, 330.333 62.500 M 312.528 100.250 C 317.153 146.349, 333.776 178.222, 367.828 206.283 C 378.919 215.424, 384.062 221.360, 388.020 229.588 C 394.117 242.266, 395.174 253.324, 392.503 276.506 C 386.590 327.835, 369.418 368.734, 342.541 395.500 C 324.344 413.622, 303.775 424.616, 277.734 430.139 C 263.461 433.166, 241.239 433.194, 224.500 430.205 C 176.081 421.561, 138.354 427.080, 108.813 447.129 C 84.654 463.526, 66.128 493.710, 60.637 525.626 L 60.100 528.751 67.086 529.440 C 77.510 530.467, 84.480 532.511, 94.773 537.561 C 102 541.106, 105.704 543.747, 111.563 549.531 C 115.708 553.622, 119.250 556.402, 119.458 555.726 C 119.665 555.052, 120.612 551.125, 121.561 547 C 123.899 536.838, 128.530 523.754, 132.328 516.578 C 135.940 509.752, 143.779 500.796, 149.057 497.464 C 163.633 488.263, 185.152 491.340, 200.079 504.761 C 203.138 507.511, 208.759 514.789, 213.753 522.465 C 234.303 554.053, 262.300 573.483, 301.500 583.362 C 320.017 588.029, 332.718 589.447, 356 589.448 C 378.661 589.449, 388.543 588.485, 408.461 584.331 C 455.664 574.487, 507.422 548.850, 544.450 516.972 C 587.193 480.173, 614.026 431.579, 621.546 377.353 C 623.793 361.151, 623.163 338.376, 620.071 324 C 607.088 263.646, 573.405 219.654, 520.500 193.954 C 499.462 183.735, 477.724 177.406, 448.925 173.117 C 441.459 172.005, 433.134 170.357, 430.425 169.456 C 415.241 164.401, 402.406 153.233, 394.827 138.481 C 389.487 128.088, 384.434 112.963, 382.808 102.502 L 381.674 95.212 375.587 97.501 C 359.170 103.676, 335.353 102.862, 316.730 95.492 C 314.656 94.671, 312.721 94, 312.430 94 C 312.139 94, 312.183 96.813, 312.528 100.250 M 505.756 226.755 C 502.762 228.611, 500 233.527, 500 237 C 500 240.724, 503.118 246.010, 506.279 247.644 C 519.404 254.431, 531.338 238.212, 520.549 228.250 C 517.707 225.626, 516.208 225.005, 512.765 225.027 C 510.419 225.041, 507.265 225.819, 505.756 226.755 M 470.411 263.891 C 465.279 267.021, 463 270.711, 463.004 275.885 C 463.013 286.893, 472.642 293.464, 482.424 289.137 C 487.913 286.709, 490.991 282.134, 490.996 276.398 C 491.006 265.965, 478.986 258.662, 470.411 263.891 M 535.558 287.492 C 529.908 289.505, 526.910 292.038, 524.211 297.079 C 519.293 306.266, 522.841 318.777, 531.764 323.715 C 537.457 326.865, 541.319 327.340, 547.248 325.616 C 555.826 323.123, 562.029 314.981, 561.978 306.282 C 561.931 298.184, 555.081 289.227, 547.277 287.060 C 542.396 285.705, 540.365 285.780, 535.558 287.492 M 425.764 347.996 C 419.803 349.791, 416.390 352.942, 412 360.706 C 386.640 405.549, 363.746 434.291, 338.304 453.225 C 312.759 472.236, 287.785 479.696, 262.038 476.005 C 251.486 474.493, 246.297 475.482, 240.737 480.065 C 231.180 487.943, 235.434 503.025, 252 520.001 C 263.817 532.110, 275.782 539.317, 294.329 545.497 C 328.414 556.855, 371.698 557.935, 412 548.433 C 474.997 533.579, 534.663 491.854, 564.525 441.771 C 571.529 430.025, 578.598 413.055, 582.213 399.310 C 585.135 388.202, 585.325 386.380, 585.410 368.673 C 585.514 346.946, 585.536 347, 576.414 347 C 568.993 347, 559.947 350.132, 549 356.492 C 529.142 368.029, 515.519 371.503, 493.106 370.745 C 470.866 369.993, 457.772 365.561, 444.924 354.434 C 441.024 351.056, 437.341 348.820, 434.503 348.105 C 429.565 346.862, 429.532 346.861, 425.764 347.996 M 53.500 548.119 C 47.789 549.015, 44.567 551.972, 45.578 555.389 C 47.234 560.983, 58.791 568.501, 72.992 573.222 C 81.619 576.089, 83.689 576.387, 95.335 576.441 C 107.651 576.498, 108.248 576.405, 110.085 574.139 C 112.760 570.842, 112.519 569.580, 108.328 564.942 C 99.100 554.727, 69.423 545.621, 53.500 548.119" stroke="none" fill="black" fill-rule="evenodd"/>
</svg>