<svg xmlns="http://www.w3.org/2000/svg" width="667" height="667" viewBox="0 0 667 667" version="1.1">
	<path d="M 519 52 L 519 87 484.500 87 L 450 87 450 117 L 450 147 484.500 147 L 519 147 519 182.015 L 519 217.029 549.250 216.765 L 579.500 216.500 579.763 181.750 L 580.026 147 614.513 147 L 649 147 649 117 L 649 87 614.500 87 L 580 87 580 52 L 580 17 549.500 17 L 519 17 519 52 M 323.500 275.697 C 234.863 280.402, 139.084 322.673, 56.798 393.400 C 42.517 405.675, 15 432.555, 15 434.229 C 15 435.278, 33.346 452.988, 47.500 465.604 C 110.767 521.996, 181.110 561.654, 247.500 578.361 C 353.134 604.944, 460.533 583.148, 560.669 514.805 C 591.598 493.696, 626.637 463.305, 647.678 439.340 L 653.185 433.068 651.198 430.278 C 647.575 425.190, 610.718 389.669, 597.191 378.229 C 510.018 304.502, 419.519 270.599, 323.500 275.697 M 390.559 297.839 C 406.196 306.423, 421.135 319.427, 431.645 333.602 C 469.143 384.176, 464.019 454.091, 419.555 498.555 C 380.938 537.171, 322.328 546.678, 273.500 522.246 C 246.619 508.795, 223.320 483.566, 212.916 456.642 C 206.971 441.256, 204.843 430.879, 204.270 414.481 C 203.240 384.953, 209.838 361.573, 226.022 337.408 C 232.291 328.047, 248.141 311.845, 256.265 306.494 C 259.436 304.406, 261.890 302.557, 261.719 302.385 C 261.121 301.788, 234.386 309.848, 221.637 314.470 C 161.478 336.277, 97.035 377.005, 49.623 423.183 L 38.500 434.017 44.500 439.641 C 143.714 532.639, 246.973 577.075, 351.830 571.896 C 444.088 567.339, 539.511 522.310, 615.979 447.246 L 630.500 432.992 617.488 420.246 C 564.504 368.347, 513.504 334.362, 456.605 313.039 C 436.687 305.575, 409.062 298.408, 389.500 295.630 L 385.500 295.062 390.559 297.839 M 280.197 340.510 C 273.498 342.375, 271.760 343.319, 266.834 347.769 C 261.028 353.014, 257.780 360.037, 257.245 368.500 C 256.419 381.564, 262.656 392.244, 274.520 398.085 C 280.536 401.046, 281.497 401.223, 289.228 400.799 C 298.614 400.284, 303.775 398.158, 309.474 392.460 C 324.573 377.361, 320.668 352.272, 301.793 343.115 C 294.058 339.362, 287.268 338.543, 280.197 340.510" stroke="none" fill="black" fill-rule="evenodd"/>
</svg>