<svg xmlns="http://www.w3.org/2000/svg" width="667" height="667" viewBox="0 0 667 667" version="1.1">
	<path d="M 519 52 L 519 87 484.500 87 L 450 87 450 117 L 450 147 484.500 147 L 519 147 519 182.015 L 519 217.029 549.250 216.765 L 579.500 216.500 579.763 181.750 L 580.026 147 614.513 147 L 649 147 649 117 L 649 87 614.500 87 L 580 87 580 52 L 580 17 549.500 17 L 519 17 519 52 M 241.180 68.682 C 236.524 70.976, 232.838 76.199, 232.306 81.256 C 232.061 83.590, 234.138 136.828, 236.923 199.562 C 242.532 325.931, 242.103 321.360, 249.870 337.500 C 254.588 347.303, 266.693 365.637, 278.593 381 C 289.619 395.236, 316.973 422.873, 331 433.951 C 359.337 456.329, 394.975 475.994, 423.500 484.993 C 425.700 485.687, 436.590 489.801, 447.700 494.136 C 479.355 506.487, 504.538 512.908, 535.500 516.526 C 551.675 518.415, 560.797 521.212, 567.978 526.484 C 575.345 531.892, 575.913 533.463, 571.972 537.529 C 567.885 541.746, 558.212 546.522, 549.935 548.412 C 530.698 552.802, 460.598 555.742, 414.053 554.110 C 357.608 552.131, 338.896 549.982, 303 541.357 C 280.128 535.861, 269.459 534.700, 247.500 535.315 C 222.132 536.026, 209.172 538.973, 186.511 549.184 C 173.918 554.858, 166.046 556.970, 157.500 556.970 C 139.369 556.970, 119.961 546.247, 109.857 530.646 C 104.933 523.042, 102.159 515.486, 100.841 506.085 C 98.855 491.917, 104.950 465.580, 117.949 432.170 C 121.730 422.452, 125.425 411.575, 126.162 408 C 127.247 402.729, 127.500 371.149, 127.500 241 L 127.500 80.500 125.212 76.821 C 122.588 72.601, 116.044 69, 111 69 C 105.956 69, 99.412 72.601, 96.788 76.821 L 94.500 80.500 93.992 241.500 C 93.628 357.096, 93.167 403.346, 92.360 405.500 C 91.742 407.150, 88.986 414.125, 86.235 421 C 70.874 459.392, 64.284 493.301, 68.051 514.566 C 74.518 551.078, 102.957 580.688, 139.147 588.590 C 148.518 590.636, 166.310 590.692, 175.558 588.704 C 182.440 587.226, 185.857 585.971, 208.413 576.640 C 223.190 570.528, 234.537 568.489, 253.500 568.541 C 269.918 568.586, 276.483 569.494, 297.500 574.629 C 335.062 583.807, 364.470 586.723, 429 587.669 C 479.621 588.410, 532.636 585.984, 554.473 581.926 C 576.248 577.880, 598.017 563.836, 605.232 549.180 C 608.148 543.258, 608.500 541.623, 608.500 534.021 C 608.500 526.641, 608.109 524.696, 605.580 519.500 C 601.913 511.965, 589.984 499.943, 581 494.726 C 572.075 489.543, 558.526 485.394, 546 484.008 C 512.935 480.348, 491.968 475.241, 462 463.549 C 451.825 459.579, 437.875 454.347, 431 451.923 C 405.371 442.885, 373.250 424.912, 352.395 407.940 C 333.277 392.382, 315.181 373.628, 300.659 354.324 C 283.163 331.066, 276.380 318.299, 275.388 306.757 C 275.093 303.316, 272.686 250.740, 270.040 189.921 C 264.903 71.864, 265.292 76.388, 259.845 71.317 C 255.026 66.830, 247.184 65.723, 241.180 68.682 M 158.186 414.302 C 152.293 420.575, 151.696 453.991, 157.159 471.839 C 165.720 499.812, 186.361 514.810, 217 515.319 C 222.775 515.415, 228.729 515.151, 230.232 514.733 C 233.687 513.769, 236.350 508.871, 235.507 505.031 C 234.327 499.658, 232.035 498.664, 220.222 498.401 C 202.210 498, 192.741 494.649, 184.249 485.669 C 178.176 479.249, 175.464 474.157, 173.062 464.669 C 170.319 453.836, 169.707 443.654, 171.093 431.922 C 172.695 418.360, 172.624 417.293, 169.927 414.422 C 166.862 411.160, 161.193 411.102, 158.186 414.302" stroke="none" fill="black" fill-rule="evenodd"/>
</svg>