<svg xmlns="http://www.w3.org/2000/svg" width="667" height="667" viewBox="0 0 667 667" version="1.1">
	<path d="M 523 52 L 523 87 488.500 87 L 454 87 454 117 L 454 147 488.500 147 L 523 147 523 182 L 523 217 553.500 217 L 584 217 584 182 L 584 147 618.500 147 L 653 147 653 117 L 653 87 618.500 87 L 584 87 584 52 L 584 17 553.500 17 L 523 17 523 52 M 330 121.108 C 328.625 121.647, 326.723 123.081, 325.772 124.294 C 324.159 126.353, 324.043 133.847, 324.016 237 L 323.987 347.500 315.609 352.250 C 311.001 354.863, 307.004 357, 306.727 357 C 306.450 357, 305.933 351.038, 305.577 343.750 C 303.810 307.487, 301.216 280.480, 298.487 269.950 C 290.713 239.949, 265.337 215.857, 234.635 209.327 C 224.807 207.237, 205.226 208.040, 195 210.952 C 177.036 216.069, 157.892 227.955, 143.879 242.693 C 129.822 257.477, 122.145 271.113, 108.225 306.023 C 90.890 349.497, 79.078 394.056, 74.567 433 C 72.758 448.613, 72.488 481.171, 74.072 492.566 C 76.550 510.379, 85.528 532.386, 95.893 546.051 C 110.352 565.116, 132.067 580.139, 153.809 586.119 C 163.484 588.780, 187.927 589.807, 200.212 588.068 C 218.658 585.458, 238.503 578.449, 251.319 570.019 C 263.517 561.995, 274.663 548.794, 280.628 535.307 C 288.076 518.466, 297.530 474.196, 301.945 435.490 C 303.971 417.730, 305.783 387, 304.805 387 C 304.526 387, 289.269 394.395, 270.899 403.434 L 237.500 419.868 208 473.684 C 191.775 503.283, 177.083 528.962, 175.350 530.750 C 172.619 533.567, 171.531 534, 167.177 534 C 163.288 534, 161.488 533.440, 159.206 531.520 C 155.399 528.317, 153.600 523.906, 154.412 519.767 C 154.765 517.970, 164.468 499.414, 175.974 478.531 C 187.480 457.647, 196.764 440.431, 196.605 440.272 C 196.446 440.113, 183.532 446.232, 167.908 453.869 C 152.284 461.506, 138.477 467.996, 137.226 468.290 C 133.708 469.118, 128.669 467.308, 125.613 464.118 C 120.311 458.584, 121.321 449.627, 127.735 445.287 C 129.256 444.258, 151.055 433.349, 176.177 421.045 L 221.854 398.675 191.177 385.498 C 150.144 367.873, 145.752 365.772, 143.221 362.553 C 136.626 354.170, 142.427 342.015, 153.028 342.004 C 155.037 342.002, 159.775 343.552, 164.028 345.602 C 169.591 348.284, 233.929 376.015, 250.449 382.850 C 251.914 383.457, 258.927 380.476, 278.738 370.828 C 293.226 363.773, 305.320 358, 305.615 358 C 305.910 358, 306.005 364.301, 305.826 372.001 C 305.647 379.702, 305.658 386.002, 305.850 386.001 C 306.043 386.001, 310.543 383.565, 315.850 380.588 C 321.158 377.612, 327.369 374.430, 329.653 373.519 L 333.805 371.861 346.803 378.930 C 353.951 382.819, 360.009 386, 360.264 386 C 360.519 386, 360.501 379.700, 360.224 372 C 359.947 364.300, 360.063 358, 360.481 358 C 360.900 358, 373.075 363.800, 387.538 370.888 L 413.834 383.776 455.167 366.054 C 477.900 356.306, 499.600 346.906, 503.388 345.165 C 511.563 341.409, 515.513 341.200, 520.102 344.283 C 523.981 346.889, 526.675 353.173, 525.655 357.237 C 523.884 364.294, 519.949 366.395, 463.223 390.560 C 453.170 394.842, 445.295 398.686, 445.723 399.101 C 446.150 399.517, 466.975 409.851, 492 422.067 C 517.025 434.283, 538.334 445.001, 539.352 445.886 C 548.415 453.758, 543.020 468.278, 531.036 468.270 C 528.522 468.269, 519.147 464.184, 498.586 454.131 C 482.683 446.356, 469.566 440.109, 469.437 440.248 C 469.309 440.386, 478.619 457.600, 490.128 478.500 C 501.636 499.400, 511.315 517.515, 511.636 518.757 C 512.723 522.958, 511.077 527.725, 507.434 530.924 C 502.895 534.909, 495.600 535.288, 491.510 531.750 C 490.080 530.513, 475.317 504.789, 458.705 474.586 L 428.500 419.672 395 403.371 L 361.500 387.069 361.174 393.285 C 360.195 411.919, 366.655 463.380, 374.130 496.500 C 382.138 531.976, 387.455 544.124, 401.443 558.898 C 415.267 573.499, 439.062 584.286, 465.788 588.068 C 478.014 589.799, 502.519 588.780, 512.100 586.143 C 552.817 574.937, 584.384 538.572, 591.504 494.672 C 593.254 483.887, 593.508 453.357, 591.978 437.856 C 589.158 409.288, 581.344 374.136, 570.560 341.500 C 563.495 320.118, 553.163 293.547, 545.981 278.286 C 532.885 250.463, 513.460 230.055, 488.566 217.968 C 472.341 210.090, 465.318 208.495, 447 208.528 C 432.115 208.554, 431.123 208.686, 422 211.837 C 394.385 221.375, 373.574 244.261, 367.025 272.291 C 364.651 282.454, 362.371 305.625, 360.905 334.500 C 360.291 346.600, 359.657 356.641, 359.496 356.814 C 359.336 356.987, 356.009 355.519, 352.102 353.552 L 345 349.975 345 239.955 C 345 119.468, 345.261 124.738, 339.128 121.566 C 335.705 119.796, 333.611 119.691, 330 121.108" stroke="none" fill="black" fill-rule="evenodd"/>
</svg>