<svg xmlns="http://www.w3.org/2000/svg" width="667" height="667" viewBox="0 0 667 667" version="1.1">
	<path d="M 273.782 114.553 C 256.358 118.777, 241.502 132.617, 235.809 149.928 C 233.852 155.881, 233.609 159.162, 233.232 184.750 L 232.815 213 175.658 213.012 C 113.789 213.025, 113.567 213.042, 102.228 218.590 C 99.184 220.079, 93.452 224.376, 89.492 228.138 C 82.054 235.203, 77.810 241.901, 74.372 252 C 72.575 257.281, 72.500 263.628, 72.500 411.500 L 72.500 565.500 74.623 570.089 C 77.401 576.096, 83.057 581.652, 89.398 584.605 L 94.500 586.980 336.090 586.990 L 577.681 587 583.800 583.942 C 590.286 580.701, 593.713 577.318, 597.298 570.616 L 599.500 566.500 599.763 414.210 C 600.054 245.171, 600.429 255.319, 593.390 241.923 C 587.256 230.250, 576.145 220.533, 563.461 215.748 C 557.560 213.523, 556.907 213.497, 498.330 213.220 L 439.160 212.940 438.767 184.220 C 438.412 158.244, 438.177 154.970, 436.310 149.952 C 432.822 140.572, 430.234 136.324, 423.867 129.517 C 416.948 122.121, 405.521 115.729, 396.114 113.994 C 392.922 113.405, 368.067 113.034, 335.114 113.083 C 291.351 113.149, 278.281 113.462, 273.782 114.553 M 280.304 156.956 C 275.407 159.942, 274.860 163.432, 275.200 189.500 L 275.500 212.500 336.250 212.758 L 397 213.015 397 188.458 C 397 168.463, 396.718 163.356, 395.483 160.967 C 392.355 154.918, 393.175 155, 335.800 155.004 C 285.725 155.007, 283.364 155.090, 280.304 156.956 M 296.678 270.655 C 296.305 271.028, 296 291.283, 296 315.667 L 296 360 251 360 L 206 360 206 399.500 L 206 439 250.990 439 L 295.980 439 296.240 484.250 L 296.500 529.500 336 529.500 L 375.500 529.500 375.760 484.250 L 376.020 439 421.010 439 L 466 439 466 399.500 L 466 360 421.010 360 L 376.021 360 375.760 315.250 L 375.500 270.500 336.428 270.239 C 314.939 270.095, 297.051 270.282, 296.678 270.655" stroke="none" fill="black" fill-rule="evenodd"/>
</svg>