<svg xmlns="http://www.w3.org/2000/svg" width="667" height="667" viewBox="0 0 667 667" version="1.1">
	<path d="M 242.831 56.023 C 217.033 60.376, 193.996 78.438, 184.531 101.731 C 179.471 114.185, 177.677 131.477, 180.091 144.536 C 180.975 149.317, 180.928 150.524, 179.841 150.884 C 178.507 151.327, 169.320 159.835, 150.806 177.773 L 141.113 187.164 142.548 199.332 C 143.337 206.024, 143.987 212.781, 143.991 214.347 L 144 217.194 127.860 216.463 L 111.721 215.732 112.452 232.430 L 113.184 249.129 98.342 248.443 C 90.179 248.065, 83.068 247.698, 82.540 247.628 C 82.007 247.557, 80.602 257.506, 79.381 270 C 78.171 282.375, 76.893 295.087, 76.541 298.250 L 75.901 304 82.700 303.997 C 86.440 303.995, 96.632 303.698, 105.349 303.336 L 121.199 302.679 173.040 253.357 C 201.553 226.230, 225.247 203.382, 225.693 202.583 C 226.391 201.337, 227.497 201.428, 233.503 203.221 C 244.131 206.395, 264.738 206.363, 275 203.157 C 297.571 196.106, 315.268 180.321, 323.930 159.514 C 339.971 120.981, 321.094 76.307, 282.069 60.450 C 270.956 55.934, 254.415 54.068, 242.831 56.023 M 261.500 94.900 C 246.659 101.786, 243.334 121.510, 255.128 132.699 C 270.894 147.658, 297.130 133.487, 293.496 111.975 C 291.137 98.014, 274.233 88.992, 261.500 94.900 M 463.500 129.986 C 451.902 133.807, 441.608 144.243, 437.983 155.855 C 436.477 160.682, 436 165.046, 436 173.995 L 436 185.780 414.250 186.169 C 393.409 186.543, 392.268 186.666, 386.954 189.131 C 380.079 192.319, 374.686 196.973, 371.431 202.528 C 366.149 211.541, 366.079 212.981, 366.111 312.177 L 366.140 403.854 392.320 404.177 C 418.261 404.497, 418.552 404.524, 424.175 407.160 C 431.806 410.738, 438.381 417.016, 441.662 423.857 C 444.115 428.972, 444.437 430.999, 445.102 445.500 C 445.505 454.300, 445.872 480.962, 445.917 504.750 L 446 548 493 548 L 540 548 540 555.045 C 540 561.192, 540.313 562.404, 542.455 564.545 C 545.795 567.886, 550.218 567.810, 552.927 564.365 C 554.560 562.290, 555 560.295, 555 554.968 L 555 548.206 567.250 547.853 C 577.279 547.564, 580.135 547.134, 583 545.483 C 588.177 542.500, 590.902 536.193, 592.126 524.360 C 592.791 517.929, 593.001 462.514, 592.730 365 L 592.314 215.500 590.108 209.812 C 585.613 198.218, 573.514 189.366, 559 187.052 C 555.425 186.482, 545.862 186.012, 537.750 186.008 L 523 186 523 175.210 C 523 152.666, 515.867 139.716, 499 131.639 C 493.047 128.788, 491.532 128.504, 481 128.268 C 471.736 128.060, 468.333 128.394, 463.500 129.986 M 466.500 147.377 C 456.217 152.227, 453.053 158.652, 453.022 174.750 L 453 186 479.500 186 L 506 186 506 176.182 C 506 163.878, 504.222 157.565, 499.341 152.539 C 493.869 146.905, 488.956 145.046, 479.500 145.032 C 473.158 145.022, 470.464 145.508, 466.500 147.377 M 294.500 369.356 C 277.377 374.954, 265.207 391.751, 266.741 407.669 L 267.239 412.837 238.369 413.170 C 206.128 413.541, 204.255 413.899, 197.088 421.066 C 189.715 428.439, 190.046 424.776, 190.022 499.072 C 189.997 574.332, 189.761 571.814, 197.580 579.632 C 205.389 587.441, 199.276 587.072, 315.569 586.768 L 418.500 586.500 422.595 584.309 C 427.811 581.518, 432.299 576.408, 434.411 570.855 C 435.904 566.929, 436.039 559.847, 435.783 499 C 435.501 431.715, 435.493 431.487, 433.309 427.405 C 432.104 425.153, 429.437 421.834, 427.382 420.030 C 420.196 413.722, 419.348 413.575, 387.849 413.191 L 359.199 412.841 358.849 404.671 C 358.569 398.112, 357.920 395.316, 355.558 390.500 C 351.804 382.843, 344.157 375.196, 336.500 371.442 C 330.702 368.599, 329.961 368.492, 314.500 368.274 C 303.470 368.119, 297.257 368.455, 294.500 369.356 M 297.500 386.389 C 289.236 389.999, 283.028 399.365, 283.010 408.250 L 283 413 313 413 L 343 413 343 409.126 C 343 400.321, 338.382 392.407, 330.660 387.978 C 325.687 385.126, 325.047 385.020, 313 385.049 C 304.947 385.068, 299.433 385.545, 297.500 386.389" stroke="none" fill="black" fill-rule="evenodd"/>
</svg>