<svg xmlns="http://www.w3.org/2000/svg" width="667" height="667" viewBox="0 0 667 667" version="1.1">
	<path d="M 312.392 46.895 C 285.151 53.594, 258.107 77.349, 243.454 107.448 C 233.350 128.204, 230.015 144.886, 230.006 174.717 L 230 193.934 190.750 194.217 C 151.972 194.497, 151.462 194.527, 148.373 196.730 C 146.654 197.957, 144.555 200.432, 143.709 202.230 C 142.521 204.758, 139.243 246.815, 129.269 387.500 C 121.644 495.059, 116.668 570.875, 117.103 572.862 C 118.059 577.224, 122.488 581.789, 126.958 583.019 C 131.856 584.366, 538.531 587.126, 541.950 585.836 C 545.772 584.392, 549.899 580.026, 550.914 576.351 C 552.228 571.589, 522.327 206.768, 520.250 202.230 C 519.427 200.432, 517.346 197.957, 515.627 196.730 C 512.536 194.526, 512.041 194.497, 472.882 194.217 L 433.264 193.935 432.574 176.217 C 431.405 146.184, 428.014 130.860, 417.993 110.328 C 402.079 77.719, 373.184 52.387, 345.116 46.437 C 336.147 44.536, 321.131 44.746, 312.392 46.895 M 319.782 75.492 C 301.088 80.223, 281.028 98.139, 270.510 119.497 C 262.063 136.649, 259 152.780, 259 180.106 L 259 194 331.250 194.001 L 403.500 194.003 403.252 181.251 C 402.766 156.302, 399.689 140.667, 392.060 124.387 C 386.592 112.719, 380.839 104.689, 371.007 95 C 353.958 78.200, 336.041 71.376, 319.782 75.492 M 159.127 384.750 C 152.886 473.163, 147.553 547.549, 147.274 550.054 L 146.768 554.608 333.499 555.855 C 436.201 556.542, 520.363 556.967, 520.525 556.802 C 520.687 556.636, 514.684 481.688, 507.184 390.250 L 493.550 224 463.775 224 L 434 224 434.019 226.750 C 434.030 228.262, 434.694 249.300, 435.495 273.500 L 436.951 317.500 434.725 321.932 C 431.848 327.662, 427.208 330.272, 420.878 329.721 C 418.298 329.496, 414.908 328.358, 413.206 327.146 C 407.490 323.076, 407.204 320.896, 405.790 270.500 L 404.500 224.500 331.750 224.243 L 259 223.987 258.996 272.743 C 258.993 319.337, 258.906 321.642, 257.040 324.701 C 252.954 331.403, 241.928 333.335, 236.041 328.381 C 229.836 323.160, 230 324.692, 230 272.050 L 230 224 200.237 224 L 170.474 224 159.127 384.750" stroke="none" fill="black" fill-rule="evenodd"/>
</svg>