<svg xmlns="http://www.w3.org/2000/svg" width="667" height="667" viewBox="0 0 667 667" version="1.1">
	<path d="M 424.500 100.078 C 418.689 101.834, 385.324 106.996, 370.500 108.433 C 328.125 112.540, 284.061 110.930, 247.565 103.940 C 242.100 102.894, 237.475 102.192, 237.286 102.380 C 236.567 103.100, 250.973 123.898, 258.149 132.500 C 291.259 172.192, 327.830 182.747, 365.810 163.572 C 379.028 156.899, 388.266 149.901, 402.096 136.084 C 412.834 125.357, 427.500 107.539, 431.046 100.914 C 431.920 99.282, 431.734 99.013, 429.785 99.086 C 428.528 99.133, 426.150 99.580, 424.500 100.078 M 444.537 101.885 C 443.584 104.887, 431.776 123.101, 425.232 131.665 C 400.907 163.493, 375.910 182.579, 349.560 189.442 C 329.852 194.576, 307.877 190.575, 288.053 178.244 C 267.619 165.534, 249.177 145.777, 229.458 115.471 C 225.174 108.887, 221.366 103.146, 220.997 102.712 C 220.333 101.934, 27.357 178.290, 25.583 180.033 C 24.429 181.167, 47.024 309.080, 48.471 309.607 C 49.037 309.812, 74.250 301.972, 104.500 292.183 L 159.500 274.385 159.753 430.693 L 160.006 587 332.003 587 L 504 587 504 430.666 L 504 274.333 560.113 291.220 C 590.975 300.508, 616.434 307.899, 616.688 307.645 C 617.401 306.932, 643.420 178.076, 642.931 177.680 C 641.975 176.905, 447.223 100, 446.218 100 C 445.622 100, 444.866 100.848, 444.537 101.885" stroke="none" fill="black" fill-rule="evenodd"/>
</svg>