<svg xmlns="http://www.w3.org/2000/svg" width="667" height="667" viewBox="0 0 667 667" version="1.1">
	<path d="M 455.610 15.553 C 405.909 22.321, 359.016 45.611, 332.485 76.705 C 308.206 105.160, 294.929 140.271, 291.828 184.225 C 287.675 243.090, 307.004 297.506, 346.397 337.846 C 362.739 354.581, 382.320 368.411, 397.036 373.611 C 407.848 377.431, 425.252 378.090, 436.987 375.123 C 458.629 369.650, 475.845 355.715, 485.938 335.500 C 491.147 325.068, 492.863 317.560, 493.946 300.460 C 495.491 276.096, 500.246 263.731, 512.982 250.963 C 519.281 244.649, 522.609 242.324, 533.500 236.631 C 583.983 210.241, 619.454 172.920, 626.034 139.268 C 627.917 129.643, 626.802 112.121, 623.759 103.500 C 613.635 74.819, 588.178 48.048, 555.446 31.663 C 525.545 16.694, 489.702 10.910, 455.610 15.553 M 148.500 26.959 C 122.100 31.213, 93.862 35.729, 85.750 36.996 L 71 39.298 71 97.503 L 71 155.707 65.750 154.285 C 62.326 153.358, 57.502 153.015, 51.880 153.299 C 31.646 154.320, 17 167.631, 17 185 C 17 197.524, 24.083 207.413, 37.570 213.718 C 42.920 216.219, 44.576 216.491, 54.500 216.495 C 64.441 216.500, 66.071 216.233, 71.430 213.723 C 80.335 209.553, 85.448 204.867, 89.026 197.598 L 92.152 191.248 92.043 136.211 L 91.933 81.174 94.717 80.594 C 97.875 79.936, 179.374 67, 180.360 67 C 180.712 67, 181 82.348, 181 101.107 C 181 133.185, 180.896 135.173, 179.250 134.527 C 174.008 132.469, 165.459 131.795, 158.634 132.903 C 145.500 135.033, 134.974 142.240, 129.986 152.516 C 126.674 159.339, 126.663 169.460, 129.960 176.309 C 137.073 191.082, 155.924 199.369, 173.859 195.606 C 185.678 193.126, 194.430 187.068, 199.554 177.819 L 202.500 172.500 202.774 95.750 L 203.048 19 199.774 19.112 C 197.973 19.174, 174.900 22.705, 148.500 26.959 M 480.500 41.890 C 464.848 49.114, 465.302 71.796, 481.232 78.452 C 491.638 82.800, 504.889 76.264, 507.940 65.277 C 509.247 60.571, 509.247 59.429, 507.940 54.723 C 504.797 43.404, 491.099 36.998, 480.500 41.890 M 412.704 59.449 C 401.465 62.414, 395.105 75.137, 399.548 85.768 C 403.067 94.192, 410.113 98.417, 419.630 97.811 C 427.170 97.331, 432.182 93.963, 435.750 86.980 C 443.448 71.913, 429.339 55.059, 412.704 59.449 M 354.970 110.250 C 347.129 114.211, 342.758 123.677, 344.926 132 C 347.340 141.269, 355.305 147.489, 364.589 147.355 C 382.580 147.095, 390.607 125.354, 377.342 112.814 C 371.640 107.423, 362.613 106.389, 354.970 110.250 M 525.204 122.072 C 510.455 129.566, 510.640 150.273, 525.520 157.553 C 532.364 160.902, 537.958 160.556, 544.701 156.368 C 550.209 152.947, 553.201 147.736, 553.760 140.590 C 554.891 126.134, 538.336 115.399, 525.204 122.072 M 342.500 182.573 C 332.831 187.601, 328.223 199.593, 332.614 208.300 C 338.851 220.665, 352.341 224.233, 362.835 216.292 C 378.012 204.808, 369.879 180.984, 350.790 181.006 C 347.880 181.010, 344.150 181.714, 342.500 182.573 M 631 197.364 C 631 213.829, 622.351 229.518, 609.752 235.905 C 603.704 238.971, 595.019 248.056, 591.504 254.991 C 584.372 269.066, 589.275 286.352, 602.357 293.255 C 608.800 296.654, 618.731 296.368, 626.487 292.560 C 633.374 289.179, 640.877 282.122, 643.914 276.169 C 650.848 262.576, 650.660 241.585, 643.404 219.273 C 640.117 209.168, 633.033 193, 631.891 193 C 631.401 193, 631 194.964, 631 197.364 M 239.500 248.240 C 180.554 295.953, 100.670 325.637, 29.256 326.365 C 21.182 326.447, 16.007 326.891, 16.006 327.500 C 16.006 328.050, 18.212 337.950, 20.909 349.500 C 46.587 459.466, 86.077 532.447, 139 567.739 C 152.526 576.760, 165.228 582.386, 181.860 586.724 C 191.808 589.320, 193.801 589.498, 212.500 589.467 C 229.743 589.438, 233.714 589.128, 241.307 587.222 C 275.536 578.627, 301.149 555.371, 315.415 519.933 C 323.061 500.941, 326.280 482.278, 326.272 457 C 326.255 411.039, 313.501 362.233, 286.020 302.973 C 276.662 282.794, 253.603 240.916, 251.167 239.676 C 250.800 239.489, 245.550 243.343, 239.500 248.240 M 581.155 301.777 C 579.332 302.755, 577.188 304.667, 576.391 306.027 C 575.593 307.387, 552.229 367.398, 524.470 439.384 C 485.442 540.596, 474 571.261, 474 574.649 C 474 578.214, 474.617 579.702, 477.312 582.643 C 480.061 585.643, 481.464 586.336, 485.562 586.718 C 495.792 587.672, 490.399 597.811, 556.694 452.987 C 604.958 347.554, 615.972 322.717, 615.985 319.285 C 616.008 312.791, 612.205 309.187, 600.009 304.150 C 588.842 299.538, 585.998 299.180, 581.155 301.777 M 235.358 347.906 C 223.313 350.961, 216.279 363.166, 213.886 385.164 C 213.300 390.552, 212.974 395.423, 213.163 395.989 C 213.352 396.556, 215.902 393.877, 218.830 390.038 C 226.393 380.121, 242.231 365.442, 252.318 359 C 257.055 355.975, 260.946 353.226, 260.965 352.891 C 261.023 351.872, 248.603 348.139, 243.391 347.608 C 240.701 347.334, 237.086 347.468, 235.358 347.906 M 100.252 402.104 C 97.915 403.261, 94.806 405.623, 93.342 407.354 C 90.762 410.403, 85.903 420.016, 84.474 424.896 C 83.839 427.066, 83.996 427.220, 86.136 426.527 C 104.171 420.681, 127.362 417.373, 141.284 418.659 C 148.004 419.280, 148.403 419.209, 147.094 417.623 C 144.366 414.318, 128.708 404.646, 122.349 402.338 C 114.075 399.334, 106.020 399.249, 100.252 402.104 M 262.576 456.662 C 261.062 460.608, 252.053 472.966, 246.057 479.322 C 230.487 495.828, 212.372 504.409, 190.500 505.641 C 179.390 506.267, 165.491 504.446, 155.750 501.089 C 152.588 499.999, 150 499.455, 150 499.879 C 150 502.072, 155.326 515.827, 158.551 521.964 C 163.026 530.481, 173.267 540.562, 181.309 544.367 C 193.686 550.222, 210.294 551.633, 224.391 548.028 C 246.681 542.327, 265.141 524.515, 271.574 502.500 C 275.055 490.587, 273.435 473.823, 267.507 460.419 C 265.031 454.822, 263.678 453.791, 262.576 456.662" stroke="none" fill="black" fill-rule="evenodd"/>
</svg>