<svg xmlns="http://www.w3.org/2000/svg" width="667" height="667" viewBox="0 0 667 667" version="1.1">
	<path d="M 295.500 16.484 C 244.999 22.329, 196.786 41.844, 154.136 73.705 C 140.221 84.099, 112.476 111.395, 101.997 125 C 74.359 160.881, 55.605 201.068, 46.603 243.705 C 42.217 264.478, 40.731 279.581, 40.719 303.500 C 40.709 324.534, 41.180 330.388, 45.570 363.785 C 46.264 369.066, 58.489 405.417, 63.467 417 C 83.981 464.738, 118.004 507.150, 160.500 537.959 C 197.641 564.886, 240.017 582.019, 288 589.508 C 302.345 591.748, 339.310 592.600, 355.607 591.068 C 478.346 579.528, 580.094 492.089, 609.477 372.899 C 633.780 274.315, 605.176 171.387, 533.500 99.504 C 489.831 55.710, 434.319 27.618, 371.323 17.436 C 357.477 15.198, 311.588 14.622, 295.500 16.484 M 402.042 37.948 L 394.584 44.809 398.303 49.155 C 417.406 71.474, 434.537 95.185, 443.652 111.921 C 447.018 118.102, 447.855 118.987, 450.333 118.993 C 454.629 119.003, 467.646 122.555, 475.974 125.989 C 493.974 133.412, 515.482 147.884, 536.070 166.427 C 544.745 174.240, 543.512 174.234, 559.495 166.543 C 576.039 158.582, 575.384 160.432, 566.423 146.985 C 555.208 130.155, 545.338 118.193, 530.073 102.927 C 504.607 77.462, 477.652 58.632, 446.709 44.692 C 436.034 39.883, 412.008 30.916, 410.139 31.044 C 409.787 31.067, 406.144 34.175, 402.042 37.948 M 240.500 33.197 C 182.264 53.370, 136.200 86.933, 100 135.566 C 95.325 141.846, 90.487 148.765, 89.249 150.941 L 86.999 154.898 93.347 159.428 C 96.838 161.919, 103.603 166.037, 108.380 168.578 L 117.065 173.198 127.871 162.758 C 149.496 141.866, 181.774 124.098, 209.240 117.967 L 214.981 116.686 218.911 108.593 C 226.853 92.236, 239.615 75.364, 255.758 59.875 L 265.789 50.251 256.626 41.125 C 247.219 31.758, 246.159 31.237, 240.500 33.197 M 315.500 44.967 C 301.434 46.010, 290.752 47.580, 279.716 50.226 C 271.555 52.183, 270.421 52.780, 263.716 58.648 C 254.250 66.933, 241.410 81.396, 234.108 92 C 226.994 102.331, 219.659 116.668, 220.443 118.711 C 220.758 119.533, 232.984 137.260, 247.612 158.103 L 274.207 196 298.853 195.863 C 312.409 195.787, 336.229 195.450, 351.787 195.113 L 380.074 194.500 411.528 157.573 L 442.983 120.646 438.925 113.073 C 429.921 96.273, 409.736 68.543, 395.373 53.244 L 389.500 46.987 379 46.051 C 363.247 44.646, 327.963 44.044, 315.500 44.967 M 78.596 169.277 C 63.376 197.653, 53.083 228.785, 47.776 262.500 C 45.896 274.442, 45.569 280.617, 45.549 304.500 C 45.528 329.912, 45.698 332.817, 47.384 335.934 C 51.717 343.943, 75.993 365.547, 78.080 363.252 C 78.456 362.838, 80.210 357.775, 81.978 352 C 89.123 328.659, 97.870 309.293, 106.328 298.086 L 111.168 291.672 110.084 276.816 C 107.791 245.386, 108.969 210.698, 113.080 188.635 C 114.193 182.660, 114.968 177.679, 114.802 177.567 C 114.636 177.455, 109.892 174.784, 104.260 171.631 C 98.628 168.478, 91.986 164.346, 89.501 162.449 C 87.016 160.552, 84.786 159, 84.546 159 C 84.305 159, 81.628 163.625, 78.596 169.277 M 570.924 165.945 C 565.717 169.122, 548.574 177, 546.868 177 C 546.110 177, 545.959 178.234, 546.409 180.750 C 552.634 215.534, 553.343 251.909, 548.396 282.547 L 546.774 292.595 550.874 299.294 C 563.628 320.131, 571.892 341.790, 574.336 360.782 L 575.530 370.064 589.848 361.282 C 611.350 348.093, 609.952 349.776, 611.696 334.974 C 613.603 318.785, 612.958 277.304, 610.562 262 C 607.275 241.016, 600.780 217.117, 593.314 198.534 C 588.574 186.736, 577.002 162.949, 576.065 163.077 C 575.754 163.119, 573.441 164.410, 570.924 165.945 M 268.833 205.750 C 252.960 222.433, 232.293 257.691, 219.077 290.637 L 215.011 300.773 225.353 322.137 C 237.295 346.805, 250.888 372.794, 261.762 391.750 L 269.363 405 314.931 404.865 C 339.994 404.790, 367.682 404.453, 376.460 404.115 L 392.421 403.500 402.810 388 C 422.122 359.186, 439.682 327.957, 446.488 310.325 L 449.257 303.151 437.955 282.825 C 413.570 238.973, 397.280 214.579, 385.398 204.119 L 380.718 200 327.511 200 L 274.304 200 268.833 205.750 M 500 299.556 C 477.175 301.942, 457.405 304.030, 456.067 304.197 C 454.027 304.451, 453.110 305.842, 450.400 312.795 C 443.155 331.382, 426.383 361.132, 406.386 390.867 L 396.052 406.233 398.453 410.367 C 402.390 417.145, 408.690 433.831, 418.513 463.496 L 427.782 491.492 431.641 492.405 C 440.982 494.614, 508.578 488.551, 512.360 485.165 C 515.561 482.298, 523.444 471.919, 530.715 461 C 544.986 439.565, 557.207 414.667, 566.055 389 C 569.708 378.403, 570.354 375.352, 570.297 368.960 C 570.171 355.025, 565.161 337.357, 555.986 318.500 C 549.952 306.098, 543.350 294.918, 542.173 295.109 C 541.803 295.169, 522.825 297.171, 500 299.556 M 109.113 301.954 C 102.380 311.553, 94.468 329.146, 87.860 349.212 L 81.699 367.924 86.488 381.712 C 96.412 410.285, 114.663 447.844, 121.444 453.648 C 135.206 465.428, 165.763 477.712, 197 484.022 C 208.498 486.345, 231.954 490.006, 232.637 489.584 C 232.712 489.538, 235.724 481.607, 239.330 471.961 C 242.937 462.314, 250.357 443.893, 255.819 431.025 L 265.751 407.628 262.047 401.564 C 254.228 388.761, 237.430 357.101, 224.402 330.612 C 211.397 304.169, 210.702 303, 207.993 303 C 189.285 303, 127.364 298.790, 119.561 296.987 C 113.512 295.590, 113.611 295.543, 109.113 301.954 M 109.747 466.056 L 102.995 475.918 110.667 485.209 C 153.095 536.585, 214.795 572.287, 280.500 583.480 C 291.322 585.324, 316.012 588, 322.200 588 C 322.640 588, 323 580.340, 323 570.979 C 323 554.270, 322.959 553.940, 320.750 553.023 C 319.512 552.509, 315.350 550.892, 311.500 549.429 C 284.914 539.327, 253.385 518.198, 238.890 500.768 L 233.678 494.500 218.089 492.294 C 179.207 486.791, 146.943 476.320, 125.836 462.355 C 121.801 459.685, 118.050 457.207, 117.500 456.848 C 116.950 456.489, 113.461 460.632, 109.747 466.056 M 496.349 493.039 C 476.468 495.675, 458.317 497, 442.073 497 L 427.433 497 420.456 503.826 C 406.690 517.296, 387.058 530.149, 365.550 539.774 C 353.799 545.033, 331.491 553, 328.517 553 C 327.218 553, 327 555.539, 327 570.650 L 327 588.299 340.250 587.625 C 388.434 585.172, 432.082 572.484, 471.527 549.465 C 489.747 538.832, 516.158 519.359, 517.657 515.452 C 518.355 513.633, 511.812 491.724, 510.498 491.480 C 509.949 491.379, 503.582 492.080, 496.349 493.039" stroke="none" fill="black" fill-rule="evenodd"/>
</svg>