<svg xmlns="http://www.w3.org/2000/svg" width="667" height="667" viewBox="0 0 667 667" version="1.1">
	<path d="M 182.500 111.944 C 101.100 164.089, 33.600 207.464, 32.500 208.332 C 30.677 209.771, 57.014 209.915, 330.464 209.955 C 587.639 209.994, 630.220 209.800, 628.964 208.600 C 626.536 206.277, 333.681 17.720, 332.030 17.416 C 331.189 17.261, 263.900 59.799, 182.500 111.944 M 61 227.500 L 61 236 330.500 236 L 600 236 600 227.500 L 600 219 330.500 219 L 61 219 61 227.500 M 84 376.500 L 84 508 68 508 L 52 508 52 524 L 52 540 40 540 L 28 540 28 564.500 L 28 589 330.500 589 L 633 589 633 564.500 L 633 540 621 540 L 609 540 609 524.025 L 609 508.051 593.250 507.775 L 577.500 507.500 577.246 376.250 L 576.993 245 542.496 245 L 508 245 508 376.500 L 508 508 472 508 L 436 508 436 376.500 L 436 245 401.504 245 L 367.007 245 366.754 376.250 L 366.500 507.500 330.750 507.763 L 295 508.025 295 376.513 L 295 245 260 245 L 225 245 225 376.513 L 225 508.025 189.250 507.763 L 153.500 507.500 153.246 376.250 L 152.993 245 118.496 245 L 84 245 84 376.500" stroke="none" fill="black" fill-rule="evenodd"/>
</svg>