<svg xmlns="http://www.w3.org/2000/svg" width="667" height="667" viewBox="0 0 667 667" version="1.1">
	<path d="M 185.887 226.119 C 106.474 283.935, 38.972 333.700, 35.881 336.708 C 28.757 343.643, 23.831 351.967, 20.057 363.451 C 14.902 379.134, 13.704 388.310, 14.305 407.500 C 15.308 439.545, 22.767 460.953, 36.207 470.361 C 39.104 472.390, 49.537 477.215, 59.479 481.125 C 69.391 485.023, 77.790 488.387, 78.145 488.600 C 78.500 488.814, 74.390 499.004, 69.012 511.244 C 63.634 523.485, 59.520 533.613, 59.870 533.751 C 60.220 533.889, 73.105 527.578, 88.503 519.727 C 105.245 511.191, 116.762 505.863, 117.153 506.476 C 117.511 507.039, 121.053 520.325, 125.022 536 C 128.991 551.675, 132.531 564.823, 132.888 565.218 C 133.244 565.613, 137.984 555.263, 143.419 542.218 C 148.855 529.173, 153.370 518.402, 153.453 518.281 C 153.536 518.161, 193.180 533.640, 241.552 552.678 C 298.257 574.996, 331.173 587.452, 334.209 587.740 C 337.149 588.019, 340.003 587.646, 341.807 586.746 C 345.099 585.104, 643.857 351.434, 645.708 349.053 C 646.372 348.199, 647.469 345.079, 648.146 342.120 C 649.253 337.282, 649.181 336.385, 647.438 333.213 C 643.771 326.539, 634.640 324.160, 625.985 327.623 C 622.164 329.152, 621.812 329.139, 619.904 327.413 C 617.055 324.835, 609.305 308.661, 607.506 301.540 C 605.543 293.771, 605.593 282.686, 607.631 273.725 C 609.092 267.301, 609.860 265.927, 615.005 260.527 C 624.249 250.827, 625.891 245.626, 622.072 238.142 C 619.967 234.016, 613.746 227.941, 609.310 225.682 C 602.627 222.278, 335.139 121, 332.830 121 C 331.021 121, 288.108 151.699, 185.887 226.119 M 593 278.696 C 544.143 318.574, 336.001 482.218, 330.524 485.058 C 326.249 487.275, 325.364 488.264, 324.243 492.069 C 319.558 507.985, 323.506 528.606, 334.273 544.451 L 336.706 548.032 477.192 440.300 L 617.679 332.569 612.963 325.346 C 602.674 309.584, 598.638 288.209, 603.049 272.830 C 603.495 271.273, 603.779 270.028, 603.680 270.063 C 603.581 270.098, 598.775 273.982, 593 278.696 M 53.065 382.363 C 46.917 401.355, 47.245 422.760, 53.884 435.772 C 55.726 439.383, 56.639 439.879, 74.798 447.134 L 93.787 454.721 101.139 437.814 C 107.597 422.965, 108.736 420.970, 110.496 421.428 C 112.581 421.970, 179.981 451.648, 180.652 452.319 C 180.862 452.529, 178.049 459.765, 174.400 468.400 C 170.751 477.035, 167.994 484.327, 168.273 484.606 C 168.892 485.225, 331.236 550.994, 332.154 550.997 C 332.514 550.999, 330.689 547.474, 328.099 543.164 C 321.229 531.735, 318.816 523.720, 318.264 510.500 C 317.940 502.739, 318.253 497.588, 319.325 493.006 C 320.161 489.434, 320.767 486.496, 320.673 486.476 C 320.578 486.457, 318.700 485.598, 316.500 484.569 C 314.300 483.539, 254.356 459.416, 183.290 430.962 L 54.080 379.227 53.065 382.363" stroke="none" fill="black" fill-rule="evenodd"/>
</svg>