<svg xmlns="http://www.w3.org/2000/svg" width="667" height="667" viewBox="0 0 667 667" version="1.1">
	<path d="M 332.500 288.679 C 268.306 296.652, 187.581 317.737, 122.500 343.530 C 115.900 346.146, 108.475 348.465, 106 348.684 C 83.132 350.707, 69.665 352.979, 56.500 357.039 C 41.331 361.716, 28.922 370.423, 24.488 379.500 C 21.526 385.564, 21.848 395.869, 25.229 403.218 C 34.235 422.791, 58.007 444.169, 100.490 470.900 C 113.864 479.314, 116.407 481.349, 120.640 487.015 C 127.269 495.890, 144.520 513.059, 156 522.207 C 171.121 534.257, 189.099 545.498, 208.500 555.033 C 242.854 571.916, 276.208 581.658, 318.500 587.158 C 332.834 589.022, 335.750 589.115, 346.500 588.048 C 419.007 580.852, 482.938 553.072, 526.047 510.030 C 532.398 503.688, 540.108 495.125, 543.179 491 C 548.347 484.059, 549.907 482.792, 564.101 474 C 611.511 444.635, 640.032 418.456, 645.643 399.155 C 653.257 372.964, 627.368 355.770, 572.987 350.904 C 559.804 349.725, 559.083 349.533, 541 342.421 C 503.673 327.738, 456.860 312.962, 418 303.597 C 382.318 294.998, 340.447 287.692, 332.500 288.679 M 99 357.679 C 63.778 361.289, 40.248 369.896, 33.331 381.699 C 24.785 396.282, 39.905 417.635, 78.888 446.038 C 97.063 459.280, 114.997 470.290, 115.013 468.216 C 115.040 464.617, 108.902 365.293, 108.403 361.250 C 107.830 356.620, 108.150 356.741, 99 357.679 M 557.997 358.216 C 557.995 358.372, 556.424 383.475, 554.504 414 C 552.585 444.525, 551.012 470.066, 551.007 470.757 C 550.992 473.318, 586.587 449.899, 604.052 435.857 C 630.517 414.579, 642.697 394.866, 636.585 383.200 C 630.528 371.639, 605.838 362.291, 574 359.506 C 570.425 359.193, 565.362 358.711, 562.750 358.434 C 560.138 358.158, 557.999 358.059, 557.997 358.216" stroke="none" fill="black" fill-rule="evenodd"/>
</svg>