<svg xmlns="http://www.w3.org/2000/svg" width="667" height="667" viewBox="0 0 667 667"><path d="M415.23 69.015c-11.286 2.957-22.584 9.349-31.23 17.667l-7.5 7.216 8.596-.586c20.769-1.418 42.94 5.79 59.289 19.276 27.482 22.668 34.91 61.223 17.199 89.279-1.421 2.251-2.584 4.304-2.584 4.562s1.636-.215 3.635-1.05c13.455-5.622 28.51-19.991 35.171-33.568 5.742-11.704 7.502-19.21 7.574-32.311.064-11.75-1.15-18.402-5.113-28-8.644-20.936-29.444-38.555-50.767-43.005-9.865-2.058-25.325-1.824-34.27.52M19.306 249.413l-2.806 2.414v334.346l2.806 2.414L22.112 591h62.979l2.454-2.455L90 586.091V517h486v69.091l2.455 2.454 2.454 2.455h62.979l2.806-2.413 2.806-2.414V465.161l-2.424-2.58-2.425-2.581H90V251.909l-2.455-2.454L85.091 247H22.112l-2.806 2.413m171.016 56.685c-22.217 3.71-40.837 19.512-49.088 41.66-3.343 8.975-4.187 25.519-1.818 35.618 2.432 10.363 8.816 21.758 16.533 29.51 11.733 11.785 25.077 17.817 41.551 18.784 22.649 1.33 43.648-9.146 56.325-28.1 7.094-10.607 9.304-17.655 9.907-31.605.624-14.423-.579-20.459-6.395-32.077-12.398-24.766-39.429-38.395-67.015-33.79m100.625 24.801L288 333.846v46.127c0 48.579.187 50.734 4.545 52.406 2.116.812 347.794.812 349.91 0 .891-.342 2.319-1.975 3.175-3.63 1.991-3.851 1.12-15.407-2.131-28.249-8.487-33.525-34.405-59.679-68.999-69.628l-8-2.3-136.303-.31-136.303-.31-2.947 2.947" fill-rule="evenodd"/></svg>