<svg xmlns="http://www.w3.org/2000/svg" width="667" height="667" viewBox="0 0 667 667"><path d="M295.337 32.514c-6.63 3.974-8.337 8.643-8.337 22.802V67h-26.599c-30.081 0-31.408.266-36.517 7.319L221 78.3v17.4c0 13.034.354 18.077 1.411 20.1 2.117 4.053 6.816 8.118 10.658 9.22 1.88.539 14.783.98 28.674.98H287v31.759l-9.253 4.592c-11.611 5.763-23.679 15.351-30.775 24.453l-5.472 7.018-55.528.339-55.529.339-4.962 2.555c-3.002 1.545-6.152 4.245-7.972 6.834l-3.009 4.279-.292 29.874c-.273 27.982-.168 30.114 1.659 33.666 2.494 4.85 6.638 8.77 11.351 10.739 3.198 1.336 10.922 1.553 55.23 1.553h51.511l2.161 4.25c5.814 11.432 15.664 23.24 25.826 30.957 7.615 5.783 23.912 13.955 32.554 16.323 9.353 2.564 32.23 3.11 42.598 1.016 26.684-5.387 51.103-23.607 63.389-47.296l2.723-5.25H447v54.527l-5.04 1.197c-6.197 1.472-10.103 4.161-13.139 9.044-2.035 3.272-2.365 5.264-2.678 16.152-.215 7.452.096 13.933.776 16.204 1.475 4.924 5.363 9.469 10.218 11.946 3.748 1.912 5.722 1.972 55.698 1.706l51.813-.276 4.156-2.751c6.963-4.609 8.196-8.333 8.196-24.759 0-15.68-.55-17.632-6.422-22.787-3.327-2.922-8.919-5.185-12.842-5.197-1.65-.006-1.761-2.122-1.723-32.756.043-34.292-.384-39.109-4.546-51.346-9.719-28.575-33.624-50.367-63.649-58.023-7.363-1.877-12.003-2.177-40.417-2.61l-32.099-.489-1.743-2.952c-3.123-5.286-15.874-17.294-24.049-22.646-4.395-2.878-11.483-6.66-15.75-8.405l-7.76-3.172V126h25.257c13.891 0 26.794-.441 28.674-.98 3.842-1.102 8.541-5.167 10.658-9.22 1.057-2.023 1.411-7.066 1.411-20.1V78.3l-2.884-3.981C404.007 67.266 402.68 67 372.599 67H346V55.157c0-10.464-.271-12.355-2.325-16.25-1.449-2.747-3.803-5.248-6.25-6.641-3.636-2.069-5.178-2.234-20.925-2.24-16.352-.007-17.159.088-21.163 2.488M490.141 429.5c-8.037 40.212-17.808 65.31-35.598 91.437-6.805 9.994-8.875 16.65-8.368 26.917.824 16.708 11.667 30.549 28.939 36.939 21.958 8.124 47.98-2.029 58.159-22.692 2.744-5.571 3.28-7.87 3.578-15.369.475-11.918-1.089-16.193-11.8-32.264-20.173-30.267-29.288-52.699-32.418-79.778l-1.293-11.19-1.199 6" fill-rule="evenodd"/></svg>