<svg xmlns="http://www.w3.org/2000/svg" width="667" height="667" viewBox="0 0 667 667"><path d="M135.011 78.206c-7.622 2.933-15.969 11.392-18.857 19.111l-2.171 5.803.259 232.69.258 232.69 2.8 5.703c3.511 7.149 11.032 14.029 18.312 16.753 5.512 2.062 5.651 2.064 199.702 1.804l194.186-.26 4.349-2.321c8.815-4.704 15.786-12.931 18.257-21.549 1.15-4.008 1.212-464.304.063-468.158-2.621-8.796-9.652-17.161-18.169-21.617l-4.5-2.355-194.5-.203-194.5-.203-5.489 2.112m98.409 21.623c-8.279 5.2-6.399 16.842 3.263 20.21 6.532 2.277 13.772-3.618 13.772-11.214 0-8.006-10.11-13.345-17.035-8.996M275 98.706c-2.761 1.01-5.932 4.557-7.02 7.855-2.239 6.784 3.538 13.894 11.289 13.894 3.252 0 4.51-.638 7.329-3.713 3.811-4.159 4.373-7.964 1.885-12.775-2.393-4.627-8.596-7.047-13.483-5.261M160 109.5V120h44V99h-44v10.5m-31.331 36.164c-.368.368-.669 5.544-.669 11.503V168h411.066l-.283-11.25-.283-11.25-204.581-.252c-112.519-.139-204.882.048-205.25.416M323 251.012c-33.669 2.785-63.783 17.318-87.681 42.316C210.584 319.201 198 350.773 198 386.955c0 28.453 6.915 51.581 22.739 76.045 6.776 10.476 25.752 29.685 36.276 36.72 33.211 22.201 72.508 29.217 110.388 19.709 41.666-10.459 76.549-40.623 92.917-80.345 21.088-51.18 9.37-109.362-29.946-148.677-27.94-27.941-68.03-42.649-107.374-39.395m-.5 30.085c-36.054 3.225-69.769 26.88-86.07 60.389-11.43 23.495-13.632 53.764-5.746 78.99 11.003 35.2 39.75 62.497 76.11 72.271 8.665 2.329 11.53 2.609 26.706 2.609 15.221 0 18.046-.278 27-2.656 37.845-10.049 67.263-39.446 77.565-77.51 3.199-11.819 3.769-35.631 1.154-48.19-4.194-20.143-13.272-37.521-27.41-52.476-23.487-24.843-54.692-36.522-89.309-33.427m-5.5 22.404c-37.948 7.669-66.076 39.152-69.586 77.886-.369 4.068-.358 10.308.023 13.867l.693 6.47 5.685-2.338c10.554-4.341 19.559-2.988 29.225 4.391 9.521 7.268 14.875 10.019 21.975 11.292 8.351 1.496 16.26-.36 25.64-6.017 9.805-5.913 15.07-7.37 24.798-6.859 6.936.364 9.106.931 13.893 3.633 6.907 3.899 15.927 6.139 24.79 6.159 5.53.013 7.53-.485 12-2.984 2.95-1.649 7.031-3.786 9.068-4.75 3.43-1.621 3.756-2.154 4.389-7.188.996-7.913-.231-22.438-2.623-31.063-9.094-32.784-35.787-56.995-69.404-62.949-7.872-1.394-22.503-1.179-30.566.45" fill-rule="evenodd"/></svg>