<svg xmlns="http://www.w3.org/2000/svg" width="667" height="667" viewBox="0 0 667 667"><path d="M391.301 59.027c-2.966 1.506-4.802 3.376-6.25 6.368-2.033 4.199-2.051 5.297-2.051 123.421V308H108.736l-3.392 2.097c-4.983 3.079-6.344 6.508-6.344 15.985 0 6.458.425 8.869 2.016 11.444 4.302 6.961-8.034 6.474 163.899 6.474h155.113l-.264-138.427c-.263-138.046-.27-138.434-2.326-141.188-4.001-5.358-7.022-6.828-14.739-7.171-5.8-.257-8.015.095-11.398 1.813m41.133 38.046c-1.345 1.486-1.988 4.034-2.268 8.994-.488 8.644.387 13.486 2.89 15.989 1.886 1.886 3.904 1.944 67.444 1.944 63.885 0 65.549-.049 67.475-1.975 2.718-2.718 3.296-5.714 2.878-14.915C570.245 93.702 577.786 95 500.5 95c-65.702 0-66.204.015-68.066 2.073m.49 36.508l-2.424 2.58v194.012l2.806 2.414c2.763 2.376 3.108 2.413 22.75 2.413H476v67h-37c-28.939 0-36.998-.272-36.989-1.25.006-.687.634-3.305 1.397-5.816 1.816-5.983 4.279-21.326 5.086-31.684l.643-8.25H112.695l.642 11.75c2.758 50.415 34.513 98.694 80.206 121.943l9.448 4.807.004 46.25L203 586h115v-92.614l7.243-3.443c21.29-10.12 44.042-29.984 57.553-50.246 3.962-5.942 7.204-11.23 7.204-11.75 0-.583 18.3-.947 47.532-.947 40.64 0 48.069-.224 51.236-1.548 4.715-1.97 7.924-4.971 10.329-9.662 1.773-3.458 1.903-6.334 1.903-42.25V335h22.5c13.051 0 22.5-.387 22.5-.921 0-.507 5.426-43.594 12.058-95.75s12.127-96.499 12.211-98.54c.11-2.677-.512-4.419-2.232-6.25L565.651 131H435.349l-2.425 2.581" fill-rule="evenodd"/></svg>