<svg xmlns="http://www.w3.org/2000/svg" width="667" height="667" viewBox="0 0 667 667"><path d="M324.883 40.047c-43.717 3.894-80.741 26.556-95.47 58.434-4.441 9.613-6.373 18.557-6.396 29.609-.057 28.133 16.211 52.795 46.733 70.849 3.988 2.359 7.25 4.385 7.25 4.501 0 .117-6.047 7.369-13.438 16.116-7.39 8.746-13.285 16.054-13.099 16.24.186.186 16.695-4.144 36.688-9.622l36.349-9.961 18-.536c19.828-.59 29.605-2.267 45-7.719 49.925-17.678 76.39-59.472 63.929-100.958-6.426-21.394-26.995-43.075-51.687-54.484-15.531-7.175-29.693-10.795-48.882-12.493-12.377-1.096-12.411-1.096-24.977.024M323.5 71.954c-1.1.455-3.118 2.03-4.484 3.5-2.082 2.241-2.544 3.875-2.859 10.109L315.781 93l-12.14.022c-9.758.018-12.962.395-16.325 1.921-5.099 2.315-7.546 6.54-7.121 12.292l.305 4.123 28.898 10.816 28.897 10.816 30.103-11.305 30.102-11.306.337-3.439c.48-4.902-2.353-9.527-7.301-11.922-3.48-1.685-6.176-2.018-16.352-2.018H363v-5.532c0-7.138-2.048-11.917-6.19-14.442-2.919-1.78-4.964-2.011-17.31-1.959-7.7.033-14.9.432-16 .887m3.195 9.684c-.382.383-.695 3.095-.695 6.029V93h27.1l-.3-5.75-.3-5.75-12.555-.278c-6.905-.154-12.868.034-13.25.416m44.055 49.531L344 141.246v5.677c0 6.464-1.098 8.077-5.5 8.077-4.398 0-5.5-1.613-5.5-8.048v-5.648l-25.25-9.328c-13.887-5.131-25.812-9.522-26.5-9.759-.981-.338-1.25 5.627-1.25 27.676V178h119v-28.5c0-15.675-.337-28.479-.75-28.454-.413.026-12.788 4.581-27.5 10.123m-202.291 64.226c-16.295 3.959-29.724 17.396-33.47 33.491-.766 3.291-1.049 8.678-.726 13.846 2.357 37.778 49.202 54.936 76.218 27.917 9.826-9.827 14.667-24.706 12.484-38.37-4.122-25.802-29.483-42.963-54.506-36.884M482 195.098c-7.193 1.405-16.731 6.677-22.478 12.424-17.54 17.54-17.345 46.055.434 63.478 14.368 14.08 35.456 16.976 53.218 7.309 5.901-3.212 14.778-12.337 17.853-18.354 17.198-33.64-11.883-72.111-49.027-64.857m-319.137 97.469c-10.381 3.196-12.303 5.346-45.617 51.012-17.221 23.607-31.585 43.995-31.921 45.308-2.557 9.996 11.523 20.19 20.112 14.562 1.302-.853 9.274-11.687 17.715-24.075l15.348-22.525.5 112.826c.551 124.419.047 115.696 6.881 118.939 4.334 2.056 12.306 1.42 15.267-1.218 4.898-4.364 4.852-3.612 4.852-79.364V437h25v71.032c0 78.286-.172 76.064 6.19 79.942 6.237 3.803 15.696 1.875 19.104-3.894 1.581-2.677 1.706-11.135 1.706-115.224V356.521l4.521 6.74 4.521 6.739h25.011c27.563 0 29.532-.342 34.244-5.941 4.878-5.798 2.711-14.827-4.503-18.757-2.739-1.492-6.579-1.879-22.78-2.298l-19.487-.504-16.015-21.296c-16.982-22.581-20.456-25.922-29.86-28.715-6.445-1.914-24.467-1.868-30.789.078m312.451.241c-7.392 2.625-12.94 6.593-16.621 11.889-1.756 2.527-8.926 12.144-15.934 21.372l-12.74 16.778-19.26.326c-16.238.276-19.776.609-22.553 2.126-7.215 3.939-9.381 12.963-4.503 18.76 4.709 5.596 6.69 5.941 34.142 5.941h24.91l4.622-6.695L452 356.61v112.245c0 123.879-.403 116.302 6.357 119.51 7.721 3.664 16.919.62 19.337-6.4.878-2.551 1.208-22.131 1.25-74.215L479 437h24.962l.269 72.981.269 72.981 3.269 3.269c3.018 3.017 3.767 3.269 9.731 3.269s6.713-.252 9.731-3.269l3.269-3.269.5-113.056.5-113.056 15.263 22.527c8.394 12.39 16.257 23.224 17.472 24.075 5.364 3.757 15.786.276 19.254-6.431 2.678-5.179 1.923-8.235-4.118-16.666-23.825-33.246-56.444-77.301-59.261-80.037-1.883-1.828-5.94-4.56-9.017-6.071-5.061-2.486-6.782-2.772-18.093-3.014-10.089-.215-13.5.088-17.686 1.575" fill-rule="evenodd"/></svg>