<svg xmlns="http://www.w3.org/2000/svg" width="667" height="667" viewBox="0 0 667 667"><path d="M273.272 114.437c-18.758 4.545-34.363 20.119-38.732 38.656-1.147 4.867-1.514 12.836-1.525 33.157L233 213l-58.25.026c-57.641.025-58.319.049-64.808 2.261-14.38 4.903-25.782 14.673-32.28 27.662-4.807 9.609-5.765 15.26-5.441 32.088l.279 14.444 129.152 48.346 129.152 48.345 134.348-50.336L599.5 285.5l.289-9.334c.906-29.301-11.884-50.545-36.289-60.274l-6-2.392-59.5-.5-59.5-.5-.515-29.5c-.484-27.675-.656-29.849-2.783-35.146-6.908-17.201-20.521-29.36-37.295-33.314-8.622-2.032-116.306-2.121-124.635-.103m8.116 41.543c-1.161.469-3.074 2.077-4.25 3.572-2.056 2.614-2.138 3.686-2.138 28.083V213h121v-51.2l-3.4-3.4-3.4-3.4-52.85.063c-29.068.035-53.8.448-54.962.917M478 379.359l-120.5 45.195-.5 24.054-.5 24.054-3 4.829c-4.362 7.02-8.626 8.925-20.945 9.359-11.151.392-15.997-.669-20.546-4.496-6.19-5.209-6.461-6.49-7.009-33.245l-.5-24.391L190 381.853c-62.975-23.576-115.287-43.118-116.25-43.427-1.66-.532-1.75 5.824-1.75 124.007V587h528V460.5c0-69.575-.337-126.463-.75-126.418-.413.045-54.975 20.42-121.25 45.277" fill-rule="evenodd"/></svg>