<svg xmlns="http://www.w3.org/2000/svg" width="667" height="667" viewBox="0 0 667 667"><path d="M378.431 33.056c-36.77 3.569-68.757 22.998-81.401 49.444-2.104 4.4-4.395 10.475-5.091 13.5-1.532 6.658-1.621 21.095-.162 26.25.584 2.063.945 3.75.802 3.75-.142 0-3.819-.942-8.169-2.094-5.7-1.508-11.124-2.114-19.41-2.169-13.434-.089-21.682 1.297-31.838 5.347-33.887 13.513-46.162 45.574-27.224 71.105 4.328 5.835 11.627 11.994 20.512 17.311 1.444.864.643 2.219-5.909 9.994-4.168 4.946-7.18 9.126-6.693 9.289.487.162 9.863-2.198 20.835-5.244 16.095-4.469 21.408-5.539 27.502-5.539 22.585 0 43.303-8.119 56.162-22.008 6.524-7.047 10.108-14.196 11.7-23.343.646-3.708 1.462-6.589 1.814-6.402 17.717 9.408 35.056 13.717 57.94 14.401l15.302.457 31.047 8.516c17.075 4.684 31.226 8.337 31.445 8.117.219-.219-4.775-6.522-11.098-14.006-6.323-7.485-11.497-13.801-11.497-14.035 0-.235 3.488-2.472 7.75-4.972 18.228-10.689 30.585-25.353 36.846-43.725 2.811-8.248 2.653-26.136-.314-35.5-3.063-9.666-8.535-18.593-16.714-27.265-16.49-17.485-41.046-28.533-69.395-31.221-11.684-1.108-12.916-1.106-24.742.042M111.782 178.553c-14.374 3.485-29.415 15.527-35.571 28.478-10.175 21.407-6.114 46.066 10.289 62.469 10.61 10.61 23.479 15.798 38.95 15.702 15.848-.099 28.521-5.789 39.359-17.671 19.573-21.46 18.785-53.937-1.809-74.531-13.45-13.45-32.808-18.91-51.218-14.447m424.218.03c-19.381 5.113-35.05 20.802-39.46 39.51-4.245 18.007.336 36.125 12.46 49.282 11.138 12.087 23.653 17.728 39.55 17.827 15.471.096 28.34-5.092 38.95-15.702 10.504-10.505 15.508-22.759 15.488-37.932-.021-16.195-4.421-27.033-15.469-38.098-7.919-7.932-16.062-12.679-25.612-14.93-7.972-1.879-18.689-1.862-25.907.043M115.5 308.155c-3.223 1.182-9.179 5.294-11.305 7.804-.717.848-2.4 3.791-3.74 6.541l-2.435 5-.01 64.185c-.007 42.851.343 65.12 1.051 67 1.579 4.187 6.874 9.202 10.895 10.319 2.035.566 19.573.987 41.202.99l37.657.006 1.656 9.25c.91 5.087 5.571 31.3 10.356 58.25l8.701 49 16.486-.364c9.067-.2 16.63-.494 16.805-.653.176-.159-4.392-25.87-10.15-57.136-5.759-31.266-10.746-60.135-11.082-64.155-1.002-11.969-6.189-19.813-16.087-24.325-3.535-1.611-6.989-1.826-29.726-1.845L150.048 438l-.274-56.25c-.26-53.32-.375-56.453-2.211-60.153-2.485-5.01-7.213-9.719-12.16-12.112-4.573-2.213-15.505-2.943-19.903-1.33m425.248.272c-5.531 1.974-10.344 6.03-13.476 11.357L524.5 324.5 524 381l-.5 56.5-26.5.5-26.5.5-4.645 2.73c-9.245 5.436-12.475 11.299-13.802 25.058-.489 5.067-5.472 33.878-11.074 64.026-5.601 30.148-10.026 54.959-9.832 55.136.194.177 7.752.486 16.795.686l16.442.364 10.268-57.5c5.648-31.625 10.286-57.837 10.308-58.25.022-.413 17.028-.753 37.79-.756 22.435-.003 39.231-.417 41.402-1.019 4.533-1.26 10.522-7.685 11.338-12.165.331-1.821.469-32.11.306-67.31-.295-63.823-.302-64.011-2.504-68.128-2.867-5.36-10.129-11.707-15.099-13.196-5.127-1.536-12.744-1.427-17.445.251m-332.133 73.661c-4.051 3.187-5.615 7.121-5.611 14.112.004 7.059 2.025 11.462 6.653 14.496 2.55 1.671 6.608 1.825 55.048 2.088l52.295.284V587.05l16.25-.275 16.25-.275.256-86.718.255-86.718 55.79-.282c51.81-.262 55.985-.411 58.542-2.086 4.628-3.034 6.649-7.437 6.653-14.496.004-6.991-1.56-10.925-5.611-14.112L462.73 380H211.27l-2.655 2.088" fill-rule="evenodd"/></svg>