<svg xmlns="http://www.w3.org/2000/svg" width="667" height="667" viewBox="0 0 667 667"><path d="M375 165.496c-12.13 2.734-18.799 7.1-57.999 37.969-20.625 16.242-37.597 29.869-37.716 30.283-.119.413 2.802 2.777 6.49 5.252 8.573 5.752 21.5 18.645 27.072 27 2.384 3.575 4.702 6.5 5.151 6.5.449 0 16.872-12.741 36.495-28.313l35.679-28.312 109.664 87.854c60.315 48.32 110.777 88.623 112.137 89.563 2.836 1.959 9.742 2.251 13.438.566 2.259-1.029 19.523-20.434 23.832-26.788 2.135-3.147 2.318-11.097.343-14.87-.777-1.485-19.874-17.55-42.437-35.7l-41.024-33-.063-42.849c-.069-47.336-.074-47.383-6.435-51.921-3.01-2.147-4.079-2.24-28.627-2.51-28.517-.312-30.123.001-34.75 6.779-2.066 3.028-2.25 4.427-2.25 17.149 0 7.619-.255 13.852-.566 13.852-.311 0-12.123-9.372-26.25-20.827-35.418-28.719-39.29-31.28-54.684-36.165-9.123-2.895-27.988-3.655-37.5-1.512m-163.045 63.539c-33.514 4.667-62.354 25.56-76.559 55.465-14.234 29.966-12.79 66.01 3.72 92.842l3.111 5.056-3.907 3.551C83.127 436.113 19.019 495.664 18.145 497.58c-2.979 6.54-.175 14.461 6.777 19.146 3.754 2.53 10.196 2.995 13.698.989 2.171-1.244 121.778-110.933 122.844-112.657.324-.524 3.478 1.066 7.009 3.534 25.586 17.886 59.804 22.23 89.75 11.395 29.541-10.689 52.032-35.028 61.441-66.487 2.459-8.224 2.693-10.465 2.707-26 .018-19.912-1.456-26.921-8.927-42.444-5.978-12.42-11.367-19.8-21.695-29.708-17.307-16.603-38.487-25.485-63.787-26.751-5.204-.261-12.407-.064-16.007.438m144.135 27.498c-25.898 20.731-33.102 26.985-32.591 28.291 11.252 28.721 11.109 57.637-.42 85.332-10.101 24.263-32.476 46.027-58.272 56.678-13.997 5.779-23.5 7.562-40.307 7.562-15.73 0-25.044-1.57-37.59-6.339-2.975-1.131-5.752-2.056-6.17-2.056-1.14-.001.195 135.686 1.387 140.999 2.224 9.913 10.744 18.474 20.873 20.974 6.739 1.664 371.134-.322 376-2.049 5.443-1.932 11.814-6.687 14.601-10.898 5.569-8.416 5.463-6.27 4.738-95.66l-.668-82.293-103.038-83.287c-56.671-45.808-103.546-83.418-104.167-83.578-.62-.16-16.09 11.686-34.376 26.324m-143.969-2.472c-14.732 2.628-26.652 8.783-38.236 19.743-12.97 12.27-20.229 26.128-22.886 43.689-3.703 24.475 6.94 50.97 26.967 67.13 12.862 10.378 25.91 15.251 43.059 16.077 9.678.467 12.884.216 20-1.562 26.187-6.544 45.431-24.543 54.139-50.638 2.029-6.08 2.331-8.906 2.298-21.5-.033-13.026-.31-15.313-2.724-22.5-3.91-11.642-9.128-19.88-18.741-29.584-7.109-7.177-10.058-9.347-18-13.244-5.223-2.563-12.197-5.365-15.497-6.227-7.445-1.944-23.214-2.662-30.379-1.384m6.468 16.584c-13.921 2.984-27.261 10.904-38.371 22.781-5.465 5.842-9.969 12.316-9.042 12.998.178.131 2.428 1.389 5 2.795l4.676 2.558 4.491-5.783C197.169 290.765 215.641 281 232.621 281h6.201l.339-6.002.339-6.002-7 .084c-3.85.046-10.11.75-13.911 1.565" fill-rule="evenodd"/></svg>