<svg xmlns="http://www.w3.org/2000/svg" width="667" height="667" viewBox="0 0 667 667"><path d="M326.469 45.002c-1.668.518-4.08 1.918-5.36 3.112C316.605 52.309 316 55.62 316 76.075c0 17.824-.12 19.092-1.75 18.449-.962-.379-5.8-1.648-10.75-2.82-12.308-2.915-42.651-3.13-55.5-.394-14.662 3.122-31.036 9.196-48.912 18.146-20.61 10.318-24.485 11.898-36.966 15.065-20.169 5.118-42.576 5.456-64.622.974-10.348-2.103-29.59-8.502-37.354-12.421-3.349-1.691-7.652-3.074-9.562-3.074-6.782 0-11.443 7.108-9.203 14.037.948 2.934 2.342 4.104 9.119 7.658 9.443 4.952 28.112 11.321 41.663 14.213 11.854 2.529 31.812 4.432 41.03 3.911 5.175-.292 6.738-.082 6.378.856-.262.684-21.258 40.749-46.658 89.034L46.731 327.5l.601 9c2.328 34.856 23.553 68.115 53.925 84.497 14.437 7.788 27.667 11.08 44.522 11.08 16.992 0 28.393-2.607 42.721-9.768 32.735-16.36 55.607-52.5 56.545-89.348l.165-6.461-43.605-89.237C177.622 188.182 158 147.832 158 147.595c0-.236 2.363-.927 5.25-1.536 11.647-2.455 26.091-7.956 41.655-15.866 19.923-10.125 27.303-13.111 41.595-16.83 10.216-2.659 12.283-2.858 29-2.786 18.441.079 26.016 1.269 36.83 5.788l3.67 1.533V521h-47.318c-52.778 0-53.965.127-61.483 6.561-5.801 4.966-9.35 11.391-10.089 18.266l-.61 5.673-24 .5c-16.402.342-24.684.892-26.161 1.737-4.305 2.466-6.339 7.405-6.335 15.381.004 8.483 1.892 12.629 7.237 15.887 3.221 1.964 5.416 1.988 186.259 1.99 172.233.002 183.205-.101 186.48-1.747 5.692-2.859 8.02-7.358 8.02-15.495 0-7.919-1.811-12.712-5.836-15.444-2.329-1.582-5.682-1.872-26.664-2.309l-24-.5-.62-5c-1.252-10.083-6.428-17.638-15.29-22.314l-5.09-2.686-49.25-.286-49.25-.286V117.281l6.272-2.058c22.554-7.405 48.426-6.917 73.728 1.388 5.775 1.896 18.148 7.321 27.495 12.055 19.396 9.824 25.915 12.453 40.121 16.18l10.116 2.654-43.961 90-43.961 90 .632 8.769c2.654 36.801 25.586 71.119 57.946 86.718 14.697 7.084 21.687 8.521 41.112 8.454 15.604-.055 17.739-.286 26-2.811 39.886-12.191 68.83-48.978 72.282-91.868l.773-9.593-38.319-72.834a119850.43 119850.43 0 01-46.713-88.851l-8.393-16.016 7.397.373c9.352.473 28.046-1.322 40.83-3.92 19.374-3.936 45.279-14.1 49.449-19.402 5.192-6.599.449-16.445-7.946-16.497-2.188-.013-6.491 1.387-10.784 3.508-20.796 10.278-51.923 16.557-74.576 15.043-22.35-1.494-37.965-6.251-63.894-19.463-19.712-10.045-34.685-15.3-52.106-18.287-19.332-3.315-48.018-1.599-61.692 3.692-1.55.599-1.718-1.07-2-19.86-.336-22.385-.517-23.109-7-27.949-2.97-2.218-13.527-3.199-18.339-1.704M106.937 240.713c-23.341 44.37-42.582 81.261-42.76 81.98-.265 1.068 14.759 1.307 82.25 1.307 45.415 0 82.573-.224 82.573-.498 0-.438-78.932-162.644-79.431-163.232-.108-.127-19.292 36.073-42.632 80.443m370.927 1.537l-39.618 81.25 82.538.256c45.396.141 82.682.111 82.858-.065C604.09 323.244 518.72 161 518.037 161c-.306 0-18.384 36.563-40.173 81.25" fill-rule="evenodd"/></svg>