<svg xmlns="http://www.w3.org/2000/svg" width="667" height="667" viewBox="0 0 667 667"><path d="M37.766 43.918L34.5 46.836v535.119l2.773 2.772 2.772 2.773h407.91l2.772-2.772 2.773-2.773.269-72.922.269-72.922 38.731-30.838c21.302-16.962 51.053-40.499 66.113-52.306 34.819-27.298 78.924-64.911 81.83-69.785 1.467-2.46 2.543-6.616 3.192-12.327 2.458-21.635-5.092-37.677-21.28-45.215-11.259-5.243-25.145-6.455-32.274-2.818-3.731 1.903-46.677 34.778-110.35 84.472l-25.5 19.902-.5-87.571-.5-87.572-6.595-6.776c-3.628-3.727-26.952-28.268-51.831-54.535-24.88-26.267-46.07-48.205-47.089-48.75-1.202-.643-55.466-.992-154.403-.992H41.032l-3.266 2.918M55 314.5V567h378V452.832l-3.75 2.979c-2.062 1.639-8.025 6.4-13.25 10.58-5.225 4.181-10.062 7.603-10.75 7.605-1.667.005-1.528-3.886.25-6.996 2.327-4.071 1.863-9.415-1.126-12.967-3.055-3.631-7.243-5.892-16.625-8.977-8.552-2.812-9.749-4.478-9.749-13.567 0-12.575-4.886-18.63-16.981-21.045-10.268-2.049-11.293-.993 40.481-41.73l31-24.391.255-88.662.256-88.661h-94.165l-2.923-2.923-2.923-2.923V62H55v252.5m55.405-166.395c-2.921 3.228-2.653 11.466.456 13.983 2.256 1.827 4.64 1.912 53.575 1.912h51.215l2.175-2.314c2.943-3.134 3.041-10.819.174-13.686-1.949-1.949-3.333-2-53.845-2-51.437 0-51.86.017-53.75 2.105m.456 107.807c-3.109 2.517-3.377 10.755-.456 13.983L112.31 272h242.545l2.072-2.635c2.722-3.459 2.722-9.271 0-12.73L354.855 254H234.038c-117.465 0-120.882.053-123.177 1.912M550 258.626c-2.475 1.934-4.899 3.906-5.386 4.381-.791.772 15.771 22.146 38.437 49.605l7.551 9.148 6.034-5.18 6.034-5.179-23.275-27.93c-12.801-15.362-23.639-28.028-24.084-28.146-.446-.118-2.836 1.367-5.311 3.301m-439.595 61.479c-2.921 3.228-2.653 11.466.456 13.983 2.295 1.859 5.706 1.912 122.795 1.912h120.435l2.454-2.455c3.165-3.164 3.342-9.148.382-12.91L354.855 318H112.31l-1.905 2.105m.262 63.711c-3.685 4.071-2.867 12.936 1.404 15.222 1.116.597 39.108.962 100.175.962 97.621 0 98.394-.016 100.565-2.039 1.721-1.603 2.189-3.174 2.189-7.345 0-9.447 9.949-8.616-103.174-8.616-94.877 0-99.593.085-101.159 1.816m230.752 37.199c-1.695.525-3.773 1.749-4.617 2.72-.845.971-9.5 17.579-19.235 36.906-16.102 31.972-17.637 35.467-17.02 38.756.797 4.25 5.41 8.603 9.117 8.603 3.744 0 77.213-19.69 79.804-21.387 3.322-2.177 5.868-8.326 6.34-15.312.343-5.086.03-6.827-1.745-9.699-2.865-4.635-7.553-7.4-14.703-8.671-10.004-1.779-9.305-.957-9.117-10.736.211-10.914-1.564-15.127-7.948-18.868-4.934-2.892-15.299-4.039-20.876-2.312m-229.137 77.191c-4.637 2.239-5.319 11.641-1.12 15.44 1.938 1.755 4.806 1.854 53.531 1.854h51.484l1.911-2.361c2.872-3.546 2.594-10.548-.543-13.684L215.091 497l-50.296.068c-33.568.045-51.033.424-52.513 1.138" fill-rule="evenodd"/></svg>