<svg xmlns="http://www.w3.org/2000/svg" width="667" height="667" viewBox="0 0 667 667"><path d="M533.5 19.145c-16.264 2.073-36.977 9.632-49.178 17.946-17.009 11.59-28.6 26.915-32.8 43.369-1.687 6.605-1.978 20.865-.553 27.012.506 2.184.826 4.066.711 4.181-.115.115-3.352-.721-7.194-1.858-5.639-1.669-9.783-2.071-21.486-2.085-12.902-.015-15.492.282-23.5 2.688-36.549 10.982-53.402 42.439-37.208 69.453 3.891 6.489 13.551 15.745 19.984 19.147 2.598 1.374 4.724 2.787 4.724 3.14 0 .354-3.353 4.614-7.45 9.469-4.098 4.854-7.295 8.981-7.105 9.171.19.19 9.383-2.159 20.43-5.219 17.421-4.826 21.581-5.625 31.355-6.024 21.758-.887 39.02-7.592 51.347-19.944 8.23-8.247 12.189-15.562 13.716-25.346l1.052-6.745 6.578 3.253c15.079 7.459 32.862 11.309 54.077 11.707l13.5.254 30.96 8.599c17.028 4.73 31.147 8.413 31.376 8.185.228-.229-4.029-5.646-9.46-12.038-15.373-18.092-14.709-15.331-5.106-21.232 18.28-11.231 30.124-24.867 35.815-41.228 3.062-8.804 3.778-25.042 1.503-34.068-10.378-41.17-62.053-68.674-116.088-61.787m-277.588 148.3c-12.592 3.473-25.634 13.843-31.631 25.149-18.599 35.066 6.15 76.456 45.679 76.394 28.904-.045 51.225-22.481 51.225-51.488 0-23.088-14.369-42.838-36.04-49.536-7.398-2.286-21.895-2.544-29.233-.519m-6.722 124.581c-6.32 3.853-6.191 2.316-6.184 73.192.003 39.102.391 65.67.99 67.826 1.117 4.021 6.132 9.316 10.319 10.895 1.847.696 19.824 1.061 52.25 1.061 27.189 0 49.435.139 49.435.31 0 .688 24.036 136.362 24.547 138.559l.551 2.369 15.701-.725c8.635-.398 15.81-.824 15.944-.945.765-.694-27.841-151.972-29.331-155.112-2.423-5.107-7.786-10.272-13.323-12.833-4.363-2.019-6.371-2.139-40.839-2.45l-36.25-.326v-41.424c0-22.782.209-41.423.465-41.423s14.768 9.104 32.25 20.231c36.495 23.228 37.163 23.486 41.035 15.807 4.344-8.615 1.987-22.505-4.868-28.686-3.753-3.384-71.312-45.958-74.931-47.219-1.885-.657-9.8-1.131-18.85-1.129-13.884.003-15.965.226-18.911 2.022m-54.69 51.988c-23.589 4.837-42.943 14.941-60.347 31.503-28.702 27.314-42.435 66.735-36.72 105.41 4.045 27.379 15.125 49.535 34.567 69.123 24.772 24.957 55.791 37.062 91.387 35.661 50.189-1.975 92.247-32.654 110.221-80.401 2.788-7.409 5.962-22.864 6.89-33.56l.673-7.75h-29.875l-.611 7.75c-3.049 38.674-31.235 71.913-69.473 81.928-11.975 3.137-30.373 3.563-41.955.973-27.569-6.167-51.031-24.218-63.23-48.651C128.78 491.487 126 479.639 126 463.274c0-23.92 8.687-45.464 25.447-63.107 15.892-16.731 36.575-26.723 59.442-28.718l8.111-.707V342l-7.75.084c-4.262.047-11.8.915-16.75 1.93" fill-rule="evenodd"/></svg>