<svg xmlns="http://www.w3.org/2000/svg" width="667" height="667" viewBox="0 0 667 667"><path d="M76.266 149.083c-12.566 3.99-24.168 15.802-28.261 28.772-1.974 6.257-2.005 8.982-2.005 174.75V521h575V355.184c0-115.69-.33-167.61-1.093-171.75-2.54-13.786-11.744-25.773-24.71-32.181l-7.593-3.753-252.552-.198c-249.18-.195-252.635-.171-258.786 1.781m7.731 29.161c-2.64 1.338-5.274 3.68-6.474 5.756-2.003 3.466-2.026 4.991-2.286 155.25L74.975 491h516.044l-.26-152.427c-.259-152.189-.262-152.431-2.321-155.188-1.134-1.519-3.304-3.689-4.823-4.823l-2.762-2.062-246.202-.256-246.203-.256-4.451 2.256M288.02 324.128l.02 76.372 5.243-5.5c2.883-3.025 10.058-10.654 15.944-16.953 5.885-6.299 10.892-11.249 11.126-11 .234.249 7.002 13.618 15.042 29.708l14.616 29.255 11.915-5.973 11.914-5.972-11.42-28.528c-6.281-15.69-11.42-28.909-11.42-29.376 0-.466 9.563-1.436 21.25-2.154 11.688-.719 21.97-1.577 22.849-1.907 1.164-.437-12.677-14.347-50.848-51.1-28.846-27.775-53.303-51.117-54.349-51.872-1.865-1.345-1.902.125-1.882 75M18.174 555.25c.303 15.402.572 17.686 2.51 21.318 2.593 4.86 9.14 10.992 14.176 13.279 3.354 1.523 26.531 1.674 295.14 1.917 206.341.188 293.031-.052 296.74-.818 7.006-1.449 14.02-6.339 17.731-12.363l3.029-4.917.313-17.833.313-17.833h-253.86l-2.652 4.008c-3.312 5.003-9.208 9.341-14.816 10.9-3.1.861-15.866 1.11-45.798.893-40.601-.294-41.589-.349-45.628-2.509-3.915-2.094-12.372-10.593-12.372-12.433 0-.474-57.131-.859-127.583-.859H17.835l.339 17.25" fill-rule="evenodd"/></svg>