<svg xmlns="http://www.w3.org/2000/svg" width="667" height="667" viewBox="0 0 667 667"><path d="M370.765 43.041c-41.064 3.412-75.859 16.443-105.226 39.409-10.378 8.116-28.446 26.902-35.805 37.228-9.493 13.32-21.689 35.7-20.243 37.146.284.285 1.528-.395 2.763-1.51 12.381-11.177 39.103-23.046 60.487-26.865 11.573-2.067 34.045-2.048 45.759.039 57.051 10.164 101.459 55.11 111.027 112.372 2.09 12.511 1.569 37.294-1.033 49.14-10.27 46.751-43.883 85.058-88.021 100.312-17.017 5.881-24.831 7.14-44.473 7.165-13.267.018-19.556-.42-26-1.808-8.797-1.895-22.686-6.199-29.285-9.075l-3.784-1.65 1.902 3.778c6.666 13.238 14.464 39.087 17.581 58.278 6.024 37.093 3.759 82.743-5.852 117.953-.818 3-1.337 5.606-1.151 5.791.485.486 245.019 19.146 245.443 18.73.194-.191-1.909-6.114-4.673-13.161-11.79-30.052-15.972-48.936-14.884-67.214 1.011-16.996 6.766-28.693 15.998-32.519 4.72-1.956 4.723-1.956 29.463.463 14.735 1.442 31.415 2.428 41.242 2.439 15.953.017 16.667-.07 21.54-2.643 6.132-3.236 12.793-10.261 15.759-16.619 2.092-4.486 2.193-5.91 2.046-28.72-.085-13.2-.447-30.525-.804-38.5-.8-17.832-.861-17.711 9.945-19.59 18.828-3.274 24.835-14.663 19.204-36.41-3.391-13.095-7.761-24.015-15.985-39.936a8154.077 8154.077 0 01-9.82-19.064c-5.989-11.7-6.705-20.315-5.824-70 .286-16.133.045-19.81-1.882-28.734-10.201-47.233-42.186-83.536-97.679-110.865-25.646-12.63-53.294-21.025-80-24.291-12.473-1.525-35.92-2.05-47.735-1.069M272.5 146.014c-17.325 3.553-34.355 11.059-47.607 20.983-8.218 6.154-22.267 20.773-27.393 28.503-20.477 30.882-25.826 67.688-14.921 102.671 1.428 4.581 5.275 13.463 8.549 19.739 3.274 6.275 5.597 11.763 5.162 12.194-.434.432-6.75 6.098-14.035 12.591C142.443 378.18 48.927 464.944 47.574 467.651c-3.451 6.907-1.703 12.1 6.77 20.113 5.135 4.857 5.893 5.236 10.461 5.236 3.575 0 5.716-.614 7.81-2.239 3.687-2.862 122.919-112.208 134.885-123.7 14.378-13.81 11.968-13.051 21.292-6.702 32.806 22.338 74.269 26.696 111.638 11.733 34.135-13.669 60.718-44.262 70.206-80.798 3.147-12.117 4.252-32.795 2.422-45.313-5.618-38.421-29.531-71.987-63.558-89.216-10.278-5.204-22.791-9.438-33.381-11.295-11.614-2.037-32.29-1.779-43.619.544m12 23.125c-31.02 3.927-58.685 23.389-72.609 51.079-6.39 12.708-9.039 23.259-9.629 38.363-.391 10-.11 15.062 1.191 21.485 7.129 35.18 31.716 61.788 67.047 72.558 8.091 2.466 10.565 2.75 24.5 2.809 13.212.057 16.745-.273 23.933-2.237 33.053-9.032 57.613-33.417 67.28-66.801 1.958-6.763 2.285-10.189 2.282-23.895-.005-17.134-.866-22.075-6.158-35.327-4.231-10.597-10.225-19.836-18.719-28.853-15.781-16.755-35.057-26.387-58.592-29.279-9.463-1.163-10.611-1.157-20.526.098m2.1 26.946c-19.425 4.772-40.108 19.656-51.921 37.364l-2.634 3.949 4.727 2.784c2.601 1.531 5.044 2.792 5.43 2.801.386.009 2.024-1.895 3.64-4.233 8.205-11.866 23.685-23.892 37.02-28.759 8.1-2.956 23.364-5.563 27.708-4.733 2.209.422 2.431.136 2.444-3.147.007-1.986.285-4.623.616-5.861.597-2.225.495-2.249-9.263-2.178-6.151.046-12.842.804-17.767 2.013" fill-rule="evenodd"/></svg>