<svg xmlns="http://www.w3.org/2000/svg" width="667" height="667" viewBox="0 0 667 667"><path d="M175.258 23.01c-31.73 3.298-60.683 19.331-75.33 41.714-6.816 10.417-9.052 17.552-9.644 30.776-.578 12.9.953 20.316 6.298 30.5 15.636 29.794 51.093 48 93.48 48 10.622 0 11.761.232 42.023 8.571 17.108 4.715 31.323 8.355 31.588 8.089.265-.265-1.034-2.21-2.888-4.321-1.853-2.111-7.05-8.165-11.547-13.453l-8.177-9.614 8.72-5.297c10.603-6.441 24.135-19.729 29.507-28.975 5.942-10.227 8.152-18.654 8.132-31-.016-9.09-.422-11.648-3.029-19.044-9.599-27.239-36.634-47.64-71.965-54.308-10.467-1.975-26.939-2.701-37.168-1.638M174 69v16h-32v30h32v32h29v-31.95l16.25-.275 16.25-.275v-29l-16.25-.275L203 84.95V53h-29v16m145.105 121.583c-8.131 2.186-14.934 6.237-21.726 12.936-9.643 9.512-14.388 20.878-14.367 34.413.022 13.957 5.126 26.08 14.91 35.412 23.552 22.465 61.783 16.5 77.329-12.065 12.317-22.63 3.8-52.704-18.628-65.776-10.402-6.062-25.776-8.078-37.518-4.92m-77.838 37.556c-7.679 2.16-13.802 11.72-11.446 17.871.524 1.37 14.052 20.439 30.062 42.377l29.109 39.887v251.115l2.415 3.649c3.397 5.134 8.414 7.288 15.74 6.758 6.252-.453 9.629-2.277 13.291-7.18 2.018-2.703 2.068-3.971 2.336-59.689l.274-56.927h16.979l-.044 56.583c-.043 55.498-.004 56.647 2.024 59.929 4.761 7.702 18.751 9.961 26.255 4.238 7.239-5.522 6.738 4.495 6.738-134.761V326.78l22.697-31.14a57077.373 57077.373 0 0129.096-39.891c9.556-13.071 9.421-19.487-.544-25.806-5.405-3.428-10.421-3.806-14.532-1.095-1.531 1.01-12.681 16.367-24.778 34.128s-22.908 33.577-24.025 35.145l-2.032 2.853-5.191-2.737c-5.115-2.697-5.461-2.737-23.693-2.737-18.111 0-18.618.057-23.986 2.714-3.645 1.804-5.824 2.381-6.498 1.721-.558-.545-11.364-16.138-24.014-34.649-12.65-18.511-24.125-34.429-25.5-35.373-3.348-2.299-6.824-2.873-10.733-1.774M293 426.531c0 4.393.36 5.644 1.75 6.079 10.693 3.343 19.915 11.214 26.632 22.733l3.882 6.657h11.661l3.956-5.825c5.517-8.124 14.096-15.638 22.201-19.445l6.878-3.23.02-6.25.02-6.25h-77v5.531" fill-rule="evenodd"/></svg>