<svg xmlns="http://www.w3.org/2000/svg" width="667" height="667" viewBox="0 0 667 667"><path d="M545.455 120.275l-69.872 67.377-4.649-1.964c-6.823-2.883-10.903-1.799-17.836 4.739l-5.598 5.279-4.5-2.088c-3.455-1.603-6.475-2.087-13-2.083-15.888.01-5.719-8.992-129.75 114.857L190 416.479l-18.498-18.477-18.498-18.478-13.506 13.478-13.505 13.477 25.746 25.76 25.745 25.76-22.48 22.497-22.481 22.498-12.026-11.997-12.025-11.996-13.478 13.505-13.479 13.506 42.236 42.237 42.237 42.236 13.506-13.479 13.505-13.478-11.996-12.025-11.997-12.026 22.498-22.481 22.497-22.48 25.996 25.981 25.996 25.982 13.506-13.478 13.505-13.477L274.3 500.8l-18.703-18.723 109.244-109.519c103.093-103.35 109.423-109.898 112.402-116.264 2.729-5.832 3.154-7.834 3.138-14.77-.015-6.022-.556-9.224-2.17-12.832l-2.149-4.807 3.43-3.012c7.392-6.49 9.693-14.747 6.066-21.761L483.949 196l61.686-64.25c33.928-35.337 64.187-66.837 67.242-69.998 5.023-5.196 5.407-5.897 4.003-7.3-1.404-1.404-8.26 4.914-71.425 65.823M422.5 209.918c-2.462 1.153-11.3 9.217-22.983 20.97l-18.982 19.097 7.234 7.283 7.234 7.282-7.01 6.957-7.011 6.957-7.23-7.229-7.229-7.23-12.763 12.734-12.762 12.734 14.508 14.533 14.509 14.533L363 325.5l-7.014 6.96-14.497-14.471-14.497-14.471-12.731 12.731-12.731 12.731 7.237 7.285 7.236 7.285-7.01 6.957-7.011 6.957-7.23-7.229-7.229-7.23-12.763 12.734-12.762 12.734 14.508 14.533 14.509 14.533L284 404.5l-7.014 6.96-14.495-14.469-14.495-14.469-20.498 20.48L207 423.482l20.241 20.259C238.373 454.883 247.939 464 248.497 464c1.652 0 211.167-210.221 212.783-213.5 4.989-10.12 3.272-15.176-9.635-28.374-13.703-14.011-19.823-16.575-29.145-12.208M164.994 488.506l-21.479 21.496 9.245 9.244 9.244 9.244 21.506-21.506 21.507-21.507-9.272-9.233-9.272-9.234-21.479 21.496" fill-rule="evenodd"/></svg>