<svg xmlns="http://www.w3.org/2000/svg" width="667" height="667" viewBox="0 0 667 667"><path d="M319.184 39.077c-38.082 3.499-75.889 23.361-113.059 59.396C195.459 108.813 175 131.604 175 133.146c0 .383 11.978 11.13 26.618 23.882l26.619 23.186 2.631-2.096c21.05-16.761 50.664-30.948 77.632-37.189 13.187-3.051 38.852-3.759 52.659-1.452 25.106 4.194 50.587 15.903 71.926 33.051l6.585 5.292 25.058-22.16c19.083-16.877 24.861-22.518 24.233-23.66-2.382-4.337-15.889-19.944-26.457-30.57-44.661-44.908-94.972-66.797-143.32-62.353M325 67v11h-22v20h22v22h20V98h22V78h-22V56h-20v11m-9.5 81.616c-22.317 4.006-45.221 13.412-66 27.104-19.889 13.107-23.684 17.587-28.892 34.108-21.645 68.674 21.361 140.484 92.069 153.733 17.66 3.31 40.954 1.699 59.197-4.093 34.388-10.918 64.676-41.206 75.594-75.594 7.887-24.842 7.745-52.39-.392-76.314-4.417-12.986-7.722-18.273-15.576-24.914-20.846-17.626-46.137-29.968-69.881-34.1-11.116-1.935-35.155-1.899-46.119.07m-43.845 240.949c-15.722 2.904-32.682 10.032-45.545 19.14-3.635 2.574-12.495 10.556-19.687 17.738-7.192 7.181-48.692 46.357-92.222 87.057l-79.146 74 45.205.26 45.205.261 26.025-26.011c14.313-14.305 26.358-26.01 26.767-26.01.409 0 .743 11.7.743 26v26h299.969l.266-28.474.265-28.474 30 28.439 30 28.439 45.983.035 45.984.035-3.484-3.378c-7.583-7.355-184.721-166.477-191.128-171.691-12.259-9.973-27.033-17.377-43.917-22.008-8.259-2.265-9.55-2.319-60.938-2.56-42.388-.2-54.011.032-60.345 1.202M384 468v11h-22v20h22v22h20v-22h22v-20h-22v-22h-20v11" fill-rule="evenodd"/></svg>