<svg xmlns="http://www.w3.org/2000/svg" width="667" height="667" viewBox="0 0 667 667"><path d="M160 66.02c-11.267 1.994-27.862 7.367-37.005 11.982-3.1 1.565-9.654 5.54-14.566 8.832C77.4 107.638 59.556 137.324 51.827 181c-1.774 10.026-1.784 53.337-.015 65.5 3.034 20.86 9.551 48.981 14.08 60.75L66.95 310h109.128l49.165-39c27.04-21.45 49.47-39 49.843-39 .372 0 18.618 25.413 40.546 56.473 21.927 31.06 40.093 56.469 40.368 56.464.275-.005 13.55-11.011 29.5-24.459l29-24.451 93.203-.013 93.203-.014 1.046-3.75c13.735-49.218 15.045-92.187 3.925-128.75-6.381-20.982-18.668-41.849-33.833-57.458C543.932 77.106 500.727 61.778 459 65.939c-35.227 3.512-63.846 14.561-89.5 34.552-11.074 8.629-26.027 24.498-33.223 35.256l-6.033 9.019-3.289-7.011c-16.105-34.326-49.893-58.55-95.855-68.72-24.458-5.412-51.157-6.545-71.1-3.015m65.5 261.477l-36 28.475-49.269.264-49.269.264 8.151 10.5c51.156 65.902 134.308 147.265 215.868 211.221l13.481 10.572 4.393-3.147c8.013-5.738 51.615-40.907 70.062-56.509 58.246-49.267 112.976-103.081 142.833-140.441 12.11-15.154 31.25-43.293 31.25-45.944 0-.595-27.784-.672-74.7-.207l-74.699.742-39.892 35.988c-38.663 34.879-39.946 35.929-41.661 34.106-.973-1.034-20.092-27.193-42.487-58.131-22.396-30.937-41.021-56.245-41.39-56.239-.369.006-16.871 12.825-36.671 28.486" fill-rule="evenodd"/></svg>