<svg xmlns="http://www.w3.org/2000/svg" width="667" height="667" viewBox="0 0 667 667"><path d="M519 52v35h-69v60h69v70.029l30.25-.264 30.25-.265.263-34.75.263-34.75H649V87h-69V17h-61v35M323.5 275.697c-88.637 4.705-184.416 46.976-266.702 117.703C42.517 405.675 15 432.555 15 434.229c0 1.049 18.346 18.759 32.5 31.375 63.267 56.392 133.61 96.05 200 112.757 105.634 26.583 213.033 4.787 313.169-63.556 30.929-21.109 65.968-51.5 87.009-75.465l5.507-6.272-1.987-2.79c-3.623-5.088-40.48-40.609-54.007-52.049-87.173-73.727-177.672-107.63-273.691-102.532m67.059 22.142c15.637 8.584 30.576 21.588 41.086 35.763 37.498 50.574 32.374 120.489-12.09 164.953-38.617 38.616-97.227 48.123-146.055 23.691-26.881-13.451-50.18-38.68-60.584-65.604-5.945-15.386-8.073-25.763-8.646-42.161-1.03-29.528 5.568-52.908 21.752-77.073 6.269-9.361 22.119-25.563 30.243-30.914 3.171-2.088 5.625-3.937 5.454-4.109-.598-.597-27.333 7.463-40.082 12.085-60.159 21.807-124.602 62.535-172.014 108.713L38.5 434.017l6 5.624c99.214 92.998 202.473 137.434 307.33 132.255 92.258-4.557 187.681-49.586 264.149-124.65l14.521-14.254-13.012-12.746c-52.984-51.899-103.984-85.884-160.883-107.207-19.918-7.464-47.543-14.631-67.105-17.409l-4-.568 5.059 2.777M280.197 340.51c-6.699 1.865-8.437 2.809-13.363 7.259-5.806 5.245-9.054 12.268-9.589 20.731-.826 13.064 5.411 23.744 17.275 29.585 6.016 2.961 6.977 3.138 14.708 2.714 9.386-.515 14.547-2.641 20.246-8.339 15.099-15.099 11.194-40.188-7.681-49.345-7.735-3.753-14.525-4.572-21.596-2.605" fill-rule="evenodd"/></svg>