<svg xmlns="http://www.w3.org/2000/svg" width="667" height="667" viewBox="0 0 667 667"><path d="M424.5 100.078c-5.811 1.756-39.176 6.918-54 8.355-42.375 4.107-86.439 2.497-122.935-4.493-5.465-1.046-10.09-1.748-10.279-1.56-.719.72 13.687 21.518 20.863 30.12 33.11 39.692 69.681 50.247 107.661 31.072 13.218-6.673 22.456-13.671 36.286-27.488 10.738-10.727 25.404-28.545 28.95-35.17.874-1.632.688-1.901-1.261-1.828-1.257.047-3.635.494-5.285.992m20.037 1.807c-.953 3.002-12.761 21.216-19.305 29.78-24.325 31.828-49.322 50.914-75.672 57.777-19.708 5.134-41.683 1.133-61.507-11.198-20.434-12.71-38.876-32.467-58.595-62.773-4.284-6.584-8.092-12.325-8.461-12.759-.664-.778-193.64 75.578-195.414 77.321-1.154 1.134 21.441 129.047 22.888 129.574.566.205 25.779-7.635 56.029-17.424l55-17.798.253 156.308.253 156.307H504V274.333l56.113 16.887c30.862 9.288 56.321 16.679 56.575 16.425.713-.713 26.732-129.569 26.243-129.965-.956-.775-195.708-77.68-196.713-77.68-.596 0-1.352.848-1.681 1.885" fill-rule="evenodd"/></svg>